<svg width="409" height="41" viewBox="0 0 409 41" fill="none" xmlns="http://www.w3.org/2000/svg">
<path d="M129.721 41V40.8901C129.721 40.6702 127.054 19.8954 126.498 15.059C125.276 19.7855 119.496 40.0107 119.163 40.8901V41H111.494V40.8901C111.272 40.0107 105.381 19.6756 104.269 15.059C103.714 19.7855 100.935 40.6702 100.935 40.8901V41H90.2653L96.6005 0.10992H107.937V0.219839C108.271 1.20912 114.384 22.0938 115.384 26.1609C116.384 22.2038 122.497 1.20912 122.719 0.219839V0.10992H134.056L140.391 41H129.721ZM17.3549 41L15.132 32.9759H29.2473L21.6895 7.36461L13.9094 33.6354L11.6865 41H0.127563L14.354 0H28.8027L43.0291 41H17.3549ZM65.4802 41C61.9236 41 58.9227 40.5603 56.4776 39.7909C54.0324 38.9115 52.0318 37.7024 50.5869 36.0536C49.2532 34.5147 48.364 32.6461 47.8083 30.5576C47.2526 28.4692 47.0303 25.0617 47.0303 20.6649V0.10992H58.4781V18.9062C58.4781 21.7641 58.5893 23.8525 58.7004 25.1716C58.8116 26.3807 59.145 27.4799 59.4784 28.3592C59.923 29.3485 60.5899 30.118 61.7013 30.6676C62.7016 31.2172 64.0353 31.437 65.4802 31.437C67.0362 31.437 68.2588 31.1072 69.2591 30.6676C70.2594 30.118 71.0374 29.3485 71.482 28.3592C71.8154 27.5898 72.0377 26.4906 72.26 25.1716C72.3711 23.9625 72.4823 21.7641 72.4823 18.9062V0.10992H83.9301V20.6649C83.9301 25.1716 83.7078 28.4692 83.1521 30.5576C82.5964 32.6461 81.7072 34.5147 80.3735 36.0536C78.9286 37.7024 77.0392 39.0215 74.4829 39.7909C71.9266 40.6702 68.9257 41 65.4802 41Z" fill="#007BFF"/>
<path d="M162.245 35.8995H165.418L163.831 30.9952L162.245 35.8995ZM162.443 28.0526H165.418L169.98 40.6076H167.005L166.212 38.0573H161.451L160.658 40.6076H157.881L162.443 28.0526Z" fill="#818799"/>
<path d="M171.369 28.0526H174.146V38.4497H180.295V40.6076H171.369V28.0526Z" fill="#818799"/>
<path d="M184.46 28.0526H181.882V40.6076H184.46V28.0526Z" fill="#818799"/>
<path d="M188.824 36.6843C188.824 37.2728 189.023 37.6651 189.221 38.0575C189.618 38.646 190.411 38.8422 191.403 38.8422C191.998 38.8422 192.593 38.8422 192.99 38.646C193.783 38.4498 194.18 37.8613 194.18 37.2728C194.18 36.8805 193.982 36.4881 193.585 36.2919C193.188 36.0958 192.593 35.8996 191.8 35.7034L190.411 35.3111C189.023 35.1149 188.229 34.7226 187.634 34.3302C186.841 33.7417 186.444 32.7609 186.444 31.5838C186.444 30.4068 186.841 29.6221 187.634 28.8374C188.428 28.0527 189.618 27.6604 191.205 27.6604C192.593 27.6604 193.783 28.0527 194.577 28.6413C195.568 29.4259 195.965 30.4068 196.163 31.78H193.585C193.585 30.9953 193.188 30.4068 192.593 30.2106C192.196 30.0145 191.601 29.8183 191.006 29.8183C190.213 29.8183 189.816 30.0145 189.419 30.2106C189.023 30.4068 188.824 30.7991 188.824 31.3877C188.824 31.78 189.023 32.1723 189.419 32.3685C189.618 32.5647 190.213 32.7609 191.006 32.957L193.188 33.5455C194.18 33.7417 194.973 34.1341 195.37 34.5264C196.163 35.1149 196.56 35.8996 196.56 37.0766C196.56 38.2537 196.163 39.2345 195.172 39.823C194.18 40.6077 192.99 41.0001 191.403 41.0001C189.816 41.0001 188.428 40.6077 187.436 39.823C186.444 39.0383 186.047 38.0575 186.047 36.6843H188.824Z" fill="#818799"/>
<path d="M200.527 36.6843C200.527 37.2728 200.726 37.6651 200.924 38.0575C201.321 38.646 202.114 38.8422 203.106 38.8422C203.701 38.8422 204.296 38.8422 204.693 38.646C205.486 38.4498 205.883 37.8613 205.883 37.2728C205.883 36.8805 205.685 36.4881 205.288 36.2919C204.891 36.0958 204.296 35.8996 203.503 35.7034L202.114 35.3111C200.726 35.1149 199.932 34.7226 199.337 34.3302C198.544 33.7417 198.147 32.7609 198.147 31.5838C198.147 30.4068 198.544 29.6221 199.337 28.8374C200.131 28.0527 201.321 27.6604 203.106 27.6604C204.494 27.6604 205.685 28.0527 206.478 28.6413C207.47 29.4259 207.866 30.4068 208.065 31.78H205.486C205.486 30.9953 205.089 30.4068 204.494 30.2106C204.098 30.0145 203.503 29.8183 202.908 29.8183C202.114 29.8183 201.717 30.0145 201.321 30.2106C200.924 30.4068 200.726 30.7991 200.726 31.3877C200.726 31.78 200.924 32.1723 201.321 32.3685C201.519 32.5647 202.114 32.7609 202.908 32.957L205.089 33.5455C206.081 33.7417 206.875 34.1341 207.271 34.5264C208.065 35.1149 208.462 35.8996 208.462 37.0766C208.462 38.2537 208.065 39.2345 207.073 39.823C206.081 40.6077 204.891 41.0001 203.304 41.0001C201.717 41.0001 200.329 40.6077 199.337 39.823C198.345 39.0383 197.949 38.0575 197.949 36.6843H200.527Z" fill="#818799"/>
<path d="M213.817 35.8995H216.991L215.404 30.9952L213.817 35.8995ZM214.016 28.0526H216.991L221.553 40.6076H218.578L217.784 38.0573H213.222L212.429 40.6076H209.652L214.016 28.0526Z" fill="#818799"/>
<path d="M227.305 28.0526H230.082V35.7033C230.082 36.488 230.281 37.2727 230.479 37.665C230.876 38.4497 231.471 38.6459 232.661 38.6459C233.653 38.6459 234.446 38.2535 234.645 37.665C234.843 37.2727 235.041 36.6841 235.041 35.7033V28.0526H237.818V35.7033C237.818 37.0765 237.62 38.0574 237.223 38.842C236.43 40.2152 235.041 40.8038 232.859 40.8038C230.678 40.8038 229.289 40.2152 228.496 38.842C228.099 38.0574 227.901 37.0765 227.901 35.7033V28.0526H227.305Z" fill="#818799"/>
<path d="M240 28.0526H242.777L247.736 36.8803V28.0526H250.315V40.6076H247.538L242.381 31.7799V40.6076H240V28.0526Z" fill="#818799"/>
<path d="M255.075 28.0526H252.497V40.6076H255.075V28.0526Z" fill="#818799"/>
<path d="M264.993 28.0526H267.77L263.406 40.6076H260.828L256.662 28.0526H259.439L262.216 37.665L264.993 28.0526Z" fill="#818799"/>
<path d="M278.68 30.4067H271.936V32.9569H278.085V35.1148H271.936V38.4497H278.878V40.6076H269.357V28.0526H278.68V30.4067Z" fill="#818799"/>
<path d="M283.639 30.2106V33.5455H286.416C287.011 33.5455 287.408 33.5455 287.606 33.3493C288.201 33.1531 288.399 32.5646 288.399 31.9761C288.399 31.1914 288.201 30.7991 287.606 30.4067C287.408 30.2106 287.011 30.2106 286.416 30.2106H283.639ZM288.994 28.445C289.391 28.6412 289.788 28.8374 290.184 29.2297C290.383 29.6221 290.581 29.8182 290.78 30.2106C290.978 30.6029 290.978 30.9953 290.978 31.5838C290.978 32.1723 290.78 32.7608 290.581 33.3493C290.184 33.9378 289.788 34.3302 288.994 34.5263C289.589 34.7225 289.986 35.1149 290.184 35.5072C290.383 35.8995 290.581 36.4881 290.581 37.4689V38.2536C290.581 38.8421 290.581 39.2345 290.581 39.4306C290.581 39.823 290.78 40.0191 290.978 40.2153V40.6077H288.003C288.003 40.4115 287.804 40.0191 287.804 40.0191C287.804 39.6268 287.606 39.2345 287.606 39.0383V37.8613C287.606 37.0766 287.407 36.4881 287.209 36.2919C287.011 36.0957 286.416 35.8995 285.622 35.8995H283.044V40.8038H280.465V28.2489H286.416C288.003 28.0527 288.598 28.2489 288.994 28.445Z" fill="#818799"/>
<path d="M295.54 36.6843C295.54 37.2728 295.738 37.6651 295.937 38.0575C296.334 38.646 297.127 38.8422 298.119 38.8422C298.714 38.8422 299.309 38.8422 299.706 38.646C300.499 38.4498 300.896 37.8613 300.896 37.2728C300.896 36.8805 300.697 36.4881 300.301 36.2919C299.904 36.0958 299.309 35.8996 298.515 35.7034L297.127 35.3111C295.738 35.1149 294.945 34.7226 294.35 34.3302C293.557 33.7417 293.16 32.7609 293.16 31.5838C293.16 30.4068 293.557 29.6221 294.35 28.8374C295.143 28.0527 296.334 27.6604 298.119 27.6604C299.507 27.6604 300.697 28.0527 301.491 28.6413C302.483 29.4259 302.879 30.4068 303.078 31.78H300.499C300.499 30.9953 300.102 30.4068 299.507 30.2106C299.111 30.0145 298.515 29.8183 297.92 29.8183C297.127 29.8183 296.73 30.0145 296.334 30.2106C295.937 30.4068 295.738 30.7991 295.738 31.3877C295.738 31.78 295.937 32.1723 296.334 32.3685C296.532 32.5647 297.127 32.7609 297.92 32.957L300.102 33.5455C301.094 33.7417 301.888 34.1341 302.284 34.5264C303.078 35.1149 303.474 35.8996 303.474 37.0766C303.474 38.2537 303.078 39.2345 302.086 39.823C301.094 40.6077 299.904 41.0001 298.317 41.0001C296.73 41.0001 295.342 40.6077 294.35 39.823C293.358 39.0383 292.961 38.0575 292.961 36.6843H295.54Z" fill="#818799"/>
<path d="M308.83 35.8995H312.004L310.417 30.9952L308.83 35.8995ZM309.028 28.0526H312.004L316.566 40.6076H313.789L312.995 38.0573H308.433L307.64 40.6076H304.863L309.028 28.0526Z" fill="#818799"/>
<path d="M318.153 28.0526H320.731V38.4497H327.079V40.6076H318.153V28.0526Z" fill="#818799"/>
<path d="M341.757 28.0526H345.526V40.6076H343.146V32.1722C343.146 31.976 343.146 31.5837 343.146 31.1914C343.146 30.799 343.146 30.4067 343.146 30.2105L340.765 40.6076H338.187L335.806 30.2105C335.806 30.4067 335.806 30.799 335.806 31.1914C335.806 31.5837 335.806 31.976 335.806 32.1722V40.6076H333.426V28.0526H337.195L339.575 37.8612L341.757 28.0526Z" fill="#818799"/>
<path d="M356.039 37.6649C356.634 36.8802 357.031 35.8993 357.031 34.33C357.031 32.9568 356.634 31.7798 356.039 30.9951C355.444 30.2104 354.65 29.818 353.46 29.818C352.468 29.818 351.675 30.2104 350.882 30.9951C350.286 31.7798 349.89 32.7606 349.89 34.33C349.89 35.7032 350.286 36.8802 350.882 37.6649C351.477 38.4496 352.27 38.8419 353.46 38.8419C354.65 38.8419 355.444 38.4496 356.039 37.6649ZM357.626 39.4304C356.634 40.4113 355.245 40.8036 353.46 40.8036C351.675 40.8036 350.286 40.4113 349.295 39.4304C348.105 38.2534 347.311 36.4879 347.311 34.33C347.311 31.9759 347.906 30.4066 349.295 29.2295C350.286 28.2487 351.675 27.8563 353.46 27.8563C355.245 27.8563 356.634 28.2487 357.626 29.2295C358.816 30.4066 359.609 32.1721 359.609 34.33C359.609 36.684 359.014 38.2534 357.626 39.4304Z" fill="#818799"/>
<path d="M370.717 28.0526V30.4067H366.948V40.6076H364.37V30.4067H360.601V28.0526H370.717Z" fill="#818799"/>
<path d="M380.04 37.6649C380.635 36.8802 381.032 35.8993 381.032 34.33C381.032 32.9568 380.635 31.7798 380.04 30.9951C379.445 30.2104 378.651 29.818 377.461 29.818C376.47 29.818 375.676 30.2104 374.883 30.9951C374.288 31.7798 373.891 32.7606 373.891 34.33C373.891 35.7032 374.288 36.8802 374.883 37.6649C375.478 38.4496 376.271 38.8419 377.461 38.8419C378.651 38.8419 379.445 38.4496 380.04 37.6649ZM381.825 39.4304C380.833 40.4113 379.445 40.8036 377.66 40.8036C375.875 40.8036 374.486 40.4113 373.494 39.4304C372.304 38.2534 371.511 36.4879 371.511 34.33C371.511 31.9759 372.106 30.4066 373.494 29.2295C374.486 28.2487 375.875 27.8563 377.66 27.8563C379.445 27.8563 380.833 28.2487 381.825 29.2295C383.015 30.4066 383.809 32.1721 383.809 34.33C383.61 36.684 383.015 38.2534 381.825 39.4304Z" fill="#818799"/>
<path d="M388.371 30.2106V33.5455H391.148C391.743 33.5455 392.14 33.5455 392.338 33.3493C392.933 33.1531 393.132 32.5646 393.132 31.9761C393.132 31.1914 392.933 30.7991 392.338 30.4067C392.14 30.2106 391.743 30.2106 391.148 30.2106H388.371ZM393.727 28.445C394.123 28.6412 394.52 28.8374 394.917 29.2297C395.115 29.6221 395.313 29.8182 395.512 30.2106C395.71 30.6029 395.71 30.9953 395.71 31.5838C395.71 32.1723 395.512 32.7608 395.313 33.3493C395.115 33.9378 394.52 34.3302 393.727 34.5263C394.322 34.7225 394.718 35.1149 394.917 35.5072C395.115 35.8995 395.313 36.4881 395.313 37.4689V38.2536C395.313 38.8421 395.313 39.2345 395.313 39.4306C395.313 39.823 395.512 40.0191 395.71 40.2153V40.6077H393.132C393.132 40.4115 392.933 40.0191 392.933 40.0191C392.933 39.6268 392.735 39.2345 392.735 39.0383V37.8613C392.735 37.0766 392.536 36.4881 392.338 36.2919C392.14 36.0957 391.545 35.8995 390.751 35.8995H388.173V40.8038H385.594V28.2489H391.545C392.735 28.0527 393.33 28.2489 393.727 28.445Z" fill="#818799"/>
<path d="M400.272 36.6839C400.272 37.2724 400.471 37.6648 400.669 38.0571C401.066 38.6456 401.859 38.8418 402.851 38.8418C403.446 38.8418 404.041 38.8418 404.438 38.6456C405.231 38.4495 405.628 37.8609 405.628 37.2724C405.628 36.8801 405.43 36.4877 405.033 36.2916C404.636 36.0954 404.041 35.8992 403.248 35.7031L401.859 35.3107C400.471 35.1145 399.677 34.7222 399.082 34.3299C398.289 33.7413 397.892 32.7605 397.892 31.5835C397.892 30.4064 398.289 29.6217 399.082 28.8371C399.876 28.0524 401.066 27.66 402.851 27.66C404.239 27.66 405.43 28.0524 406.223 28.6409C407.215 29.4256 407.612 30.4064 407.81 31.7796H405.231C405.231 30.9949 404.835 30.4064 404.239 30.2103C403.843 30.0141 403.248 29.8179 402.653 29.8179C401.859 29.8179 401.462 30.0141 401.066 30.2103C400.669 30.4064 400.471 30.7988 400.471 31.3873C400.471 31.7796 400.669 32.172 401.066 32.3681C401.264 32.5643 401.859 32.7605 402.653 32.9567L404.835 33.5452C405.826 33.7413 406.62 34.1337 407.016 34.526C407.81 35.1145 408.207 35.8992 408.207 37.0763C408.207 38.2533 407.81 39.2341 406.818 39.8227C406.025 40.6073 404.636 40.9997 403.049 40.9997C401.462 40.9997 400.074 40.6073 399.082 39.8227C398.09 39.038 397.694 38.0571 397.694 36.6839H400.272Z" fill="#818799"/>
<path d="M163.633 2.94263H165.815V5.49286H163.633V2.94263ZM160.459 2.94263H162.641V5.49286H160.459V2.94263ZM165.022 16.2823H161.451C158.674 16.2823 157.087 14.7129 157.087 12.1627V7.06223H159.468V12.1627C159.468 13.3397 159.864 13.9282 161.253 13.9282H165.022C166.212 13.9282 166.807 13.3397 166.807 12.1627V7.06223H169.187V12.1627C169.385 14.7129 167.6 16.2823 165.022 16.2823Z" fill="#818799"/>
<path d="M173.551 1.56946H171.171V16.2823H173.551V1.56946Z" fill="#818799"/>
<path d="M174.543 19.8134V17.6555C176.526 17.6555 176.526 16.0861 176.526 14.7129V7.25842H178.907C178.907 7.25842 178.907 7.45459 178.907 15.6938C178.907 17.8517 177.518 20.0096 174.543 19.8134Z" fill="#818799"/>
<path d="M180.89 12.3589V1.56946H183.27V12.3589C183.27 13.5359 183.865 14.1244 185.452 14.1244V16.2823C182.477 16.2823 180.89 14.9091 180.89 12.3589Z" fill="#818799"/>
<path d="M187.238 17.8516H189.419V20.4018H187.238V17.8516ZM191.403 16.2822C190.213 16.2822 189.221 15.8898 188.428 15.3013C187.634 15.8898 186.642 16.2822 185.452 16.2822H184.857V13.9281H185.651C186.642 13.9281 187.238 13.3396 187.238 12.5549V7.06213H189.816V12.5549C189.816 13.3396 190.411 13.9281 191.601 13.9281H192.395V16.2822H191.403ZM184.064 17.8516H186.246V20.4018H184.064V17.8516Z" fill="#818799"/>
<path d="M191.601 16.2823V14.1244H194.577V7.25842H197.155V14.1244H200.329V7.25842H202.709V14.1244H205.288V7.25842H207.668V14.1244H210.048V16.2823H191.601Z" fill="#818799"/>
<path d="M215.999 16.2824C214.809 16.2824 213.817 15.8901 213.024 15.3016C212.23 15.8901 211.239 16.2824 210.048 16.2824H209.255V14.1245H210.048C211.04 14.1245 211.635 13.536 211.635 12.7513V1.76575H214.214V12.9475C214.214 13.7322 214.809 14.3207 215.999 14.3207H216.793V16.4786H215.999V16.2824Z" fill="#818799"/>
<path d="M216.198 16.2823V14.1244C217.983 14.1244 218.776 13.5359 218.776 12.3589V1.56946H221.355V12.3589C221.156 14.9091 219.371 16.2823 216.198 16.2823Z" fill="#818799"/>
<path d="M231.868 2.94263H234.05V5.49286H231.868V2.94263ZM232.066 9.41629H230.678C229.289 9.41629 229.091 10.9857 229.091 11.9665C229.091 13.1435 229.686 14.1244 230.678 14.1244H232.066V9.41629ZM228.694 2.94263H230.876V5.49286H228.694V2.94263ZM230.479 16.2823C228.694 16.2823 226.512 15.1053 226.512 11.7703C226.512 8.6316 227.901 7.06223 230.479 7.06223H234.645V13.9282H237.62V16.0861H230.479V16.2823Z" fill="#818799"/>
<path d="M239.405 17.8516H241.587V20.4018H239.405V17.8516ZM243.571 16.2822C242.381 16.2822 241.389 15.8898 240.595 15.3013C239.802 15.8898 238.81 16.2822 237.62 16.2822H236.827V13.9281H237.62C238.612 13.9281 239.207 13.3396 239.207 12.5549V7.06213H241.785V12.5549C241.785 13.3396 242.381 13.9281 243.571 13.9281H244.364V16.2822H243.571ZM236.231 17.8516H238.413V20.4018H236.231V17.8516Z" fill="#818799"/>
<path d="M250.315 10.2011C249.323 10.2011 248.728 10.9858 248.728 12.9475C248.728 14.9092 249.323 15.6939 250.315 15.6939C251.307 15.6939 252.1 14.9092 252.1 13.1437C251.902 10.9858 251.307 10.2011 250.315 10.2011ZM253.885 15.8901C253.29 17.2633 251.902 18.0479 250.116 18.0479C248.53 18.0479 247.141 17.2633 246.546 15.8901C245.951 16.0862 245.158 16.2824 244.364 16.2824H243.571V14.1245C244.562 14.1245 245.753 14.1245 245.753 12.9475C245.951 10.0049 247.339 8.23938 250.116 8.23938C252.893 8.23938 254.282 10.3973 254.282 12.9475C254.282 13.7322 254.877 14.1245 256.067 14.1245H256.861V16.2824C256.067 16.2824 254.877 16.2824 253.885 15.8901Z" fill="#818799"/>
<path d="M256.464 16.2823V14.1244C258.249 14.1244 259.043 13.5359 259.043 12.3589V1.56946H261.423V12.3589C261.423 14.9091 259.439 16.2823 256.464 16.2823Z" fill="#818799"/>
<path d="M263.406 12.3589V1.56946H265.787V12.3589C265.787 13.5359 266.382 14.1244 267.969 14.1244V16.2823C264.993 16.2823 263.406 14.9091 263.406 12.3589Z" fill="#818799"/>
<path d="M274.118 9.0241C272.531 9.0241 271.341 10.005 271.341 11.182C272.134 11.7705 273.523 13.1437 274.118 13.536L276.895 11.182C276.895 10.2011 275.903 9.0241 274.118 9.0241ZM276.101 16.2824C275.506 16.2824 274.713 16.2824 274.118 16.0863C273.523 16.2824 272.729 16.2824 272.134 16.2824H267.175V14.1246H271.142L268.564 11.9667C268.564 9.22027 270.547 6.86621 274.118 6.86621C277.49 6.86621 279.672 9.0241 279.672 11.9667L277.093 14.1246H281.06V16.2824H276.101Z" fill="#818799"/>
<path d="M280.465 16.2823V14.1244C282.25 14.1244 283.044 13.5359 283.044 12.3589V1.56946H285.622V12.3589C285.424 14.9091 283.44 16.2823 280.465 16.2823Z" fill="#818799"/>
<path d="M289.788 1.56946H287.408V16.2823H289.788V1.56946Z" fill="#818799"/>
<path d="M308.235 16.2823V9.61248C307.441 9.61248 306.648 10.0048 306.648 11.7704V16.2823H295.143C295.143 15.1053 295.342 12.9474 296.135 11.378C297.127 9.02397 298.912 7.65077 302.483 7.65077V9.80865C300.697 9.80865 299.507 10.0048 298.515 11.7704C298.119 12.3589 297.92 13.5359 297.92 14.1244H304.268C304.268 11.5742 304.268 11.5742 304.268 11.5742C304.268 7.4546 307.838 7.25842 310.814 7.25842V14.1244H313.194V16.2823H308.235Z" fill="#818799"/>
<path d="M312.599 16.2823V14.1244H315.574V7.25842H318.153V14.1244H321.326V7.25842H323.905V14.1244H326.285V7.25842H328.666V14.1244H331.046V16.2823H312.599Z" fill="#818799"/>
<path d="M333.029 17.8516H335.211V20.4018H333.029V17.8516ZM337.195 16.2822C336.005 16.2822 335.013 15.8898 334.22 15.3013C333.426 15.8898 332.434 16.2822 331.244 16.2822H330.451V13.9281H331.244C332.236 13.9281 332.831 13.3396 332.831 12.5549V7.06213H335.41V12.5549C335.41 13.3396 336.005 13.9281 337.195 13.9281H337.988V16.2822H337.195ZM329.856 17.8516H332.038V20.4018H329.856V17.8516Z" fill="#818799"/>
<path d="M344.137 9.0241C342.551 9.0241 341.36 10.005 341.36 11.182C342.154 11.7705 343.542 13.1437 344.137 13.536L346.914 11.182C346.914 10.2011 345.724 9.0241 344.137 9.0241ZM346.121 16.2824C345.526 16.2824 344.733 16.2824 344.137 16.0863C343.542 16.2824 342.749 16.2824 342.154 16.2824H337.195V14.1246H341.162L338.583 11.9667C338.583 9.22027 340.567 6.86621 344.137 6.86621C347.51 6.86621 349.691 9.0241 349.691 11.9667L347.113 14.1246H351.08V16.2824H346.121Z" fill="#818799"/>
<path d="M350.485 16.2823V14.1244C352.27 14.1244 353.064 13.5359 353.064 12.3589V1.56946H355.444V12.3589C355.444 14.9091 353.46 16.2823 350.485 16.2823Z" fill="#818799"/>
<path d="M360.006 1.56946H357.427V16.2823H360.006V1.56946Z" fill="#818799"/>
<path d="M370.519 2.94263H372.701V5.49286H370.519V2.94263ZM370.717 9.41629H369.329C367.94 9.41629 367.742 10.9857 367.742 11.9665C367.742 13.1435 368.337 14.1244 369.329 14.1244H370.717V9.41629ZM367.345 2.94263H369.527V5.49286H367.345V2.94263ZM369.13 16.2823C367.345 16.2823 365.163 15.1053 365.163 11.7703C365.163 8.6316 366.552 7.06223 369.13 7.06223H373.296V13.9282H376.271V16.0861H369.13V16.2823Z" fill="#818799"/>
<path d="M375.478 16.2823V14.1244H383.412V11.7703C383.412 10.5933 383.015 10.2009 382.024 10.2009H376.073V7.06221C376.073 5.1005 377.66 3.72729 380.238 3.72729H384.205V6.08135H380.238C379.048 6.08135 378.651 6.66986 378.651 7.25838V8.04307H382.42C384.999 8.04307 386.189 9.41627 386.189 11.9665V16.6746H375.478V16.2823Z" fill="#818799"/>
<path d="M393.33 16.2823C392.933 16.2823 391.743 16.2823 391.148 15.6938C391.148 17.8517 389.759 19.8134 386.784 19.8134V17.6555C388.768 17.6555 388.768 16.0861 388.768 14.7129V7.25842H391.148C391.148 7.25842 391.148 10.5933 391.148 12.3589C391.148 13.5359 392.14 14.1244 393.33 14.1244H393.727V16.2823H393.33Z" fill="#818799"/>
<path d="M403.446 2.94257H405.43V5.4928H403.446V2.94257ZM401.859 0H403.843V2.15789H401.859V0ZM400.471 2.94257H402.454V5.4928H400.471V2.94257ZM405.628 16.2822H392.933V14.1243H396.107V7.25834H398.487V14.1243H401.661V7.25834H404.239V14.1243H405.628C406.421 14.1243 406.62 14.1243 406.62 12.3588V7.25834H409V13.1435C409 15.1052 407.81 16.2822 405.628 16.2822Z" fill="#818799"/>
</svg>
