<svg width="108" height="55" viewBox="0 0 108 55" fill="none" xmlns="http://www.w3.org/2000/svg">
<path d="M99.3611 31.3194V31.2355C99.3611 31.0675 97.3179 15.1979 96.8923 11.5034C95.9558 15.1139 91.529 30.5637 91.2736 31.2355V31.3194H85.3995V31.2355C85.2293 30.5637 80.7173 15.03 79.866 11.5034C79.4403 15.1139 77.312 31.0675 77.312 31.2355V31.3194H69.1394L73.9919 0.0839663H82.6753V0.167933C82.9307 0.92363 87.613 16.8772 88.3791 19.984C89.1453 16.9612 93.8276 0.92363 93.9978 0.167933V0.0839663H102.681L107.534 31.3194H99.3611ZM13.2931 31.3194L11.5905 25.1899H22.4022L16.6132 5.62574L10.654 25.6937L8.9514 31.3194H0.0977173L10.9946 0H22.0617L32.9585 31.3194H13.2931ZM50.1551 31.3194C47.4309 31.3194 45.1323 30.9836 43.2594 30.3958C41.3865 29.7241 39.8541 28.8005 38.7474 27.541C37.7259 26.3654 37.0448 24.938 36.6192 23.3426C36.1935 21.7473 36.0232 19.1443 36.0232 15.7857V0.0839663H44.7918V14.4422C44.7918 16.6253 44.8769 18.2207 44.962 19.2283C45.0472 20.1519 45.3026 20.9916 45.558 21.6633C45.8985 22.419 46.4093 23.0068 47.2606 23.4266C48.0268 23.8464 49.0484 24.0144 50.1551 24.0144C51.3469 24.0144 52.2834 23.7625 53.0495 23.4266C53.8157 23.0068 54.4117 22.419 54.7522 21.6633C55.0076 21.0756 55.1778 20.2359 55.3481 19.2283C55.4332 18.3047 55.5184 16.6253 55.5184 14.4422V0.0839663H64.2869V15.7857C64.2869 19.2283 64.1166 21.7473 63.691 23.3426C63.2653 24.938 62.5843 26.3654 61.5627 27.541C60.456 28.8005 59.0088 29.8081 57.0507 30.3958C55.0927 31.0675 52.7941 31.3194 50.1551 31.3194Z" fill="#007BFF"/>
<path d="M2.19537 52.6711H3.54635L2.87086 50.5891L2.19537 52.6711ZM2.2798 49.3398H3.54635L5.48838 54.6698H4.22184L3.88409 53.5872H1.85762L1.51988 54.6698H0.337769L2.2798 49.3398Z" fill="#818799"/>
<path d="M6.07941 49.3398H7.26151V53.7537H9.87904V54.6698H6.07941V49.3398Z" fill="#818799"/>
<path d="M11.6522 49.3398H10.5545V54.6698H11.6522V49.3398Z" fill="#818799"/>
<path d="M13.5098 53.0042C13.5098 53.2541 13.5942 53.4206 13.6787 53.5872C13.8476 53.8371 14.1853 53.9203 14.6075 53.9203C14.8608 53.9203 15.1141 53.9203 15.283 53.837C15.6207 53.7538 15.7896 53.5039 15.7896 53.2541C15.7896 53.0875 15.7051 52.921 15.5363 52.8377C15.3674 52.7544 15.1141 52.6711 14.7763 52.5878L14.1853 52.4213C13.5942 52.338 13.2565 52.1714 13.0032 52.0049C12.6654 51.755 12.4966 51.3386 12.4966 50.839C12.4966 50.3393 12.6654 50.0061 13.0032 49.673C13.3409 49.3399 13.8476 49.1733 14.523 49.1733C15.1141 49.1733 15.6207 49.3399 15.9585 49.5897C16.3806 49.9229 16.5495 50.3393 16.6339 50.9222H15.5363C15.5363 50.5891 15.3674 50.3393 15.1141 50.256C14.9452 50.1727 14.6919 50.0894 14.4386 50.0894C14.1009 50.0894 13.932 50.1727 13.7631 50.256C13.5942 50.3393 13.5098 50.5058 13.5098 50.7557C13.5098 50.9222 13.5942 51.0888 13.7631 51.1721C13.8475 51.2554 14.1009 51.3386 14.4386 51.4219L15.3674 51.6718C15.7896 51.755 16.1273 51.9216 16.2962 52.0882C16.6339 52.338 16.8028 52.6711 16.8028 53.1708C16.8028 53.6705 16.6339 54.0869 16.2118 54.3367C15.7896 54.6699 15.283 54.8364 14.6075 54.8364C13.932 54.8364 13.3409 54.6699 12.9188 54.3367C12.4966 54.0036 12.3277 53.5872 12.3277 53.0042H13.5098Z" fill="#818799"/>
<path d="M18.4915 53.0042C18.4915 53.2541 18.576 53.4206 18.6604 53.5872C18.8293 53.8371 19.167 53.9203 19.5892 53.9203C19.8425 53.9203 20.0958 53.9203 20.2647 53.837C20.6024 53.7538 20.7713 53.5039 20.7713 53.2541C20.7713 53.0875 20.6869 52.921 20.518 52.8377C20.3491 52.7544 20.0958 52.6711 19.7581 52.5878L19.167 52.4213C18.576 52.338 18.2382 52.1714 17.9849 52.0049C17.6472 51.755 17.4783 51.3386 17.4783 50.839C17.4783 50.3393 17.6472 50.0061 17.9849 49.673C18.3227 49.3399 18.8293 49.1733 19.5892 49.1733C20.1803 49.1733 20.6869 49.3399 21.0246 49.5897C21.4468 49.9229 21.6157 50.3393 21.7001 50.9222H20.6024C20.6024 50.5891 20.4336 50.3393 20.1803 50.256C20.0114 50.1727 19.7581 50.0894 19.5048 50.0894C19.167 50.0894 18.9981 50.1727 18.8293 50.256C18.6604 50.3393 18.576 50.5058 18.576 50.7557C18.576 50.9222 18.6604 51.0888 18.8293 51.1721C18.9137 51.2554 19.167 51.3386 19.5048 51.4219L20.4336 51.6718C20.8557 51.755 21.1935 51.9216 21.3624 52.0882C21.7001 52.338 21.869 52.6711 21.869 53.1708C21.869 53.6705 21.7001 54.0869 21.2779 54.3367C20.8557 54.6699 20.3491 54.8364 19.6736 54.8364C18.9981 54.8364 18.4071 54.6699 17.9849 54.3367C17.5627 54.0036 17.3939 53.5872 17.3939 53.0042H18.4915Z" fill="#818799"/>
<path d="M24.1488 52.6711H25.4998L24.8243 50.5891L24.1488 52.6711ZM24.2332 49.3398H25.4998L27.4418 54.6698H26.1752L25.8375 53.5872H23.8955L23.5577 54.6698H22.3756L24.2332 49.3398Z" fill="#818799"/>
<path d="M29.8904 49.3398H31.0725V52.5878C31.0725 52.9209 31.157 53.254 31.2414 53.4206C31.4103 53.7537 31.6636 53.837 32.1702 53.837C32.5924 53.837 32.9301 53.6704 33.0146 53.4206C33.099 53.254 33.1835 53.0042 33.1835 52.5878V49.3398H34.3656V52.5878C34.3656 53.1707 34.2811 53.5872 34.1123 53.9203C33.7745 54.5032 33.1835 54.7531 32.2547 54.7531C31.3259 54.7531 30.7348 54.5032 30.3971 53.9203C30.2282 53.5872 30.1438 53.1707 30.1438 52.5878V49.3398H29.8904Z" fill="#818799"/>
<path d="M35.2943 49.3398H36.4764L38.5873 53.0875V49.3398H39.685V54.6698H38.5029L36.3075 50.9222V54.6698H35.2943V49.3398Z" fill="#818799"/>
<path d="M41.7115 49.3398H40.6138V54.6698H41.7115V49.3398Z" fill="#818799"/>
<path d="M45.9333 49.3398H47.1154L45.2578 54.6698H44.1601L42.387 49.3398H43.5691L44.7512 53.4206L45.9333 49.3398Z" fill="#818799"/>
<path d="M51.7594 50.3392H48.8886V51.4219H51.5061V52.3379H48.8886V53.7537H51.8438V54.6698H47.7909V49.3398H51.7594V50.3392Z" fill="#818799"/>
<path d="M53.8703 50.256V51.6717H55.0524C55.3057 51.6717 55.4746 51.6717 55.5591 51.5885C55.8124 51.5052 55.8968 51.2553 55.8968 51.0055C55.8968 50.6724 55.8124 50.5058 55.5591 50.3393C55.4746 50.256 55.3057 50.256 55.0524 50.256H53.8703ZM56.1501 49.5064C56.319 49.5897 56.4878 49.673 56.6567 49.8396C56.7412 50.0061 56.8256 50.0894 56.91 50.256C56.9945 50.4225 56.9945 50.5891 56.9945 50.8389C56.9945 51.0888 56.91 51.3386 56.8256 51.5885C56.6567 51.8383 56.4879 52.0049 56.1501 52.0881C56.4034 52.1714 56.5723 52.338 56.6567 52.5045C56.7412 52.6711 56.8256 52.921 56.8256 53.3374V53.6705C56.8256 53.9203 56.8256 54.0869 56.8256 54.1702C56.8256 54.3367 56.91 54.42 56.9945 54.5033V54.6698H55.7279C55.7279 54.5866 55.6435 54.42 55.6435 54.42C55.6435 54.2534 55.5591 54.0869 55.5591 54.0036V53.5039C55.5591 53.1708 55.4746 52.921 55.3902 52.8377C55.3057 52.7544 55.0524 52.6711 54.7147 52.6711H53.617V54.7531H52.5193V49.4232H55.0524C55.7279 49.3399 55.9812 49.4232 56.1501 49.5064Z" fill="#818799"/>
<path d="M58.9365 53.0042C58.9365 53.2541 59.0209 53.4206 59.1053 53.5872C59.2742 53.8371 59.612 53.9203 60.0341 53.9203C60.2875 53.9203 60.5408 53.9203 60.7096 53.837C61.0474 53.7538 61.2163 53.5039 61.2163 53.2541C61.2163 53.0875 61.1318 52.921 60.9629 52.8377C60.7941 52.7544 60.5408 52.6711 60.203 52.5878L59.612 52.4213C59.0209 52.338 58.6832 52.1714 58.4299 52.0049C58.0921 51.755 57.9232 51.3386 57.9232 50.839C57.9232 50.3393 58.0921 50.0061 58.4299 49.673C58.7676 49.3399 59.2742 49.1733 60.0341 49.1733C60.6252 49.1733 61.1318 49.3399 61.4696 49.5897C61.8917 49.9229 62.0606 50.3393 62.1451 50.9222H61.0474C61.0474 50.5891 60.8785 50.3393 60.6252 50.256C60.4563 50.1727 60.203 50.0894 59.9497 50.0894C59.612 50.0894 59.4431 50.1727 59.2742 50.256C59.1053 50.3393 59.0209 50.5058 59.0209 50.7557C59.0209 50.9222 59.1053 51.0888 59.2742 51.1721C59.3587 51.2554 59.612 51.3386 59.9497 51.4219L60.8785 51.6718C61.3007 51.755 61.6384 51.9216 61.8073 52.0882C62.1451 52.338 62.3139 52.6711 62.3139 53.1708C62.3139 53.6705 62.1451 54.0869 61.7229 54.3367C61.3007 54.6699 60.7941 54.8364 60.1186 54.8364C59.4431 54.8364 58.852 54.6699 58.4299 54.3367C58.0077 54.0036 57.8388 53.5872 57.8388 53.0042H58.9365Z" fill="#818799"/>
<path d="M64.5938 52.6711H65.9447L65.2692 50.5891L64.5938 52.6711ZM64.6782 49.3398H65.9447L67.8868 54.6698H66.7047L66.3669 53.5872H64.4249L64.0871 54.6698H62.905L64.6782 49.3398Z" fill="#818799"/>
<path d="M68.5622 49.3398H69.6599V53.7537H72.3618V54.6698H68.5622V49.3398Z" fill="#818799"/>
<path d="M78.6101 49.3398H80.2144V54.6698H79.2012V51.0887C79.2012 51.0055 79.2012 50.8389 79.2012 50.6723C79.2012 50.5058 79.2012 50.3392 79.2012 50.2559L78.1879 54.6698H77.0903L76.077 50.2559C76.077 50.3392 76.077 50.5058 76.077 50.6723C76.077 50.8389 76.077 51.0055 76.077 51.0887V54.6698H75.0638V49.3398H76.6681L77.6813 53.5039L78.6101 49.3398Z" fill="#818799"/>
<path d="M84.6896 53.4206C84.9429 53.0875 85.1117 52.6711 85.1117 52.0048C85.1117 51.4219 84.9429 50.9222 84.6896 50.5891C84.4363 50.256 84.0985 50.0894 83.5919 50.0894C83.1697 50.0894 82.832 50.256 82.4942 50.5891C82.2409 50.9222 82.072 51.3386 82.072 52.0048C82.072 52.5878 82.2409 53.0875 82.4942 53.4206C82.7475 53.7537 83.0853 53.9203 83.5919 53.9203C84.0985 53.9203 84.4363 53.7537 84.6896 53.4206ZM85.365 54.1701C84.9429 54.5865 84.3518 54.7531 83.5919 54.7531C82.832 54.7531 82.2409 54.5865 81.8187 54.1701C81.3121 53.6705 80.9744 52.9209 80.9744 52.0048C80.9744 51.0055 81.2277 50.3392 81.8187 49.8396C82.2409 49.4232 82.832 49.2566 83.5919 49.2566C84.3518 49.2566 84.9429 49.4232 85.365 49.8396C85.8717 50.3392 86.2094 51.0888 86.2094 52.0048C86.2094 53.0042 85.9561 53.6705 85.365 54.1701Z" fill="#818799"/>
<path d="M90.9378 49.3398V50.3392H89.3336V54.6698H88.2359V50.3392H86.6316V49.3398H90.9378Z" fill="#818799"/>
<path d="M94.9063 53.4206C95.1596 53.0875 95.3285 52.6711 95.3285 52.0048C95.3285 51.4219 95.1596 50.9222 94.9063 50.5891C94.653 50.256 94.3153 50.0894 93.8087 50.0894C93.3865 50.0894 93.0487 50.256 92.711 50.5891C92.4577 50.9222 92.2888 51.3386 92.2888 52.0048C92.2888 52.5878 92.4577 53.0875 92.711 53.4206C92.9643 53.7537 93.302 53.9203 93.8087 53.9203C94.3153 53.9203 94.653 53.7537 94.9063 53.4206ZM95.6663 54.1701C95.2441 54.5865 94.653 54.7531 93.8931 54.7531C93.1332 54.7531 92.5421 54.5865 92.1199 54.1701C91.6133 53.6705 91.2756 52.9209 91.2756 52.0048C91.2756 51.0055 91.5289 50.3392 92.1199 49.8396C92.5421 49.4232 93.1332 49.2566 93.8931 49.2566C94.653 49.2566 95.2441 49.4232 95.6663 49.8396C96.1729 50.3392 96.5106 51.0888 96.5106 52.0048C96.4262 53.0042 96.1729 53.6705 95.6663 54.1701Z" fill="#818799"/>
<path d="M98.4527 50.256V51.6717H99.6348C99.8881 51.6717 100.057 51.6717 100.141 51.5885C100.395 51.5052 100.479 51.2553 100.479 51.0055C100.479 50.6724 100.395 50.5058 100.141 50.3393C100.057 50.256 99.8881 50.256 99.6348 50.256H98.4527ZM100.732 49.5064C100.901 49.5897 101.07 49.673 101.239 49.8396C101.324 50.0061 101.408 50.0894 101.492 50.256C101.577 50.4225 101.577 50.5891 101.577 50.8389C101.577 51.0888 101.492 51.3386 101.408 51.5885C101.324 51.8383 101.07 52.0049 100.732 52.0881C100.986 52.1714 101.155 52.338 101.239 52.5045C101.324 52.6711 101.408 52.921 101.408 53.3374V53.6705C101.408 53.9203 101.408 54.0869 101.408 54.1702C101.408 54.3367 101.492 54.42 101.577 54.5033V54.6698H100.479C100.479 54.5866 100.395 54.42 100.395 54.42C100.395 54.2534 100.31 54.0869 100.31 54.0036V53.5039C100.31 53.1708 100.226 52.921 100.141 52.8377C100.057 52.7544 99.8037 52.6711 99.4659 52.6711H98.3682V54.7531H97.2706V49.4232H99.8037C100.31 49.3399 100.564 49.4232 100.732 49.5064Z" fill="#818799"/>
<path d="M103.519 53.004C103.519 53.2538 103.603 53.4204 103.688 53.587C103.857 53.8368 104.194 53.9201 104.617 53.9201C104.87 53.9201 105.123 53.9201 105.292 53.8368C105.63 53.7535 105.799 53.5037 105.799 53.2538C105.799 53.0873 105.714 52.9207 105.545 52.8374C105.376 52.7542 105.123 52.6709 104.785 52.5876L104.194 52.421C103.603 52.3378 103.266 52.1712 103.012 52.0046C102.675 51.7548 102.506 51.3384 102.506 50.8387C102.506 50.339 102.675 50.0059 103.012 49.6728C103.35 49.3397 103.857 49.1731 104.617 49.1731C105.208 49.1731 105.714 49.3397 106.052 49.5895C106.474 49.9226 106.643 50.339 106.727 50.922H105.63C105.63 50.5889 105.461 50.339 105.208 50.2557C105.039 50.1725 104.785 50.0892 104.532 50.0892C104.194 50.0892 104.025 50.1725 103.857 50.2557C103.688 50.339 103.603 50.5056 103.603 50.7554C103.603 50.922 103.688 51.0885 103.857 51.1718C103.941 51.2551 104.194 51.3384 104.532 51.4217L105.461 51.6715C105.883 51.7548 106.221 51.9214 106.39 52.0879C106.727 52.3378 106.896 52.6709 106.896 53.1706C106.896 53.6702 106.727 54.0866 106.305 54.3365C105.968 54.6696 105.376 54.8362 104.701 54.8362C104.025 54.8362 103.434 54.6696 103.012 54.3365C102.59 54.0034 102.421 53.587 102.421 53.004H103.519Z" fill="#818799"/>
<path d="M2.7864 38.6799H3.71519V39.7626H2.7864V38.6799ZM1.43542 38.6799H2.36421V39.7626H1.43542V38.6799ZM3.37745 44.343H1.8576C0.67549 44.343 0 43.6768 0 42.5941V40.4288H1.01323V42.5941C1.01323 43.0938 1.18211 43.3436 1.77316 43.3436H3.37745C3.88407 43.3436 4.13738 43.0938 4.13738 42.5941V40.4288H5.15061V42.5941C5.23505 43.6768 4.47512 44.343 3.37745 44.343Z" fill="#818799"/>
<path d="M7.00823 38.0969H5.995V44.343H7.00823V38.0969Z" fill="#818799"/>
<path d="M7.43042 45.8419V44.9258C8.27478 44.9258 8.27478 44.2596 8.27478 43.6766V40.512H9.28802C9.28802 40.512 9.28802 40.5952 9.28802 44.093C9.28802 45.0091 8.69696 45.9252 7.43042 45.8419Z" fill="#818799"/>
<path d="M10.1324 42.6774V38.0969H11.1456V42.6774C11.1456 43.177 11.3989 43.4269 12.0744 43.4269V44.343C10.8079 44.343 10.1324 43.76 10.1324 42.6774Z" fill="#818799"/>
<path d="M12.8343 45.0091H13.7631V46.0918H12.8343V45.0091ZM14.6075 44.3429C14.1009 44.3429 13.6787 44.1763 13.3409 43.9265C13.0032 44.1763 12.581 44.3429 12.0744 44.3429H11.8211V43.3435H12.1588C12.581 43.3435 12.8343 43.0937 12.8343 42.7606V40.4287H13.932V42.7606C13.932 43.0937 14.1853 43.3435 14.6919 43.3435H15.0297V44.3429H14.6075ZM11.4833 45.0091H12.4121V46.0918H11.4833V45.0091Z" fill="#818799"/>
<path d="M14.6919 44.3429V43.4268H15.9584V40.512H17.0561V43.4268H18.4071V40.512H19.4203V43.4268H20.518V40.512H21.5312V43.4268H22.5445V44.3429H14.6919Z" fill="#818799"/>
<path d="M25.0776 44.3429C24.5709 44.3429 24.1488 44.1764 23.811 43.9265C23.4733 44.1764 23.0511 44.3429 22.5445 44.3429H22.2067V43.4269H22.5445C22.9667 43.4269 23.22 43.177 23.22 42.8439V38.1802H24.3176V42.9272C24.3176 43.2603 24.5709 43.5101 25.0776 43.5101H25.4153V44.4262H25.0776V44.3429Z" fill="#818799"/>
<path d="M25.162 44.343V43.4269C25.9219 43.4269 26.2597 43.177 26.2597 42.6774V38.0969H27.3573V42.6774C27.2729 43.76 26.513 44.343 25.162 44.343Z" fill="#818799"/>
<path d="M31.8325 38.6799H32.7613V39.7626H31.8325V38.6799ZM31.9169 41.4282H31.3258C30.7348 41.4282 30.6503 42.0944 30.6503 42.5108C30.6503 43.0105 30.9037 43.4269 31.3258 43.4269H31.9169V41.4282ZM30.4815 38.6799H31.4103V39.7626H30.4815V38.6799ZM31.2414 44.343C30.4815 44.343 29.5527 43.8433 29.5527 42.4276C29.5527 41.0951 30.1437 40.4288 31.2414 40.4288H33.0146V43.3436H34.2811V44.2597H31.2414V44.343Z" fill="#818799"/>
<path d="M35.041 45.0091H35.9698V46.0918H35.041V45.0091ZM36.8142 44.3429C36.3076 44.3429 35.8854 44.1763 35.5477 43.9265C35.2099 44.1763 34.7877 44.3429 34.2811 44.3429H33.9434V43.3435H34.2811C34.7033 43.3435 34.9566 43.0937 34.9566 42.7606V40.4287H36.0543V42.7606C36.0543 43.0937 36.3076 43.3435 36.8142 43.3435H37.1519V44.3429H36.8142ZM33.6901 45.0091H34.6189V46.0918H33.6901V45.0091Z" fill="#818799"/>
<path d="M39.685 41.7613C39.2629 41.7613 39.0096 42.0944 39.0096 42.9272C39.0096 43.76 39.2629 44.0931 39.685 44.0931C40.1072 44.0931 40.445 43.76 40.445 43.0105C40.3605 42.0944 40.1072 41.7613 39.685 41.7613ZM41.2049 44.1764C40.9516 44.7594 40.3605 45.0925 39.6006 45.0925C38.9251 45.0925 38.3341 44.7594 38.0808 44.1764C37.8274 44.2597 37.4897 44.343 37.152 44.343H36.8142V43.4269C37.2364 43.4269 37.743 43.4269 37.743 42.9272C37.8274 41.678 38.4185 40.9285 39.6006 40.9285C40.7827 40.9285 41.3738 41.8446 41.3738 42.9272C41.3738 43.2603 41.6271 43.4269 42.1337 43.4269H42.4714V44.343C42.1337 44.343 41.6271 44.343 41.2049 44.1764Z" fill="#818799"/>
<path d="M42.3026 44.343V43.4269C43.0625 43.4269 43.4002 43.177 43.4002 42.6774V38.0969H44.4135V42.6774C44.4135 43.76 43.5691 44.343 42.3026 44.343Z" fill="#818799"/>
<path d="M45.2578 42.6774V38.0969H46.271V42.6774C46.271 43.177 46.5244 43.4269 47.1998 43.4269V44.343C45.9333 44.343 45.2578 43.76 45.2578 42.6774Z" fill="#818799"/>
<path d="M49.8174 41.2615C49.1419 41.2615 48.6353 41.6779 48.6353 42.1776C48.973 42.4275 49.5641 43.0104 49.8174 43.177L50.9995 42.1776C50.9995 41.7612 50.5773 41.2615 49.8174 41.2615ZM50.6618 44.3429C50.4084 44.3429 50.0707 44.3429 49.8174 44.2596C49.5641 44.3429 49.2263 44.3429 48.973 44.3429H46.8621V43.4268H48.5508L47.4532 42.5108C47.4532 41.3448 48.2975 40.3455 49.8174 40.3455C51.2528 40.3455 52.1816 41.2615 52.1816 42.5108L51.0839 43.4268H52.7727V44.3429H50.6618Z" fill="#818799"/>
<path d="M52.5193 44.343V43.4269C53.2793 43.4269 53.617 43.177 53.617 42.6774V38.0969H54.7147V42.6774C54.6303 43.76 53.7859 44.343 52.5193 44.343Z" fill="#818799"/>
<path d="M56.4878 38.0969H55.4746V44.343H56.4878V38.0969Z" fill="#818799"/>
<path d="M64.3404 44.3429V41.5113C64.0027 41.5113 63.6649 41.6779 63.6649 42.4274V44.3429H58.7676C58.7676 43.8432 58.8521 42.9271 59.1898 42.2609C59.612 41.2615 60.3719 40.6785 61.8918 40.6785V41.5946C61.1319 41.5946 60.6252 41.6779 60.2031 42.4274C60.0342 42.6773 59.9497 43.1769 59.9497 43.4268H62.6517C62.6517 42.3441 62.6517 42.3441 62.6517 42.3441C62.6517 40.5952 64.1716 40.512 65.4381 40.512V43.4268H66.4513V44.3429H64.3404Z" fill="#818799"/>
<path d="M66.198 44.3429V43.4268H67.4645V40.512H68.5622V43.4268H69.9132V40.512H71.0109V43.4268H72.0241V40.512H73.0373V43.4268H74.0506V44.3429H66.198Z" fill="#818799"/>
<path d="M74.895 45.0091H75.8238V46.0918H74.895V45.0091ZM76.6682 44.3429C76.1615 44.3429 75.7394 44.1763 75.4016 43.9265C75.0639 44.1763 74.6417 44.3429 74.1351 44.3429H73.7973V43.3435H74.1351C74.5572 43.3435 74.8106 43.0937 74.8106 42.7606V40.4287H75.9082V42.7606C75.9082 43.0937 76.1615 43.3435 76.6682 43.3435H77.0059V44.3429H76.6682ZM73.544 45.0091H74.4728V46.0918H73.544V45.0091Z" fill="#818799"/>
<path d="M79.6235 41.2615C78.948 41.2615 78.4414 41.6779 78.4414 42.1776C78.7791 42.4275 79.3702 43.0104 79.6235 43.177L80.8056 42.1776C80.8056 41.7612 80.299 41.2615 79.6235 41.2615ZM80.4678 44.3429C80.2145 44.3429 79.8768 44.3429 79.6235 44.2596C79.3702 44.3429 79.0324 44.3429 78.7791 44.3429H76.6682V43.4268H78.3569L77.2593 42.5108C77.2593 41.3448 78.1036 40.3455 79.6235 40.3455C81.0589 40.3455 81.9877 41.2615 81.9877 42.5108L80.89 43.4268H82.5788V44.3429H80.4678Z" fill="#818799"/>
<path d="M82.3254 44.343V43.4269C83.0853 43.4269 83.4231 43.177 83.4231 42.6774V38.0969H84.4363V42.6774C84.4363 43.76 83.5919 44.343 82.3254 44.343Z" fill="#818799"/>
<path d="M86.3783 38.0969H85.2806V44.343H86.3783V38.0969Z" fill="#818799"/>
<path d="M90.8534 38.6799H91.7822V39.7626H90.8534V38.6799ZM90.9378 41.4282H90.3468C89.7557 41.4282 89.6713 42.0944 89.6713 42.5108C89.6713 43.0105 89.9246 43.4269 90.3468 43.4269H90.9378V41.4282ZM89.5024 38.6799H90.4312V39.7626H89.5024V38.6799ZM90.2623 44.343C89.5024 44.343 88.5736 43.8433 88.5736 42.4276C88.5736 41.0951 89.1647 40.4288 90.2623 40.4288H92.0355V43.3436H93.302V44.2597H90.2623V44.343Z" fill="#818799"/>
<path d="M92.9643 44.3429V43.4268H96.3417V42.4274C96.3417 41.9278 96.1729 41.7612 95.7507 41.7612H93.2176V40.4287C93.2176 39.5959 93.8931 39.0129 94.9908 39.0129H96.6795V40.0123H94.9908C94.4841 40.0123 94.3153 40.2621 94.3153 40.512V40.8451H95.9196C97.0172 40.8451 97.5239 41.4281 97.5239 42.5107V44.5095H92.9643V44.3429Z" fill="#818799"/>
<path d="M100.564 44.3429C100.395 44.3429 99.8881 44.3429 99.6348 44.093C99.6348 45.0091 99.0437 45.8419 97.7772 45.8419V44.9258C98.6215 44.9258 98.6215 44.2596 98.6215 43.6766V40.512H99.6348C99.6348 40.512 99.6348 41.9277 99.6348 42.6773C99.6348 43.1769 100.057 43.4268 100.564 43.4268H100.732V44.3429H100.564Z" fill="#818799"/>
<path d="M104.87 38.6799H105.714V39.7625H104.87V38.6799ZM104.194 37.4307H105.039V38.3468H104.194V37.4307ZM103.603 38.6799H104.448V39.7625H103.603V38.6799ZM105.799 44.343H100.395V43.4269H101.746V40.512H102.759V43.4269H104.11V40.512H105.208V43.4269H105.799C106.136 43.4269 106.221 43.4269 106.221 42.6773V40.512H107.234V43.0105C107.234 43.8433 106.727 44.343 105.799 44.343Z" fill="#818799"/>
</svg>
