<svg width="127" height="65" viewBox="0 0 127 65" fill="none" xmlns="http://www.w3.org/2000/svg">
<g clip-path="url(#clip0_3_20)">
<path d="M116.8 37.3V37.2C116.8 37 114.4 18.1 113.9 13.7C112.8 18 107.6 36.4 107.3 37.2V37.3H100.4V37.2C100.2 36.4 94.9 17.9 93.9 13.7C93.4 18 90.9 37 90.9 37.2V37.3H81.3L87 0.1H97.2V0.2C97.5 1.1 103 20.1 103.9 23.8C104.8 20.2 110.3 1.1 110.5 0.2V0.1H120.7L126.4 37.3H116.8ZM15.7 37.3L13.7 30H26.4L19.6 6.7L12.6 30.6L10.6 37.3H0.200012L13 0H26L38.8 37.3H15.7ZM59 37.3C55.8 37.3 53.1 36.9 50.9 36.2C48.7 35.4 46.9 34.3 45.6 32.8C44.4 31.4 43.6 29.7 43.1 27.8C42.6 25.9 42.4 22.8 42.4 18.8V0.1H52.7V17.2C52.7 19.8 52.8 21.7 52.9 22.9C53 24 53.3 25 53.6 25.8C54 26.7 54.6 27.4 55.6 27.9C56.5 28.4 57.7 28.6 59 28.6C60.4 28.6 61.5 28.3 62.4 27.9C63.3 27.4 64 26.7 64.4 25.8C64.7 25.1 64.9 24.1 65.1 22.9C65.2 21.8 65.3 19.8 65.3 17.2V0.1H75.6V18.8C75.6 22.9 75.4 25.9 74.9 27.8C74.4 29.7 73.6 31.4 72.4 32.8C71.1 34.3 69.4 35.5 67.1 36.2C64.8 37 62.1 37.3 59 37.3Z" fill="#818799"/>
<path d="M2.59999 62.4H4.19999L3.39999 59.9L2.59999 62.4ZM2.69999 58.4H4.19999L6.49999 64.8H4.99999L4.59999 63.5H2.19999L1.79999 64.8H0.399994L2.69999 58.4Z" fill="#818799"/>
<path d="M7.20001 58.4H8.60001V63.7H11.7V64.8H7.20001V58.4Z" fill="#818799"/>
<path d="M13.8 58.4H12.5V64.8H13.8V58.4Z" fill="#818799"/>
<path d="M16 62.8C16 63.1 16.1 63.3 16.2 63.5C16.4 63.8 16.8 63.9 17.3 63.9C17.6 63.9 17.9 63.9 18.1 63.8C18.5 63.7 18.7 63.4 18.7 63.1C18.7 62.9 18.6 62.7 18.4 62.6C18.2 62.5 17.9 62.4 17.5 62.3L16.8 62.1C16.1 62 15.7 61.8 15.4 61.6C15 61.3 14.8 60.8 14.8 60.2C14.8 59.6 15 59.2 15.4 58.8C15.8 58.4 16.4 58.2 17.2 58.2C17.9 58.2 18.5 58.4 18.9 58.7C19.4 59.1 19.6 59.6 19.7 60.3H18.4C18.4 59.9 18.2 59.6 17.9 59.5C17.7 59.4 17.4 59.3 17.1 59.3C16.7 59.3 16.5 59.4 16.3 59.5C16.1 59.6 16 59.8 16 60.1C16 60.3 16.1 60.5 16.3 60.6C16.4 60.7 16.7 60.8 17.1 60.9L18.2 61.2C18.7 61.3 19.1 61.5 19.3 61.7C19.7 62 19.9 62.4 19.9 63C19.9 63.6 19.7 64.1 19.2 64.4C18.7 64.8 18.1 65 17.3 65C16.5 65 15.8 64.8 15.3 64.4C14.8 64 14.6 63.5 14.6 62.8H16Z" fill="#818799"/>
<path d="M21.9 62.8C21.9 63.1 22 63.3 22.1 63.5C22.3 63.8 22.7 63.9 23.2 63.9C23.5 63.9 23.8 63.9 24 63.8C24.4 63.7 24.6 63.4 24.6 63.1C24.6 62.9 24.5 62.7 24.3 62.6C24.1 62.5 23.8 62.4 23.4 62.3L22.7 62.1C22 62 21.6 61.8 21.3 61.6C20.9 61.3 20.7 60.8 20.7 60.2C20.7 59.6 20.9 59.2 21.3 58.8C21.7 58.4 22.3 58.2 23.2 58.2C23.9 58.2 24.5 58.4 24.9 58.7C25.4 59.1 25.6 59.6 25.7 60.3H24.4C24.4 59.9 24.2 59.6 23.9 59.5C23.7 59.4 23.4 59.3 23.1 59.3C22.7 59.3 22.5 59.4 22.3 59.5C22.1 59.6 22 59.8 22 60.1C22 60.3 22.1 60.5 22.3 60.6C22.4 60.7 22.7 60.8 23.1 60.9L24.2 61.2C24.7 61.3 25.1 61.5 25.3 61.7C25.7 62 25.9 62.4 25.9 63C25.9 63.6 25.7 64.1 25.2 64.4C24.7 64.8 24.1 65 23.3 65C22.5 65 21.8 64.8 21.3 64.4C20.8 64 20.6 63.5 20.6 62.8H21.9Z" fill="#818799"/>
<path d="M28.6 62.4H30.2L29.4 59.9L28.6 62.4ZM28.7 58.4H30.2L32.5 64.8H31L30.6 63.5H28.3L27.9 64.8H26.5L28.7 58.4Z" fill="#818799"/>
<path d="M35.4 58.4H36.8V62.3C36.8 62.7 36.9 63.1 37 63.3C37.2 63.7 37.5 63.8 38.1 63.8C38.6 63.8 39 63.6 39.1 63.3C39.2 63.1 39.3 62.8 39.3 62.3V58.4H40.7V62.3C40.7 63 40.6 63.5 40.4 63.9C40 64.6 39.3 64.9 38.2 64.9C37.1 64.9 36.4 64.6 36 63.9C35.8 63.5 35.7 63 35.7 62.3V58.4H35.4Z" fill="#818799"/>
<path d="M41.8 58.4H43.2L45.7 62.9V58.4H47V64.8H45.6L43 60.3V64.8H41.8V58.4Z" fill="#818799"/>
<path d="M49.4 58.4H48.1V64.8H49.4V58.4Z" fill="#818799"/>
<path d="M54.4 58.4H55.8L53.6 64.8H52.3L50.2 58.4H51.6L53 63.3L54.4 58.4Z" fill="#818799"/>
<path d="M61.3 59.6H57.9V60.9H61V62H57.9V63.7H61.4V64.8H56.6V58.4H61.3V59.6Z" fill="#818799"/>
<path d="M63.8 59.5V61.2H65.2C65.5 61.2 65.7 61.2 65.8 61.1C66.1 61 66.2 60.7 66.2 60.4C66.2 60 66.1 59.8 65.8 59.6C65.7 59.5 65.5 59.5 65.2 59.5H63.8ZM66.5 58.6C66.7 58.7 66.9 58.8 67.1 59C67.2 59.2 67.3 59.3 67.4 59.5C67.5 59.7 67.5 59.9 67.5 60.2C67.5 60.5 67.4 60.8 67.3 61.1C67.1 61.4 66.9 61.6 66.5 61.7C66.8 61.8 67 62 67.1 62.2C67.2 62.4 67.3 62.7 67.3 63.2V63.6C67.3 63.9 67.3 64.1 67.3 64.2C67.3 64.4 67.4 64.5 67.5 64.6V64.8H66C66 64.7 65.9 64.5 65.9 64.5C65.9 64.3 65.8 64.1 65.8 64V63.4C65.8 63 65.7 62.7 65.6 62.6C65.5 62.5 65.2 62.4 64.8 62.4H63.5V64.9H62.2V58.5H65.2C66 58.4 66.3 58.5 66.5 58.6Z" fill="#818799"/>
<path d="M69.8 62.8C69.8 63.1 69.9 63.3 70 63.5C70.2 63.8 70.6 63.9 71.1 63.9C71.4 63.9 71.7 63.9 71.9 63.8C72.3 63.7 72.5 63.4 72.5 63.1C72.5 62.9 72.4 62.7 72.2 62.6C72 62.5 71.7 62.4 71.3 62.3L70.6 62.1C69.9 62 69.5 61.8 69.2 61.6C68.8 61.3 68.6 60.8 68.6 60.2C68.6 59.6 68.8 59.2 69.2 58.8C69.6 58.4 70.2 58.2 71.1 58.2C71.8 58.2 72.4 58.4 72.8 58.7C73.3 59.1 73.5 59.6 73.6 60.3H72.3C72.3 59.9 72.1 59.6 71.8 59.5C71.6 59.4 71.3 59.3 71 59.3C70.6 59.3 70.4 59.4 70.2 59.5C70 59.6 69.9 59.8 69.9 60.1C69.9 60.3 70 60.5 70.2 60.6C70.3 60.7 70.6 60.8 71 60.9L72.1 61.2C72.6 61.3 73 61.5 73.2 61.7C73.6 62 73.8 62.4 73.8 63C73.8 63.6 73.6 64.1 73.1 64.4C72.6 64.8 72 65 71.2 65C70.4 65 69.7 64.8 69.2 64.4C68.7 64 68.5 63.5 68.5 62.8H69.8Z" fill="#818799"/>
<path d="M76.5 62.4H78.1L77.3 59.9L76.5 62.4ZM76.6 58.4H78.1L80.4 64.8H79L78.6 63.5H76.3L75.9 64.8H74.5L76.6 58.4Z" fill="#818799"/>
<path d="M81.2 58.4H82.5V63.7H85.7V64.8H81.2V58.4Z" fill="#818799"/>
<path d="M93.1 58.4H95V64.8H93.8V60.5C93.8 60.4 93.8 60.2 93.8 60C93.8 59.8 93.8 59.6 93.8 59.5L92.6 64.8H91.3L90.1 59.5C90.1 59.6 90.1 59.8 90.1 60C90.1 60.2 90.1 60.4 90.1 60.5V64.8H88.9V58.4H90.8L92 63.4L93.1 58.4Z" fill="#818799"/>
<path d="M100.3 63.3C100.6 62.9 100.8 62.4 100.8 61.6C100.8 60.9 100.6 60.3 100.3 59.9C100 59.5 99.6 59.3 99 59.3C98.5 59.3 98.1 59.5 97.7 59.9C97.4 60.3 97.2 60.8 97.2 61.6C97.2 62.3 97.4 62.9 97.7 63.3C98 63.7 98.4 63.9 99 63.9C99.6 63.9 100 63.7 100.3 63.3ZM101.1 64.2C100.6 64.7 99.9 64.9 99 64.9C98.1 64.9 97.4 64.7 96.9 64.2C96.3 63.6 95.9 62.7 95.9 61.6C95.9 60.4 96.2 59.6 96.9 59C97.4 58.5 98.1 58.3 99 58.3C99.9 58.3 100.6 58.5 101.1 59C101.7 59.6 102.1 60.5 102.1 61.6C102.1 62.8 101.8 63.6 101.1 64.2Z" fill="#818799"/>
<path d="M107.7 58.4V59.6H105.8V64.8H104.5V59.6H102.6V58.4H107.7Z" fill="#818799"/>
<path d="M112.4 63.3C112.7 62.9 112.9 62.4 112.9 61.6C112.9 60.9 112.7 60.3 112.4 59.9C112.1 59.5 111.7 59.3 111.1 59.3C110.6 59.3 110.2 59.5 109.8 59.9C109.5 60.3 109.3 60.8 109.3 61.6C109.3 62.3 109.5 62.9 109.8 63.3C110.1 63.7 110.5 63.9 111.1 63.9C111.7 63.9 112.1 63.7 112.4 63.3ZM113.3 64.2C112.8 64.7 112.1 64.9 111.2 64.9C110.3 64.9 109.6 64.7 109.1 64.2C108.5 63.6 108.1 62.7 108.1 61.6C108.1 60.4 108.4 59.6 109.1 59C109.6 58.5 110.3 58.3 111.2 58.3C112.1 58.3 112.8 58.5 113.3 59C113.9 59.6 114.3 60.5 114.3 61.6C114.2 62.8 113.9 63.6 113.3 64.2Z" fill="#818799"/>
<path d="M116.6 59.5V61.2H118C118.3 61.2 118.5 61.2 118.6 61.1C118.9 61 119 60.7 119 60.4C119 60 118.9 59.8 118.6 59.6C118.5 59.5 118.3 59.5 118 59.5H116.6ZM119.3 58.6C119.5 58.7 119.7 58.8 119.9 59C120 59.2 120.1 59.3 120.2 59.5C120.3 59.7 120.3 59.9 120.3 60.2C120.3 60.5 120.2 60.8 120.1 61.1C120 61.4 119.7 61.6 119.3 61.7C119.6 61.8 119.8 62 119.9 62.2C120 62.4 120.1 62.7 120.1 63.2V63.6C120.1 63.9 120.1 64.1 120.1 64.2C120.1 64.4 120.2 64.5 120.3 64.6V64.8H119C119 64.7 118.9 64.5 118.9 64.5C118.9 64.3 118.8 64.1 118.8 64V63.4C118.8 63 118.7 62.7 118.6 62.6C118.5 62.5 118.2 62.4 117.8 62.4H116.5V64.9H115.2V58.5H118.2C118.8 58.4 119.1 58.5 119.3 58.6Z" fill="#818799"/>
<path d="M122.6 62.8C122.6 63.1 122.7 63.3 122.8 63.5C123 63.8 123.4 63.9 123.9 63.9C124.2 63.9 124.5 63.9 124.7 63.8C125.1 63.7 125.3 63.4 125.3 63.1C125.3 62.9 125.2 62.7 125 62.6C124.8 62.5 124.5 62.4 124.1 62.3L123.4 62.1C122.7 62 122.3 61.8 122 61.6C121.6 61.3 121.4 60.8 121.4 60.2C121.4 59.6 121.6 59.2 122 58.8C122.4 58.4 123 58.2 123.9 58.2C124.6 58.2 125.2 58.4 125.6 58.7C126.1 59.1 126.3 59.6 126.4 60.3H125.1C125.1 59.9 124.9 59.6 124.6 59.5C124.4 59.4 124.1 59.3 123.8 59.3C123.4 59.3 123.2 59.4 123 59.5C122.8 59.6 122.7 59.8 122.7 60.1C122.7 60.3 122.8 60.5 123 60.6C123.1 60.7 123.4 60.8 123.8 60.9L124.9 61.2C125.4 61.3 125.8 61.5 126 61.7C126.4 62 126.6 62.4 126.6 63C126.6 63.6 126.4 64.1 125.9 64.4C125.5 64.8 124.8 65 124 65C123.2 65 122.5 64.8 122 64.4C121.5 64 121.3 63.5 121.3 62.8H122.6Z" fill="#818799"/>
<path d="M3.3 45.6H4.4V46.9H3.3V45.6ZM1.7 45.6H2.8V46.9H1.7V45.6ZM4 52.4H2.2C0.8 52.4 0 51.6 0 50.3V47.7H1.2V50.3C1.2 50.9 1.4 51.2 2.1 51.2H4C4.6 51.2 4.9 50.9 4.9 50.3V47.7H6.1V50.3C6.2 51.6 5.3 52.4 4 52.4Z" fill="#818799"/>
<path d="M8.30001 44.9H7.10001V52.4H8.30001V44.9Z" fill="#818799"/>
<path d="M8.79999 54.2V53.1C9.79999 53.1 9.79999 52.3 9.79999 51.6V47.8H11C11 47.8 11 47.9 11 52.1C11 53.2 10.3 54.3 8.79999 54.2Z" fill="#818799"/>
<path d="M12 50.4V44.9H13.2V50.4C13.2 51 13.5 51.3 14.3 51.3V52.4C12.8 52.4 12 51.7 12 50.4Z" fill="#818799"/>
<path d="M15.2 53.2H16.3V54.5H15.2V53.2ZM17.3 52.4C16.7 52.4 16.2 52.2 15.8 51.9C15.4 52.2 14.9 52.4 14.3 52.4H14V51.2H14.4C14.9 51.2 15.2 50.9 15.2 50.5V47.7H16.5V50.5C16.5 50.9 16.8 51.2 17.4 51.2H17.8V52.4H17.3ZM13.6 53.2H14.7V54.5H13.6V53.2Z" fill="#818799"/>
<path d="M17.4 52.4V51.3H18.9V47.8H20.2V51.3H21.8V47.8H23V51.3H24.3V47.8H25.5V51.3H26.7V52.4H17.4Z" fill="#818799"/>
<path d="M29.7 52.4C29.1 52.4 28.6 52.2 28.2 51.9C27.8 52.2 27.3 52.4 26.7 52.4H26.3V51.3H26.7C27.2 51.3 27.5 51 27.5 50.6V45H28.8V50.7C28.8 51.1 29.1 51.4 29.7 51.4H30.1V52.5H29.7V52.4Z" fill="#818799"/>
<path d="M29.8 52.4V51.3C30.7 51.3 31.1 51 31.1 50.4V44.9H32.4V50.4C32.3 51.7 31.4 52.4 29.8 52.4Z" fill="#818799"/>
<path d="M37.7 45.6H38.8V46.9H37.7V45.6ZM37.8 48.9H37.1C36.4 48.9 36.3 49.7 36.3 50.2C36.3 50.8 36.6 51.3 37.1 51.3H37.8V48.9ZM36.1 45.6H37.2V46.9H36.1V45.6ZM37 52.4C36.1 52.4 35 51.8 35 50.1C35 48.5 35.7 47.7 37 47.7H39.1V51.2H40.6V52.3H37V52.4Z" fill="#818799"/>
<path d="M41.5 53.2H42.6V54.5H41.5V53.2ZM43.6 52.4C43 52.4 42.5 52.2 42.1 51.9C41.7 52.2 41.2 52.4 40.6 52.4H40.2V51.2H40.6C41.1 51.2 41.4 50.9 41.4 50.5V47.7H42.7V50.5C42.7 50.9 43 51.2 43.6 51.2H44V52.4H43.6ZM39.9 53.2H41V54.5H39.9V53.2Z" fill="#818799"/>
<path d="M47 49.3C46.5 49.3 46.2 49.7 46.2 50.7C46.2 51.7 46.5 52.1 47 52.1C47.5 52.1 47.9 51.7 47.9 50.8C47.8 49.7 47.5 49.3 47 49.3ZM48.8 52.2C48.5 52.9 47.8 53.3 46.9 53.3C46.1 53.3 45.4 52.9 45.1 52.2C44.8 52.3 44.4 52.4 44 52.4H43.6V51.3C44.1 51.3 44.7 51.3 44.7 50.7C44.8 49.2 45.5 48.3 46.9 48.3C48.3 48.3 49 49.4 49 50.7C49 51.1 49.3 51.3 49.9 51.3H50.3V52.4C49.9 52.4 49.3 52.4 48.8 52.2Z" fill="#818799"/>
<path d="M50.1 52.4V51.3C51 51.3 51.4 51 51.4 50.4V44.9H52.6V50.4C52.6 51.7 51.6 52.4 50.1 52.4Z" fill="#818799"/>
<path d="M53.6 50.4V44.9H54.8V50.4C54.8 51 55.1 51.3 55.9 51.3V52.4C54.4 52.4 53.6 51.7 53.6 50.4Z" fill="#818799"/>
<path d="M59 48.7C58.2 48.7 57.6 49.2 57.6 49.8C58 50.1 58.7 50.8 59 51L60.4 49.8C60.4 49.3 59.9 48.7 59 48.7ZM60 52.4C59.7 52.4 59.3 52.4 59 52.3C58.7 52.4 58.3 52.4 58 52.4H55.5V51.3H57.5L56.2 50.2C56.2 48.8 57.2 47.6 59 47.6C60.7 47.6 61.8 48.7 61.8 50.2L60.5 51.3H62.5V52.4H60Z" fill="#818799"/>
<path d="M62.2 52.4V51.3C63.1 51.3 63.5 51 63.5 50.4V44.9H64.8V50.4C64.7 51.7 63.7 52.4 62.2 52.4Z" fill="#818799"/>
<path d="M66.9 44.9H65.7V52.4H66.9V44.9Z" fill="#818799"/>
<path d="M76.2 52.4V49C75.8 49 75.4 49.2 75.4 50.1V52.4H69.6C69.6 51.8 69.7 50.7 70.1 49.9C70.6 48.7 71.5 48 73.3 48V49.1C72.4 49.1 71.8 49.2 71.3 50.1C71.1 50.4 71 51 71 51.3H74.2C74.2 50 74.2 50 74.2 50C74.2 47.9 76 47.8 77.5 47.8V51.3H78.7V52.4H76.2Z" fill="#818799"/>
<path d="M78.4 52.4V51.3H79.9V47.8H81.2V51.3H82.8V47.8H84.1V51.3H85.3V47.8H86.5V51.3H87.7V52.4H78.4Z" fill="#818799"/>
<path d="M88.7 53.2H89.8V54.5H88.7V53.2ZM90.8 52.4C90.2 52.4 89.7 52.2 89.3 51.9C88.9 52.2 88.4 52.4 87.8 52.4H87.4V51.2H87.8C88.3 51.2 88.6 50.9 88.6 50.5V47.7H89.9V50.5C89.9 50.9 90.2 51.2 90.8 51.2H91.2V52.4H90.8ZM87.1 53.2H88.2V54.5H87.1V53.2Z" fill="#818799"/>
<path d="M94.3 48.7C93.5 48.7 92.9 49.2 92.9 49.8C93.3 50.1 94 50.8 94.3 51L95.7 49.8C95.7 49.3 95.1 48.7 94.3 48.7ZM95.3 52.4C95 52.4 94.6 52.4 94.3 52.3C94 52.4 93.6 52.4 93.3 52.4H90.8V51.3H92.8L91.5 50.2C91.5 48.8 92.5 47.6 94.3 47.6C96 47.6 97.1 48.7 97.1 50.2L95.8 51.3H97.8V52.4H95.3Z" fill="#818799"/>
<path d="M97.5 52.4V51.3C98.4 51.3 98.8 51 98.8 50.4V44.9H100V50.4C100 51.7 99 52.4 97.5 52.4Z" fill="#818799"/>
<path d="M102.3 44.9H101V52.4H102.3V44.9Z" fill="#818799"/>
<path d="M107.6 45.6H108.7V46.9H107.6V45.6ZM107.7 48.9H107C106.3 48.9 106.2 49.7 106.2 50.2C106.2 50.8 106.5 51.3 107 51.3H107.7V48.9ZM106 45.6H107.1V46.9H106V45.6ZM106.9 52.4C106 52.4 104.9 51.8 104.9 50.1C104.9 48.5 105.6 47.7 106.9 47.7H109V51.2H110.5V52.3H106.9V52.4Z" fill="#818799"/>
<path d="M110.1 52.4V51.3H114.1V50.1C114.1 49.5 113.9 49.3 113.4 49.3H110.4V47.7C110.4 46.7 111.2 46 112.5 46H114.5V47.2H112.5C111.9 47.2 111.7 47.5 111.7 47.8V48.2H113.6C114.9 48.2 115.5 48.9 115.5 50.2V52.6H110.1V52.4Z" fill="#818799"/>
<path d="M119.1 52.4C118.9 52.4 118.3 52.4 118 52.1C118 53.2 117.3 54.2 115.8 54.2V53.1C116.8 53.1 116.8 52.3 116.8 51.6V47.8H118C118 47.8 118 49.5 118 50.4C118 51 118.5 51.3 119.1 51.3H119.3V52.4H119.1Z" fill="#818799"/>
<path d="M124.2 45.6H125.2V46.9H124.2V45.6ZM123.4 44.1H124.4V45.2H123.4V44.1ZM122.7 45.6H123.7V46.9H122.7V45.6ZM125.3 52.4H118.9V51.3H120.5V47.8H121.7V51.3H123.3V47.8H124.6V51.3H125.3C125.7 51.3 125.8 51.3 125.8 50.4V47.8H127V50.8C127 51.8 126.4 52.4 125.3 52.4Z" fill="#818799"/>
</g>
<defs>
<clipPath id="clip0_3_20">
<rect width="127" height="65" fill="white"/>
</clipPath>
</defs>
</svg>
