<svg width="0" height="0" class="hidden">
  <symbol fill="none" xmlns="http://www.w3.org/2000/svg" viewBox="0 0 24 24" id="eye">
    <path fill-rule="evenodd" clip-rule="evenodd" d="M9.87868 9.87868C10.4413 9.31607 11.2043 9 12 9C12.7957 9 13.5587 9.31607 14.1213 9.87868C14.6839 10.4413 15 11.2043 15 12C15 12.7957 14.6839 13.5587 14.1213 14.1213C13.5587 14.6839 12.7957 15 12 15C11.2043 15 10.4413 14.6839 9.87868 14.1213C9.31607 13.5587 9 12.7957 9 12C9 11.2043 9.31607 10.4413 9.87868 9.87868ZM12 11C11.7348 11 11.4804 11.1054 11.2929 11.2929C11.1054 11.4804 11 11.7348 11 12C11 12.2652 11.1054 12.5196 11.2929 12.7071C11.4804 12.8946 11.7348 13 12 13C12.2652 13 12.5196 12.8946 12.7071 12.7071C12.8946 12.5196 13 12.2652 13 12C13 11.7348 12.8946 11.4804 12.7071 11.2929C12.5196 11.1054 12.2652 11 12 11Z" fill="currentColor"></path>
    <path fill-rule="evenodd" clip-rule="evenodd" d="M4.17703 12C6.39038 15.4411 9.00114 17 12 17C14.9989 17 17.6096 15.4411 19.823 12C17.6096 8.55893 14.9989 7 12 7C9.00114 7 6.39038 8.55893 4.17703 12ZM2.14251 11.4855C4.66219 7.28603 7.94444 5 12 5C16.0556 5 19.3378 7.28603 21.8575 11.4855C22.0475 11.8022 22.0475 12.1978 21.8575 12.5145C19.3378 16.714 16.0556 19 12 19C7.94444 19 4.66219 16.714 2.14251 12.5145C1.9525 12.1978 1.9525 11.8022 2.14251 11.4855Z" fill="currentColor"></path>
  </symbol>
  <symbol fill="none" xmlns="http://www.w3.org/2000/svg" viewBox="0 0 24 24" id="reverse">
    <path fill-rule="evenodd" clip-rule="evenodd" d="M6.29289 4.29289C6.68342 3.90237 7.31658 3.90237 7.70711 4.29289L11.7071 8.29289C12.0976 8.68342 12.0976 9.31658 11.7071 9.70711C11.3166 10.0976 10.6834 10.0976 10.2929 9.70711L8 7.41421V19C8 19.5523 7.55228 20 7 20C6.44772 20 6 19.5523 6 19V7.41421L3.70711 9.70711C3.31658 10.0976 2.68342 10.0976 2.29289 9.70711C1.90237 9.31658 1.90237 8.68342 2.29289 8.29289L6.29289 4.29289Z" fill="currentColor"></path>
    <path fill-rule="evenodd" clip-rule="evenodd" d="M17 4C17.5523 4 18 4.44772 18 5V16.5858L20.2929 14.2929C20.6834 13.9024 21.3166 13.9024 21.7071 14.2929C22.0976 14.6834 22.0976 15.3166 21.7071 15.7071L17.7071 19.7071C17.3166 20.0976 16.6834 20.0976 16.2929 19.7071L12.2929 15.7071C11.9024 15.3166 11.9024 14.6834 12.2929 14.2929C12.6834 13.9024 13.3166 13.9024 13.7071 14.2929L16 16.5858V5C16 4.44772 16.4477 4 17 4Z" fill="currentColor"></path>
  </symbol>
  <symbol fill="none" xmlns="http://www.w3.org/2000/svg" viewBox="0 0 24 24" id="arrow-down">
    <path d="M18 9C18.852 9 19.297 9.986 18.783 10.623L18.707 10.707L12.707 16.707C12.5348 16.8792 12.3057 16.9826 12.0626 16.9979C11.8196 17.0132 11.5794 16.9393 11.387 16.79L11.293 16.707L5.29295 10.707L5.20995 10.613L5.15595 10.536L5.10195 10.44L5.08495 10.404L5.05795 10.337L5.02595 10.229L5.01595 10.176L5.00595 10.116L5.00195 10.059V9.941L5.00695 9.883L5.01595 9.823L5.02595 9.771L5.05795 9.663L5.08495 9.596L5.15495 9.464L5.21995 9.374L5.29295 9.293L5.38695 9.21L5.46395 9.156L5.55995 9.102L5.59595 9.085L5.66295 9.058L5.77095 9.026L5.82395 9.016L5.88395 9.006L5.94095 9.002L18 9Z" fill="currentColor"></path>
  </symbol>
  <symbol fill="none" xmlns="http://www.w3.org/2000/svg" viewBox="0 0 24 24" id="search">
    <path fill-rule="evenodd" clip-rule="evenodd" d="M6.93853 2.60896C7.90914 2.20693 8.94943 2 10 2C11.0506 2 12.0909 2.20693 13.0615 2.60896C14.0321 3.011 14.914 3.60028 15.6569 4.34315C16.3997 5.08601 16.989 5.96793 17.391 6.93853C17.7931 7.90914 18 8.94943 18 10C18 11.0506 17.7931 12.0909 17.391 13.0615C16.989 14.0321 16.3997 14.914 15.6569 15.6569C14.914 16.3997 14.0321 16.989 13.0615 17.391C12.0909 17.7931 11.0506 18 10 18C8.94943 18 7.90914 17.7931 6.93853 17.391C5.96793 16.989 5.08601 16.3997 4.34315 15.6569C3.60028 14.914 3.011 14.0321 2.60896 13.0615C2.20693 12.0909 2 11.0506 2 10C2 8.94942 2.20693 7.90914 2.60896 6.93853C3.011 5.96793 3.60028 5.08601 4.34315 4.34315C5.08601 3.60028 5.96793 3.011 6.93853 2.60896ZM10 4C9.21207 4 8.43185 4.15519 7.7039 4.45672C6.97595 4.75825 6.31451 5.20021 5.75736 5.75736C5.20021 6.31451 4.75825 6.97595 4.45672 7.7039C4.15519 8.43185 4 9.21207 4 10C4 10.7879 4.15519 11.5681 4.45672 12.2961C4.75825 13.0241 5.20021 13.6855 5.75736 14.2426C6.31451 14.7998 6.97595 15.2417 7.7039 15.5433C8.43185 15.8448 9.21207 16 10 16C10.7879 16 11.5681 15.8448 12.2961 15.5433C13.0241 15.2417 13.6855 14.7998 14.2426 14.2426C14.7998 13.6855 15.2417 13.0241 15.5433 12.2961C15.8448 11.5681 16 10.7879 16 10C16 9.21207 15.8448 8.43185 15.5433 7.7039C15.2417 6.97595 14.7998 6.31451 14.2426 5.75736C13.6855 5.20021 13.0241 4.75825 12.2961 4.45672C11.5681 4.15519 10.7879 4 10 4Z" fill="currentColor"></path>
    <path fill-rule="evenodd" clip-rule="evenodd" d="M14.2929 14.2929C14.6834 13.9024 15.3166 13.9024 15.7071 14.2929L21.7071 20.2929C22.0976 20.6834 22.0976 21.3166 21.7071 21.7071C21.3166 22.0976 20.6834 22.0976 20.2929 21.7071L14.2929 15.7071C13.9024 15.3166 13.9024 14.6834 14.2929 14.2929Z" fill="currentColor"></path>
  </symbol>
  <symbol fill="none" xmlns="http://www.w3.org/2000/svg" viewBox="0 0 24 24" id="bell">
    <path fill-rule="evenodd" clip-rule="evenodd" d="M12 4C11.7348 4 11.4804 4.10536 11.2929 4.29289C11.1053 4.48043 11 4.73478 11 5C11 5.38669 10.777 5.73873 10.4274 5.90403C9.44309 6.36948 8.60395 7.09402 7.99997 8C7.40016 8.89972 7.05471 9.94469 6.99997 11.0244V14C6.99997 14.0402 6.99755 14.0803 6.99272 14.1202C6.91247 14.7832 6.70037 15.4222 6.37018 16H17.6298C17.2996 15.4222 17.0875 14.7832 17.0072 14.1202C17.0024 14.0803 17 14.0402 17 14V11.0244C16.9452 9.9447 16.5998 8.89972 16 8C15.396 7.09402 14.5568 6.36948 13.5725 5.90403C13.2229 5.73873 13 5.38669 13 5C13 4.73478 12.8946 4.48043 12.7071 4.29289C12.5195 4.10536 12.2652 4 12 4ZM9.87865 2.87868C10.4413 2.31607 11.2043 2 12 2C12.7956 2 13.5587 2.31607 14.1213 2.87868C14.5295 3.28688 14.8079 3.80059 14.93 4.35572C16.0259 4.97224 16.9636 5.83991 17.6641 6.8906C18.4694 8.09857 18.9308 9.50291 18.9989 10.9531C18.9996 10.9687 19 10.9844 19 11V13.9354C19.0624 14.3815 19.2247 14.8082 19.4748 15.1834C19.7354 15.5742 20.084 15.8984 20.4927 16.1298C20.8879 16.3536 21.0827 16.8156 20.967 17.2548C20.8513 17.694 20.4541 18 20 18H3.99997C3.54581 18 3.14868 17.694 3.03297 17.2548C2.91726 16.8156 3.11202 16.3536 3.50722 16.1298C3.91592 15.8984 4.26457 15.5742 4.52511 15.1834C4.77528 14.8082 4.93749 14.3815 4.99997 13.9353V11C4.99997 10.9844 5.00034 10.9687 5.00107 10.9531C5.06914 9.50291 5.53056 8.09857 6.33587 6.8906C7.03633 5.83991 7.974 4.97224 9.06996 4.35572C9.19204 3.80059 9.47045 3.28688 9.87865 2.87868Z" fill="currentColor"></path>
    <path fill-rule="evenodd" clip-rule="evenodd" d="M8.99997 16C9.55225 16 9.99997 16.4477 9.99997 17V18C9.99997 18.5304 10.2107 19.0391 10.5858 19.4142C10.9608 19.7893 11.4695 20 12 20C12.5304 20 13.0391 19.7893 13.4142 19.4142C13.7893 19.0391 14 18.5304 14 18V17C14 16.4477 14.4477 16 15 16C15.5523 16 16 16.4477 16 17V18C16 19.0609 15.5785 20.0783 14.8284 20.8284C14.0783 21.5786 13.0608 22 12 22C10.9391 22 9.92169 21.5786 9.17154 20.8284C8.4214 20.0783 7.99997 19.0609 7.99997 18V17C7.99997 16.4477 8.44769 16 8.99997 16Z" fill="currentColor"></path>
  </symbol>
  <symbol fill="none" xmlns="http://www.w3.org/2000/svg" viewBox="0 0 24 24" id="truck">
    <path fill-rule="evenodd" clip-rule="evenodd" d="M4.87868 14.8787C5.44129 14.3161 6.20435 14 7 14C7.79565 14 8.55871 14.3161 9.12132 14.8787C9.68393 15.4413 10 16.2043 10 17C10 17.7957 9.68393 18.5587 9.12132 19.1213C8.55871 19.6839 7.79565 20 7 20C6.20435 20 5.44129 19.6839 4.87868 19.1213C4.31607 18.5587 4 17.7956 4 17C4 16.2044 4.31607 15.4413 4.87868 14.8787ZM7 16C6.73478 16 6.48043 16.1054 6.29289 16.2929C6.10536 16.4804 6 16.7348 6 17C6 17.2652 6.10536 17.5196 6.29289 17.7071C6.48043 17.8946 6.73478 18 7 18C7.26522 18 7.51957 17.8946 7.70711 17.7071C7.89464 17.5196 8 17.2652 8 17C8 16.7348 7.89464 16.4804 7.70711 16.2929C7.51957 16.1054 7.26522 16 7 16Z" fill="currentColor"></path>
    <path fill-rule="evenodd" clip-rule="evenodd" d="M14.8787 14.8787C15.4413 14.3161 16.2043 14 17 14C17.7957 14 18.5587 14.3161 19.1213 14.8787C19.6839 15.4413 20 16.2043 20 17C20 17.7957 19.6839 18.5587 19.1213 19.1213C18.5587 19.6839 17.7957 20 17 20C16.2043 20 15.4413 19.6839 14.8787 19.1213C14.3161 18.5587 14 17.7957 14 17C14 16.2043 14.3161 15.4413 14.8787 14.8787ZM17 16C16.7348 16 16.4804 16.1054 16.2929 16.2929C16.1054 16.4804 16 16.7348 16 17C16 17.2652 16.1054 17.5196 16.2929 17.7071C16.4804 17.8946 16.7348 18 17 18C17.2652 18 17.5196 17.8946 17.7071 17.7071C17.8946 17.5196 18 17.2652 18 17C18 16.7348 17.8946 16.4804 17.7071 16.2929C17.5196 16.1054 17.2652 16 17 16Z" fill="currentColor"></path>
    <path fill-rule="evenodd" clip-rule="evenodd" d="M1 5C1 4.44772 1.44772 4 2 4H13C13.5523 4 14 4.44772 14 5H18C18.3513 5 18.6768 5.1843 18.8575 5.4855L21.8575 10.4855C21.9507 10.6409 22 10.8188 22 11V17C22 17.5523 21.5523 18 21 18H19C18.4477 18 18 17.5523 18 17C18 16.4477 18.4477 16 19 16H20V12H14V16H15C15.5523 16 16 16.4477 16 17C16 17.5523 15.5523 18 15 18H9C8.44772 18 8 17.5523 8 17C8 16.4477 8.44772 16 9 16H12V6H2C1.44772 6 1 5.55228 1 5ZM14 7V10H19.2338L17.4338 7H14ZM3 12C3.55228 12 4 12.4477 4 13V16H5C5.55228 16 6 16.4477 6 17C6 17.5523 5.55228 18 5 18H3C2.44772 18 2 17.5523 2 17V13C2 12.4477 2.44772 12 3 12Z" fill="currentColor"></path>
    <path fill-rule="evenodd" clip-rule="evenodd" d="M2 9C2 8.44772 2.44772 8 3 8H7C7.55228 8 8 8.44772 8 9C8 9.55228 7.55228 10 7 10H3C2.44772 10 2 9.55228 2 9Z" fill="currentColor"></path>
  </symbol>
  <symbol fill="none" xmlns="http://www.w3.org/2000/svg" viewBox="0 0 24 24" id="receipt">
    <path fill-rule="evenodd" clip-rule="evenodd" d="M7 4C6.73478 4 6.48043 4.10536 6.29289 4.29289C6.10536 4.48043 6 4.73478 6 5V19.1315L7.4453 18.1679C7.84192 17.9035 8.37004 17.9558 8.70711 18.2929L10 19.5858L11.2929 18.2929C11.6834 17.9024 12.3166 17.9024 12.7071 18.2929L14 19.5858L15.2929 18.2929C15.63 17.9558 16.1581 17.9035 16.5547 18.1679L18 19.1315V5C18 4.73478 17.8946 4.48043 17.7071 4.29289C17.5196 4.10536 17.2652 4 17 4H7ZM4.87868 2.87868C5.44129 2.31607 6.20435 2 7 2H17C17.7956 2 18.5587 2.31607 19.1213 2.87868C19.6839 3.44129 20 4.20435 20 5V21C20 21.3688 19.797 21.7077 19.4719 21.8817C19.1467 22.0557 18.7522 22.0366 18.4453 21.8321L16.1274 20.2868L14.7071 21.7071C14.3166 22.0976 13.6834 22.0976 13.2929 21.7071L12 20.4142L10.7071 21.7071C10.3166 22.0976 9.68342 22.0976 9.29289 21.7071L7.87258 20.2868L5.5547 21.8321C5.24784 22.0366 4.8533 22.0557 4.52814 21.8817C4.20298 21.7077 4 21.3688 4 21V5C4 4.20435 4.31607 3.44129 4.87868 2.87868ZM8 7C8 6.44772 8.44772 6 9 6H15C15.5523 6 16 6.44772 16 7C16 7.55228 15.5523 8 15 8H9C8.44772 8 8 7.55228 8 7ZM8 11C8 10.4477 8.44772 10 9 10H15C15.5523 10 16 10.4477 16 11C16 11.5523 15.5523 12 15 12H9C8.44772 12 8 11.5523 8 11ZM12 15C12 14.4477 12.4477 14 13 14H15C15.5523 14 16 14.4477 16 15C16 15.5523 15.5523 16 15 16H13C12.4477 16 12 15.5523 12 15Z" fill="currentColor"></path>
  </symbol>
  <symbol fill="none" xmlns="http://www.w3.org/2000/svg" viewBox="0 0 24 24" id="user">
    <path fill-rule="evenodd" clip-rule="evenodd" d="M8.46447 3.46447C9.40215 2.52678 10.6739 2 12 2C13.3261 2 14.5979 2.52678 15.5355 3.46447C16.4732 4.40215 17 5.67392 17 7C17 8.32608 16.4732 9.59785 15.5355 10.5355C14.5979 11.4732 13.3261 12 12 12C10.6739 12 9.40215 11.4732 8.46447 10.5355C7.52678 9.59785 7 8.32608 7 7C7 5.67392 7.52678 4.40215 8.46447 3.46447ZM12 4C11.2044 4 10.4413 4.31607 9.87868 4.87868C9.31607 5.44129 9 6.20435 9 7C9 7.79565 9.31607 8.55871 9.87868 9.12132C10.4413 9.68393 11.2044 10 12 10C12.7956 10 13.5587 9.68393 14.1213 9.12132C14.6839 8.55871 15 7.79565 15 7C15 6.20435 14.6839 5.44129 14.1213 4.87868C13.5587 4.31607 12.7956 4 12 4Z" fill="currentColor"></path>
    <path fill-rule="evenodd" clip-rule="evenodd" d="M10 16C9.20435 16 8.44129 16.3161 7.87868 16.8787C7.31607 17.4413 7 18.2043 7 19V21C7 21.5523 6.55228 22 6 22C5.44772 22 5 21.5523 5 21V19C5 17.6739 5.52678 16.4021 6.46447 15.4645C7.40215 14.5268 8.67392 14 10 14H14C15.3261 14 16.5979 14.5268 17.5355 15.4645C18.4732 16.4021 19 17.6739 19 19V21C19 21.5523 18.5523 22 18 22C17.4477 22 17 21.5523 17 21V19C17 18.2044 16.6839 17.4413 16.1213 16.8787C15.5587 16.3161 14.7956 16 14 16H10Z" fill="currentColor"></path>
  </symbol>
  <symbol fill="none" xmlns="http://www.w3.org/2000/svg" viewBox="0 0 24 24" id="check">
    <path fill-rule="evenodd" clip-rule="evenodd" d="M20.7071 6.29289C21.0976 6.68342 21.0976 7.31658 20.7071 7.70711L10.7071 17.7071C10.3166 18.0976 9.68342 18.0976 9.29289 17.7071L4.29289 12.7071C3.90237 12.3166 3.90237 11.6834 4.29289 11.2929C4.68342 10.9024 5.31658 10.9024 5.70711 11.2929L10 15.5858L19.2929 6.29289C19.6834 5.90237 20.3166 5.90237 20.7071 6.29289Z" fill="currentColor"></path>
  </symbol>
  <symbol fill="none" xmlns="http://www.w3.org/2000/svg" viewBox="0 0 24 24" id="percent">
    <path fill-rule="evenodd" clip-rule="evenodd" d="M15.7071 7.29289C16.0976 7.68342 16.0976 8.31658 15.7071 8.70711L9.70711 14.7071C9.31658 15.0976 8.68342 15.0976 8.29289 14.7071C7.90237 14.3166 7.90237 13.6834 8.29289 13.2929L14.2929 7.29289C14.6834 6.90237 15.3166 6.90237 15.7071 7.29289Z" fill="currentColor"></path>
    <path d="M9.5 9C9.77614 9 10 8.77614 10 8.5C10 8.22386 9.77614 8 9.5 8C9.22386 8 9 8.22386 9 8.5C9 8.77614 9.22386 9 9.5 9Z" fill="currentColor"></path>
    <path fill-rule="evenodd" clip-rule="evenodd" d="M9.5 9C9.77614 9 10 8.77614 10 8.5C10 8.22386 9.77614 8 9.5 8C9.22386 8 9 8.22386 9 8.5C9 8.77614 9.22386 9 9.5 9ZM8 8.5C8 7.67157 8.67157 7 9.5 7C10.3284 7 11 7.67157 11 8.5C11 9.32843 10.3284 10 9.5 10C8.67157 10 8 9.32843 8 8.5Z" fill="currentColor"></path>
    <path d="M14.5 14C14.7761 14 15 13.7761 15 13.5C15 13.2239 14.7761 13 14.5 13C14.2239 13 14 13.2239 14 13.5C14 13.7761 14.2239 14 14.5 14Z" fill="currentColor"></path>
    <path fill-rule="evenodd" clip-rule="evenodd" d="M14.5 14C14.7761 14 15 13.7761 15 13.5C15 13.2239 14.7761 13 14.5 13C14.2239 13 14 13.2239 14 13.5C14 13.7761 14.2239 14 14.5 14ZM13 13.5C13 12.6716 13.6716 12 14.5 12C15.3284 12 16 12.6716 16 13.5C16 14.3284 15.3284 15 14.5 15C13.6716 15 13 14.3284 13 13.5Z" fill="currentColor"></path>
    <path fill-rule="evenodd" clip-rule="evenodd" d="M7 4C6.73478 4 6.48043 4.10536 6.29289 4.29289C6.10536 4.48043 6 4.73478 6 5V19.1315L7.4453 18.1679C7.84192 17.9035 8.37004 17.9558 8.70711 18.2929L10 19.5858L11.2929 18.2929C11.6834 17.9024 12.3166 17.9024 12.7071 18.2929L14 19.5858L15.2929 18.2929C15.63 17.9558 16.1581 17.9035 16.5547 18.1679L18 19.1315V5C18 4.73478 17.8946 4.48043 17.7071 4.29289C17.5196 4.10536 17.2652 4 17 4H7ZM4.87868 2.87868C5.44129 2.31607 6.20435 2 7 2H17C17.7956 2 18.5587 2.31607 19.1213 2.87868C19.6839 3.44129 20 4.20435 20 5V21C20 21.3688 19.797 21.7077 19.4719 21.8817C19.1467 22.0557 18.7522 22.0366 18.4453 21.8321L16.1274 20.2868L14.7071 21.7071C14.3166 22.0976 13.6834 22.0976 13.2929 21.7071L12 20.4142L10.7071 21.7071C10.3166 22.0976 9.68342 22.0976 9.29289 21.7071L7.87258 20.2868L5.5547 21.8321C5.24784 22.0366 4.8533 22.0557 4.52814 21.8817C4.20298 21.7077 4 21.3688 4 21V5C4 4.20435 4.31607 3.44129 4.87868 2.87868Z" fill="currentColor"></path>
  </symbol>
  <symbol fill="none" xmlns="http://www.w3.org/2000/svg" viewBox="0 0 24 24" id="number">
    <path fill-rule="evenodd" clip-rule="evenodd" d="M3.69936 6.04626C4.11564 5.91504 4.56893 6.06896 4.81923 6.42653L10 13.8276V7C10 6.44771 10.4477 6 11 6C11.5523 6 12 6.44771 12 7V17C12 17.4365 11.7169 17.8225 11.3006 17.9537C10.8844 18.085 10.4311 17.931 10.1808 17.5735L5 10.1724V17C5 17.5523 4.55228 18 4 18C3.44772 18 3 17.5523 3 17V7C3 6.56353 3.28308 6.17748 3.69936 6.04626Z" fill="currentColor"></path>
    <path fill-rule="evenodd" clip-rule="evenodd" d="M14 17C14 16.4477 14.4477 16 15 16H20C20.5523 16 21 16.4477 21 17C21 17.5523 20.5523 18 20 18H15C14.4477 18 14 17.5523 14 17Z" fill="currentColor"></path>
    <path fill-rule="evenodd" clip-rule="evenodd" d="M14.964 7.23849C15.6004 6.47485 16.5068 6 17.5 6C18.4932 6 19.3996 6.47485 20.036 7.23849C20.6679 7.99681 21 8.99212 21 10C21 11.0079 20.6679 12.0032 20.036 12.7615C19.3996 13.5251 18.4932 14 17.5 14C16.5068 14 15.6004 13.5251 14.964 12.7615C14.3321 12.0032 14 11.0079 14 10C14 8.99212 14.3321 7.99681 14.964 7.23849ZM17.5 8C17.1671 8 16.8018 8.15728 16.5005 8.51886C16.1947 8.88576 16 9.41658 16 10C16 10.5834 16.1947 11.1142 16.5005 11.4811C16.8018 11.8427 17.1671 12 17.5 12C17.8329 12 18.1982 11.8427 18.4995 11.4811C18.8053 11.1142 19 10.5834 19 10C19 9.41658 18.8053 8.88576 18.4995 8.51886C18.1982 8.15728 17.8329 8 17.5 8Z" fill="currentColor"></path>
  </symbol>
  <symbol fill="none" xmlns="http://www.w3.org/2000/svg" viewBox="0 0 24 24" id="map-pin">
    <path fill-rule="evenodd" clip-rule="evenodd" d="M9.17157 8.17157C9.92172 7.42143 10.9391 7 12 7C13.0609 7 14.0783 7.42143 14.8284 8.17157C15.5786 8.92172 16 9.93913 16 11C16 12.0609 15.5786 13.0783 14.8284 13.8284C14.0783 14.5786 13.0609 15 12 15C10.9391 15 9.92172 14.5786 9.17157 13.8284C8.42143 13.0783 8 12.0609 8 11C8 9.93913 8.42143 8.92172 9.17157 8.17157ZM12 9C11.4696 9 10.9609 9.21071 10.5858 9.58579C10.2107 9.96086 10 10.4696 10 11C10 11.5304 10.2107 12.0391 10.5858 12.4142C10.9609 12.7893 11.4696 13 12 13C12.5304 13 13.0391 12.7893 13.4142 12.4142C13.7893 12.0391 14 11.5304 14 11C14 10.4696 13.7893 9.96086 13.4142 9.58579C13.0391 9.21071 12.5304 9 12 9Z" fill="currentColor"></path>
    <path fill-rule="evenodd" clip-rule="evenodd" d="M12 4.00029C10.6156 4.00029 9.26219 4.41082 8.11105 5.17998C6.95991 5.94913 6.06271 7.04236 5.53288 8.32142C5.00306 9.60048 4.86441 11.0079 5.13448 12.3658C5.40454 13.7236 6.07115 14.9708 7.05003 15.9498L11.2938 20.1925C11.4813 20.3799 11.7355 20.4851 12.0005 20.4851C12.2655 20.4851 12.5197 20.3799 12.7073 20.1925L16.9499 15.9499C17.9288 14.9709 18.5955 13.7236 18.8655 12.3658C19.1356 11.0079 18.997 9.60048 18.4671 8.32142C17.9373 7.04236 17.0401 5.94913 15.889 5.17998C14.7378 4.41082 13.3845 4.00029 12 4.00029ZM6.99992 3.51703C8.47995 2.52812 10.22 2.00029 12 2.00029C13.78 2.00029 15.5201 2.52812 17.0001 3.51703C18.4801 4.50594 19.6337 5.91152 20.3149 7.55603C20.9961 9.20054 21.1743 11.0101 20.8271 12.7559C20.4799 14.5017 19.6228 16.1054 18.3641 17.3641L14.1211 21.6071C13.5586 22.1691 12.7956 22.4851 12.0005 22.4851C11.2054 22.4851 10.4428 22.1694 9.88025 21.6075L5.63598 17.3642C4.37735 16.1055 3.52013 14.5017 3.1729 12.7559C2.82567 11.0101 3.00393 9.20054 3.68513 7.55603C4.36633 5.91152 5.51989 4.50594 6.99992 3.51703Z" fill="currentColor"></path>
  </symbol>
  <symbol fill="none" xmlns="http://www.w3.org/2000/svg" viewBox="0 0 24 24" id="phone">
    <path fill-rule="evenodd" clip-rule="evenodd" d="M5 5C4.73478 5 4.48043 5.10536 4.29289 5.29289C4.11141 5.47438 4.00688 5.71844 4.00033 5.97437C4.23032 9.6183 5.78159 13.0537 8.36394 15.6361C10.9463 18.2184 14.3817 19.7697 18.0256 19.9997C18.2816 19.9931 18.5256 19.8886 18.7071 19.7071C18.8946 19.5196 19 19.2652 19 19V15.677L15.4193 14.2448L14.3575 16.0145C14.0897 16.4608 13.5244 16.6271 13.0577 16.3969C10.6887 15.2285 8.77146 13.3113 7.60314 10.9423C7.37294 10.4756 7.53924 9.91027 7.9855 9.64251L9.75523 8.58067L8.32297 5H5ZM2.87868 3.87868C3.44129 3.31607 4.20435 3 5 3H9C9.4089 3 9.77661 3.24895 9.92848 3.62861L11.9285 8.62861C12.1108 9.08432 11.9354 9.60497 11.5145 9.85749L9.8405 10.8619C10.6644 12.2055 11.7945 13.3356 13.1381 14.1595L14.1425 12.4855C14.395 12.0646 14.9157 11.8892 15.3714 12.0715L20.3714 14.0715C20.751 14.2234 21 14.5911 21 15V19C21 19.7957 20.6839 20.5587 20.1213 21.1213C19.5587 21.6839 18.7957 22 18 22C17.9798 22 17.9595 21.9994 17.9393 21.9982C13.7948 21.7463 9.88576 19.9863 6.94972 17.0503C4.01369 14.1142 2.25371 10.2052 2.00184 6.06066C2.00061 6.04046 2 6.02023 2 6C2 5.20435 2.31607 4.44129 2.87868 3.87868Z" fill="currentColor"></path>
  </symbol>
  <symbol fill="none" xmlns="http://www.w3.org/2000/svg" viewBox="0 0 24 24" id="home">
    <path fill-rule="evenodd" clip-rule="evenodd" d="M11.5939 3.08619C11.8524 2.97127 12.1476 2.97127 12.4061 3.08619L21.4061 7.08619C21.7673 7.24669 22 7.60481 22 8V21C22 21.5523 21.5523 22 21 22C20.4477 22 20 21.5523 20 21V8.64987L12 5.09432L4 8.64987V21C4 21.5523 3.55228 22 3 22C2.44772 22 2 21.5523 2 21V8C2 7.60481 2.23273 7.24669 2.59386 7.08619L11.5939 3.08619Z" fill="currentColor"></path>
    <path fill-rule="evenodd" clip-rule="evenodd" d="M12 13C12 12.4477 12.4477 12 13 12H17C17.5523 12 18 12.4477 18 13V21C18 21.5523 17.5523 22 17 22H7C6.44772 22 6 21.5523 6 21V15C6 14.4477 6.44772 14 7 14H13C13.5523 14 14 14.4477 14 15C14 15.5523 13.5523 16 13 16H8V20H16V14H13C12.4477 14 12 13.5523 12 13Z" fill="currentColor"></path>
    <path fill-rule="evenodd" clip-rule="evenodd" d="M8.58579 10.5858C8.96086 10.2107 9.46957 10 10 10H12C12.5304 10 13.0391 10.2107 13.4142 10.5858C13.7893 10.9609 14 11.4696 14 12V21C14 21.5523 13.5523 22 13 22C12.4477 22 12 21.5523 12 21V12H10V15C10 15.5523 9.55228 16 9 16C8.44772 16 8 15.5523 8 15V12C8 11.4696 8.21071 10.9609 8.58579 10.5858Z" fill="currentColor"></path>
  </symbol>
  <symbol fill="none" xmlns="http://www.w3.org/2000/svg" viewBox="0 0 24 24" id="id">
    <path fill-rule="evenodd" clip-rule="evenodd" d="M6 5C5.46957 5 4.96086 5.21071 4.58579 5.58579C4.21071 5.96086 4 6.46957 4 7V17C4 17.5304 4.21071 18.0391 4.58579 18.4142C4.96086 18.7893 5.46957 19 6 19H18C18.5304 19 19.0391 18.7893 19.4142 18.4142C19.7893 18.0391 20 17.5304 20 17V7C20 6.46957 19.7893 5.96086 19.4142 5.58579C19.0391 5.21071 18.5304 5 18 5H6ZM3.17157 4.17157C3.92172 3.42143 4.93913 3 6 3H18C19.0609 3 20.0783 3.42143 20.8284 4.17157C21.5786 4.92172 22 5.93913 22 7V17C22 18.0609 21.5786 19.0783 20.8284 19.8284C20.0783 20.5786 19.0609 21 18 21H6C4.93913 21 3.92172 20.5786 3.17157 19.8284C2.42143 19.0783 2 18.0609 2 17V7C2 5.93913 2.42143 4.92172 3.17157 4.17157Z" fill="currentColor"></path>
    <path fill-rule="evenodd" clip-rule="evenodd" d="M6.87868 7.87868C7.44129 7.31607 8.20435 7 9 7C9.79565 7 10.5587 7.31607 11.1213 7.87868C11.6839 8.44129 12 9.20435 12 10C12 10.7957 11.6839 11.5587 11.1213 12.1213C10.5587 12.6839 9.79565 13 9 13C8.20435 13 7.44129 12.6839 6.87868 12.1213C6.31607 11.5587 6 10.7956 6 10C6 9.20435 6.31607 8.44129 6.87868 7.87868ZM9 9C8.73478 9 8.48043 9.10536 8.29289 9.29289C8.10536 9.48043 8 9.73478 8 10C8 10.2652 8.10536 10.5196 8.29289 10.7071C8.48043 10.8946 8.73478 11 9 11C9.26522 11 9.51957 10.8946 9.70711 10.7071C9.89464 10.5196 10 10.2652 10 10C10 9.73478 9.89464 9.48043 9.70711 9.29289C9.51957 9.10536 9.26522 9 9 9Z" fill="currentColor"></path>
    <path fill-rule="evenodd" clip-rule="evenodd" d="M14 8C14 7.44772 14.4477 7 15 7H17C17.5523 7 18 7.44772 18 8C18 8.55228 17.5523 9 17 9H15C14.4477 9 14 8.55228 14 8Z" fill="currentColor"></path>
    <path fill-rule="evenodd" clip-rule="evenodd" d="M14 12C14 11.4477 14.4477 11 15 11H17C17.5523 11 18 11.4477 18 12C18 12.5523 17.5523 13 17 13H15C14.4477 13 14 12.5523 14 12Z" fill="currentColor"></path>
    <path fill-rule="evenodd" clip-rule="evenodd" d="M6 16C6 15.4477 6.44772 15 7 15H17C17.5523 15 18 15.4477 18 16C18 16.5523 17.5523 17 17 17H7C6.44772 17 6 16.5523 6 16Z" fill="currentColor"></path>
  </symbol>
  <symbol xmlns="http://www.w3.org/2000/svg" fill="none" stroke="currentColor" stroke-width="2" stroke-linecap="round" stroke-linejoin="round" viewBox="0 0 24 24" id="eye-off">
    <path d="M10.733 5.076a10.744 10.744 0 0 1 11.205 6.575 1 1 0 0 1 0 .696 10.747 10.747 0 0 1-1.444 2.49"></path>
    <path d="M14.084 14.158a3 3 0 0 1-4.242-4.242"></path>
    <path d="M17.479 17.499a10.75 10.75 0 0 1-15.417-5.151 1 1 0 0 1 0-.696 10.75 10.75 0 0 1 4.446-5.143"></path>
    <path d="m2 2 20 20"></path>
  </symbol>
  <symbol fill="none" xmlns="http://www.w3.org/2000/svg" viewBox="0 0 24 24" id="lock">
    <path fill-rule="evenodd" clip-rule="evenodd" d="M7 12C6.73478 12 6.48043 12.1054 6.29289 12.2929C6.10536 12.4804 6 12.7348 6 13V19C6 19.2652 6.10536 19.5196 6.29289 19.7071C6.48043 19.8946 6.73478 20 7 20H17C17.2652 20 17.5196 19.8946 17.7071 19.7071C17.8946 19.5196 18 19.2652 18 19V13C18 12.7348 17.8946 12.4804 17.7071 12.2929C17.5196 12.1054 17.2652 12 17 12H7ZM4.87868 10.8787C5.44129 10.3161 6.20435 10 7 10H17C17.7957 10 18.5587 10.3161 19.1213 10.8787C19.6839 11.4413 20 12.2043 20 13V19C20 19.7957 19.6839 20.5587 19.1213 21.1213C18.5587 21.6839 17.7957 22 17 22H7C6.20435 22 5.44129 21.6839 4.87868 21.1213C4.31607 20.5587 4 19.7957 4 19V13C4 12.2044 4.31607 11.4413 4.87868 10.8787Z" fill="currentColor"></path>
    <path fill-rule="evenodd" clip-rule="evenodd" d="M10.5858 14.5858C10.9609 14.2107 11.4696 14 12 14C12.5304 14 13.0391 14.2107 13.4142 14.5858C13.7893 14.9609 14 15.4696 14 16C14 16.5304 13.7893 17.0391 13.4142 17.4142C13.0391 17.7893 12.5304 18 12 18C11.4696 18 10.9609 17.7893 10.5858 17.4142C10.2107 17.0391 10 16.5304 10 16C10 15.4696 10.2107 14.9609 10.5858 14.5858Z" fill="currentColor"></path>
    <path fill-rule="evenodd" clip-rule="evenodd" d="M12 4C11.2044 4 10.4413 4.31607 9.87868 4.87868C9.31607 5.44129 9 6.20435 9 7V11C9 11.5523 8.55228 12 8 12C7.44772 12 7 11.5523 7 11V7C7 5.67392 7.52678 4.40215 8.46447 3.46447C9.40215 2.52678 10.6739 2 12 2C13.3261 2 14.5979 2.52678 15.5355 3.46447C16.4732 4.40215 17 5.67392 17 7V11C17 11.5523 16.5523 12 16 12C15.4477 12 15 11.5523 15 11V7C15 6.20435 14.6839 5.44129 14.1213 4.87868C13.5587 4.31607 12.7956 4 12 4Z" fill="currentColor"></path>
  </symbol>
  <symbol fill="none" xmlns="http://www.w3.org/2000/svg" viewBox="0 0 24 24" id="mail">
    <path fill-rule="evenodd" clip-rule="evenodd" d="M5 6C4.73478 6 4.48043 6.10536 4.29289 6.29289C4.10536 6.48043 4 6.73478 4 7V17C4 17.2652 4.10536 17.5196 4.29289 17.7071C4.48043 17.8946 4.73478 18 5 18H19C19.2652 18 19.5196 17.8946 19.7071 17.7071C19.8946 17.5196 20 17.2652 20 17V7C20 6.73478 19.8946 6.48043 19.7071 6.29289C19.5196 6.10536 19.2652 6 19 6H5ZM2.87868 4.87868C3.44129 4.31607 4.20435 4 5 4H19C19.7957 4 20.5587 4.31607 21.1213 4.87868C21.6839 5.44129 22 6.20435 22 7V17C22 17.7957 21.6839 18.5587 21.1213 19.1213C20.5587 19.6839 19.7957 20 19 20H5C4.20435 20 3.44129 19.6839 2.87868 19.1213C2.31607 18.5587 2 17.7956 2 17V7C2 6.20435 2.31607 5.44129 2.87868 4.87868Z" fill="currentColor"></path>
    <path fill-rule="evenodd" clip-rule="evenodd" d="M2.16795 6.4453C2.4743 5.98577 3.09517 5.8616 3.5547 6.16795L12 11.7981L20.4453 6.16795C20.9048 5.8616 21.5257 5.98577 21.8321 6.4453C22.1384 6.90483 22.0142 7.5257 21.5547 7.83205L12.5547 13.8321C12.2188 14.056 11.7812 14.056 11.4453 13.8321L2.4453 7.83205C1.98577 7.5257 1.8616 6.90483 2.16795 6.4453Z" fill="currentColor"></path>
  </symbol>
  <symbol fill="none" xmlns="http://www.w3.org/2000/svg" viewBox="0 0 24 24" id="buildings">
    <path fill-rule="evenodd" clip-rule="evenodd" d="M5.33211 5.33211C5.09745 5.56676 5 5.82523 5 6V21C5 21.5523 4.55228 22 4 22C3.44772 22 3 21.5523 3 21V6C3 5.17477 3.40255 4.43324 3.91789 3.91789C4.43324 3.40255 5.17477 3 6 3H11C11.8252 3 12.5668 3.40255 13.0821 3.91789C13.5975 4.43324 14 5.17477 14 6V21C14 21.5523 13.5523 22 13 22C12.4477 22 12 21.5523 12 21V6C12 5.82523 11.9025 5.56676 11.6679 5.33211C11.4332 5.09745 11.1748 5 11 5H6C5.82523 5 5.56676 5.09745 5.33211 5.33211Z" fill="currentColor"></path>
    <path fill-rule="evenodd" clip-rule="evenodd" d="M15 8C15 7.44772 15.4477 7 16 7H18C18.8252 7 19.5668 7.40255 20.0821 7.91789C20.5975 8.43324 21 9.17477 21 10V21C21 21.5523 20.5523 22 20 22C19.4477 22 19 21.5523 19 21V10C19 9.82523 18.9025 9.56676 18.6679 9.33211C18.4332 9.09745 18.1748 9 18 9H16C15.4477 9 15 8.55228 15 8Z" fill="currentColor"></path>
    <path fill-rule="evenodd" clip-rule="evenodd" d="M2 21C2 20.4477 2.44772 20 3 20H21C21.5523 20 22 20.4477 22 21C22 21.5523 21.5523 22 21 22H3C2.44772 22 2 21.5523 2 21Z" fill="currentColor"></path>
    <path d="M8 8C8 8.55228 7.55228 9 7 9C6.44772 9 6 8.55228 6 8C6 7.44772 6.44772 7 7 7C7.55228 7 8 7.44772 8 8Z" fill="currentColor"></path>
    <path d="M8 12C8 12.5523 7.55228 13 7 13C6.44772 13 6 12.5523 6 12C6 11.4477 6.44772 11 7 11C7.55228 11 8 11.4477 8 12Z" fill="currentColor"></path>
    <path d="M8 16C8 16.5523 7.55228 17 7 17C6.44772 17 6 16.5523 6 16C6 15.4477 6.44772 15 7 15C7.55228 15 8 15.4477 8 16Z" fill="currentColor"></path>
    <path d="M11 8C11 8.55228 10.5523 9 10 9C9.44772 9 9 8.55228 9 8C9 7.44772 9.44772 7 10 7C10.5523 7 11 7.44772 11 8Z" fill="currentColor"></path>
    <path d="M11 12C11 12.5523 10.5523 13 10 13C9.44772 13 9 12.5523 9 12C9 11.4477 9.44772 11 10 11C10.5523 11 11 11.4477 11 12Z" fill="currentColor"></path>
    <path d="M17 12C17 12.5523 16.5523 13 16 13C15.4477 13 15 12.5523 15 12C15 11.4477 15.4477 11 16 11C16.5523 11 17 11.4477 17 12Z" fill="currentColor"></path>
    <path d="M11 16C11 16.5523 10.5523 17 10 17C9.44772 17 9 16.5523 9 16C9 15.4477 9.44772 15 10 15C10.5523 15 11 15.4477 11 16Z" fill="currentColor"></path>
    <path d="M17 16C17 16.5523 16.5523 17 16 17C15.4477 17 15 16.5523 15 16C15 15.4477 15.4477 15 16 15C16.5523 15 17 15.4477 17 16Z" fill="currentColor"></path>
  </symbol>
  <symbol fill="none" xmlns="http://www.w3.org/2000/svg" viewBox="0 0 24 24" id="ship">
    <path fill-rule="evenodd" clip-rule="evenodd" d="M1 3C1 2.44772 1.44772 2 2 2H3C3.79565 2 4.55871 2.31607 5.12132 2.87868C5.68393 3.44129 6 4.20435 6 5V15C6 15.2652 6.10536 15.5196 6.29289 15.7071C6.48043 15.8946 6.73478 16 7 16H22C22.5523 16 23 16.4477 23 17C23 17.5523 22.5523 18 22 18H7C6.20435 18 5.44129 17.6839 4.87868 17.1213C4.31607 16.5587 4 15.7956 4 15V5C4 4.73478 3.89464 4.48043 3.70711 4.29289C3.51957 4.10536 3.26522 4 3 4H2C1.44772 4 1 3.55228 1 3Z" fill="currentColor"></path>
    <path fill-rule="evenodd" clip-rule="evenodd" d="M12 7C11.4696 7 10.9609 7.21071 10.5858 7.58579C10.2107 7.96086 10 8.46957 10 9V11C10 11.5304 10.2107 12.0391 10.5858 12.4142C10.9609 12.7893 11.4696 13 12 13H16C16.5304 13 17.0391 12.7893 17.4142 12.4142C17.7893 12.0391 18 11.5304 18 11V9C18 8.46957 17.7893 7.96086 17.4142 7.58579C17.0391 7.21071 16.5304 7 16 7H12ZM9.17157 6.17157C9.92172 5.42143 10.9391 5 12 5H16C17.0609 5 18.0783 5.42143 18.8284 6.17157C19.5786 6.92172 20 7.93913 20 9V11C20 12.0609 19.5786 13.0783 18.8284 13.8284C18.0783 14.5786 17.0609 15 16 15H12C10.9391 15 9.92172 14.5786 9.17157 13.8284C8.42143 13.0783 8 12.0609 8 11V9C8 7.93913 8.42143 6.92172 9.17157 6.17157Z" fill="currentColor"></path>
    <path fill-rule="evenodd" clip-rule="evenodd" d="M6.87868 16.8787C7.44129 16.3161 8.20435 16 9 16C9.79565 16 10.5587 16.3161 11.1213 16.8787C11.6839 17.4413 12 18.2043 12 19C12 19.7957 11.6839 20.5587 11.1213 21.1213C10.5587 21.6839 9.79565 22 9 22C8.20435 22 7.44129 21.6839 6.87868 21.1213C6.31607 20.5587 6 19.7957 6 19C6 18.2043 6.31607 17.4413 6.87868 16.8787ZM9 18C8.73478 18 8.48043 18.1054 8.29289 18.2929C8.10536 18.4804 8 18.7348 8 19C8 19.2652 8.10536 19.5196 8.29289 19.7071C8.48043 19.8946 8.73478 20 9 20C9.26522 20 9.51957 19.8946 9.70711 19.7071C9.89464 19.5196 10 19.2652 10 19C10 18.7348 9.89464 18.4804 9.70711 18.2929C9.51957 18.1054 9.26522 18 9 18Z" fill="currentColor"></path>
    <path fill-rule="evenodd" clip-rule="evenodd" d="M15.8787 16.8787C16.4413 16.3161 17.2043 16 18 16C18.7957 16 19.5587 16.3161 20.1213 16.8787C20.6839 17.4413 21 18.2043 21 19C21 19.7957 20.6839 20.5587 20.1213 21.1213C19.5587 21.6839 18.7957 22 18 22C17.2043 22 16.4413 21.6839 15.8787 21.1213C15.3161 20.5587 15 19.7957 15 19C15 18.2043 15.3161 17.4413 15.8787 16.8787ZM18 18C17.7348 18 17.4804 18.1054 17.2929 18.2929C17.1054 18.4804 17 18.7348 17 19C17 19.2652 17.1054 19.5196 17.2929 19.7071C17.4804 19.8946 17.7348 20 18 20C18.2652 20 18.5196 19.8946 18.7071 19.7071C18.8946 19.5196 19 19.2652 19 19C19 18.7348 18.8946 18.4804 18.7071 18.2929C18.5196 18.1054 18.2652 18 18 18Z" fill="currentColor"></path>
  </symbol>
  <symbol fill="none" xmlns="http://www.w3.org/2000/svg" viewBox="0 0 24 24" id="document">
    <path fill-rule="evenodd" clip-rule="evenodd" d="M19.6546 4.06154L19.9972 2H9C7.93913 2 6.92172 2.42143 6.17157 3.17157C5.42143 3.92172 5 4.93913 5 6V16H4C3.44772 16 3 16.4477 3 17V18C3 19.0609 3.42143 20.0783 4.17157 20.8284C4.92172 21.5786 5.93913 22 7 22H16C16.7957 22 17.5587 21.6839 18.1213 21.1213C18.6839 20.5587 19 19.7957 19 19V8L19.3324 6H19V5C19 4.80222 19.0586 4.60888 19.1685 4.44443C19.2784 4.27998 19.4346 4.15181 19.6173 4.07612C19.6297 4.07101 19.6421 4.06615 19.6546 4.06154ZM9 4H17.1716C17.0586 4.31949 17 4.65753 17 5V19C17 19.2652 16.8946 19.5196 16.7071 19.7071C16.5196 19.8946 16.2652 20 16 20C15.7348 20 15.4804 19.8946 15.2929 19.7071C15.1054 19.5196 15 19.2652 15 19V17C15 16.4477 14.5523 16 14 16H7V6C7 5.46957 7.21071 4.96086 7.58579 4.58579C7.96086 4.21071 8.46957 4 9 4ZM5.58579 19.4142C5.21071 19.0391 5 18.5304 5 18H13V19C13 19.3439 13.0591 19.6818 13.1716 20H7C6.46957 20 5.96086 19.7893 5.58579 19.4142Z" fill="currentColor"></path>
    <path d="M20 6C20.1978 6 20.3911 5.94135 20.5556 5.83147C20.72 5.72159 20.8482 5.56541 20.9239 5.38268C20.9996 5.19996 21.0194 4.99889 20.9808 4.80491C20.9422 4.61093 20.847 4.43275 20.7071 4.29289C20.5673 4.15304 20.3891 4.0578 20.1951 4.01921C20.1305 4.00637 20.0643 4 19.9991 4C19.882 4.0001 19.7653 4.0208 19.6546 4.06154L19.3324 6H20Z" fill="currentColor"></path>
    <path d="M19.6173 4.07612C19.4346 4.15181 19.2784 4.27998 19.1685 4.44443C19.0586 4.60888 19 4.80222 19 5V6H19.3324L19.6546 4.06154C19.6421 4.06615 19.6297 4.07101 19.6173 4.07612Z" fill="currentColor"></path>
    <path fill-rule="evenodd" clip-rule="evenodd" d="M9 7C9 6.44771 9.44772 6 10 6H14C14.5523 6 15 6.44771 15 7C15 7.55228 14.5523 8 14 8H10C9.44772 8 9 7.55228 9 7Z" fill="currentColor"></path>
    <path fill-rule="evenodd" clip-rule="evenodd" d="M9 11C9 10.4477 9.44772 10 10 10H14C14.5523 10 15 10.4477 15 11C15 11.5523 14.5523 12 14 12H10C9.44772 12 9 11.5523 9 11Z" fill="currentColor"></path>
  </symbol>
  <symbol fill="none" xmlns="http://www.w3.org/2000/svg" viewBox="0 0 24 24" id="note">
    <path fill-rule="evenodd" clip-rule="evenodd" d="M20.7071 12.2929C21.0976 12.6834 21.0976 13.3166 20.7071 13.7071L13.7071 20.7071C13.3166 21.0976 12.6834 21.0976 12.2929 20.7071C11.9024 20.3166 11.9024 19.6834 12.2929 19.2929L19.2929 12.2929C19.6834 11.9024 20.3166 11.9024 20.7071 12.2929Z" fill="currentColor"></path>
    <path fill-rule="evenodd" clip-rule="evenodd" d="M3.87868 3.87868C4.44129 3.31607 5.20435 3 6 3H18C18.7956 3 19.5587 3.31607 20.1213 3.87868C20.6839 4.44129 21 5.20435 21 6V13C21 13.5523 20.5523 14 20 14H14V20C14 20.5523 13.5523 21 13 21H6C5.20435 21 4.44129 20.6839 3.87868 20.1213C3.31607 19.5587 3 18.7956 3 18V6C3 5.20435 3.31607 4.44129 3.87868 3.87868ZM6 5C5.73478 5 5.48043 5.10536 5.29289 5.29289C5.10536 5.48043 5 5.73478 5 6V18C5 18.2652 5.10536 18.5196 5.29289 18.7071C5.48043 18.8946 5.73478 19 6 19H12V14C12 13.4696 12.2107 12.9609 12.5858 12.5858C12.9609 12.2107 13.4696 12 14 12H19V6C19 5.73478 18.8946 5.48043 18.7071 5.29289C18.5196 5.10536 18.2652 5 18 5H6Z" fill="currentColor"></path>
  </symbol>
  <symbol fill="none" xmlns="http://www.w3.org/2000/svg" viewBox="0 0 24 24" id="money">
    <path fill-rule="evenodd" clip-rule="evenodd" d="M9 10C8.73478 10 8.48043 10.1054 8.29289 10.2929C8.10536 10.4804 8 10.7348 8 11V17C8 17.2652 8.10536 17.5196 8.29289 17.7071C8.48043 17.8946 8.73478 18 9 18H19C19.2652 18 19.5196 17.8946 19.7071 17.7071C19.8946 17.5196 20 17.2652 20 17V11C20 10.7348 19.8946 10.4804 19.7071 10.2929C19.5196 10.1054 19.2652 10 19 10H9ZM6.87868 8.87868C7.44129 8.31607 8.20435 8 9 8H19C19.7957 8 20.5587 8.31607 21.1213 8.87868C21.6839 9.44129 22 10.2043 22 11V17C22 17.7957 21.6839 18.5587 21.1213 19.1213C20.5587 19.6839 19.7957 20 19 20H9C8.20435 20 7.44129 19.6839 6.87868 19.1213C6.31607 18.5587 6 17.7956 6 17V11C6 10.2044 6.31607 9.44129 6.87868 8.87868Z" fill="currentColor"></path>
    <path fill-rule="evenodd" clip-rule="evenodd" d="M11.8787 11.8787C12.4413 11.3161 13.2043 11 14 11C14.7957 11 15.5587 11.3161 16.1213 11.8787C16.6839 12.4413 17 13.2043 17 14C17 14.7957 16.6839 15.5587 16.1213 16.1213C15.5587 16.6839 14.7957 17 14 17C13.2043 17 12.4413 16.6839 11.8787 16.1213C11.3161 15.5587 11 14.7957 11 14C11 13.2043 11.3161 12.4413 11.8787 11.8787ZM14 13C13.7348 13 13.4804 13.1054 13.2929 13.2929C13.1054 13.4804 13 13.7348 13 14C13 14.2652 13.1054 14.5196 13.2929 14.7071C13.4804 14.8946 13.7348 15 14 15C14.2652 15 14.5196 14.8946 14.7071 14.7071C14.8946 14.5196 15 14.2652 15 14C15 13.7348 14.8946 13.4804 14.7071 13.2929C14.5196 13.1054 14.2652 13 14 13Z" fill="currentColor"></path>
    <path fill-rule="evenodd" clip-rule="evenodd" d="M2.87868 4.87868C3.44129 4.31607 4.20435 4 5 4H15C15.7956 4 16.5587 4.31607 17.1213 4.87868C17.6839 5.44129 18 6.20435 18 7V9C18 9.55228 17.5523 10 17 10C16.4477 10 16 9.55228 16 9V7C16 6.73478 15.8946 6.48043 15.7071 6.29289C15.5196 6.10536 15.2652 6 15 6H5C4.73478 6 4.48043 6.10536 4.29289 6.29289C4.10536 6.48043 4 6.73478 4 7V13C4 13.2652 4.10536 13.5196 4.29289 13.7071C4.48043 13.8946 4.73478 14 5 14H7C7.55228 14 8 14.4477 8 15C8 15.5523 7.55228 16 7 16H5C4.20435 16 3.44129 15.6839 2.87868 15.1213C2.31607 14.5587 2 13.7956 2 13V7C2 6.20435 2.31607 5.44129 2.87868 4.87868Z" fill="currentColor"></path>
  </symbol>
  <symbol fill="none" xmlns="http://www.w3.org/2000/svg" viewBox="0 0 48 48" id="x">
    <path fill-rule="evenodd" clip-rule="evenodd" d="M37.4142 10.5858C38.1953 11.3668 38.1953 12.6332 37.4142 13.4142L13.4142 37.4142C12.6332 38.1953 11.3668 38.1953 10.5858 37.4142C9.80474 36.6332 9.80474 35.3668 10.5858 34.5858L34.5858 10.5858C35.3668 9.80474 36.6332 9.80474 37.4142 10.5858Z" fill="currentColor"></path>
    <path fill-rule="evenodd" clip-rule="evenodd" d="M10.5858 10.5858C11.3668 9.80474 12.6332 9.80474 13.4142 10.5858L37.4142 34.5858C38.1953 35.3668 38.1953 36.6332 37.4142 37.4142C36.6332 38.1953 35.3668 38.1953 34.5858 37.4142L10.5858 13.4142C9.80474 12.6332 9.80474 11.3668 10.5858 10.5858Z" fill="currentColor"></path>
  </symbol>
  <symbol fill="none" xmlns="http://www.w3.org/2000/svg" viewBox="0 0 48 48" id="info">
    <path d="M23.9999 3.33997C25.9099 3.33997 27.6899 4.27397 28.7799 5.83397L28.9899 6.15397L45.2179 33.25C45.7111 34.1041 45.9794 35.0695 45.9977 36.0556C46.0161 37.0417 45.7839 38.0164 45.3228 38.8883C44.8618 39.7603 44.187 40.5009 43.3617 41.0409C42.5364 41.5809 41.5875 41.9027 40.6039 41.976L40.2139 41.992H7.76389C6.77929 41.9809 5.81356 41.7205 4.95683 41.2352C4.1001 40.7498 3.3803 40.0554 2.86462 39.2165C2.34895 38.3777 2.0542 37.4219 2.00791 36.4383C1.96162 35.4548 2.16528 34.4755 2.59989 33.592L2.79789 33.222L19.0179 6.14597C19.5372 5.28959 20.2685 4.5815 21.1411 4.09C22.0138 3.59851 22.9983 3.34019 23.9999 3.33997ZM24.0199 30L23.7659 30.014C23.2798 30.0718 22.8318 30.3059 22.5067 30.6719C22.1817 31.0379 22.0021 31.5104 22.0021 32C22.0021 32.4895 22.1817 32.962 22.5067 33.328C22.8318 33.6941 23.2798 33.9281 23.7659 33.986L23.9999 34L24.2539 33.986C24.74 33.9281 25.188 33.6941 25.5131 33.328C25.8381 32.962 26.0177 32.4895 26.0177 32C26.0177 31.5104 25.8381 31.0379 25.5131 30.6719C25.188 30.3059 24.74 30.0718 24.2539 30.014L24.0199 30ZM23.9999 16C23.51 16 23.0372 16.1799 22.6711 16.5054C22.3051 16.8309 22.0712 17.2795 22.0139 17.766L21.9999 18V26L22.0139 26.234C22.0717 26.7201 22.3058 27.1681 22.6718 27.4931C23.0378 27.8182 23.5104 27.9977 23.9999 27.9977C24.4894 27.9977 24.9619 27.8182 25.328 27.4931C25.694 27.1681 25.9281 26.7201 25.9859 26.234L25.9999 26V18L25.9859 17.766C25.9286 17.2795 25.6947 16.8309 25.3286 16.5054C24.9626 16.1799 24.4898 16 23.9999 16Z" fill="currentColor"></path>
  </symbol>
  <symbol fill="none" xmlns="http://www.w3.org/2000/svg" viewBox="0 0 48 48" id="box">
    <path fill-rule="evenodd" clip-rule="evenodd" d="M23.0193 4.25685C23.6282 3.91438 24.3716 3.91438 24.9804 4.25685L40.9804 13.2568C41.6101 13.6111 41.9999 14.2775 41.9999 15V33C41.9999 33.7225 41.6101 34.3889 40.9804 34.7432L24.9804 43.7432C24.3716 44.0856 23.6282 44.0856 23.0193 43.7432L7.01934 34.7432C6.38959 34.3889 5.99987 33.7225 5.99987 33V15C5.99987 14.2775 6.38959 13.6111 7.01934 13.2568L23.0193 4.25685ZM9.99987 16.1697V31.8303L23.9999 39.7053L37.9999 31.8303V16.1697L23.9999 8.29469L9.99987 16.1697Z" fill="currentColor"></path>
    <path fill-rule="evenodd" clip-rule="evenodd" d="M41.743 14.0195C42.2845 14.9822 41.9431 16.2016 40.9804 16.7432L24.9804 25.7432C24.0177 26.2847 22.7982 25.9432 22.2567 24.9805C21.7152 24.0178 22.0566 22.7984 23.0193 22.2568L39.0193 13.2568C39.9821 12.7153 41.2015 13.0568 41.743 14.0195Z" fill="currentColor"></path>
    <path fill-rule="evenodd" clip-rule="evenodd" d="M23.9999 22C25.1044 22 25.9999 22.8954 25.9999 24V42C25.9999 43.1046 25.1044 44 23.9999 44C22.8953 44 21.9999 43.1046 21.9999 42V24C21.9999 22.8954 22.8953 22 23.9999 22Z" fill="currentColor"></path>
    <path fill-rule="evenodd" clip-rule="evenodd" d="M6.25672 14.0195C6.79824 13.0568 8.01767 12.7153 8.98039 13.2568L24.9804 22.2568C25.9431 22.7984 26.2845 24.0178 25.743 24.9805C25.2015 25.9432 23.9821 26.2847 23.0193 25.7432L7.01934 16.7432C6.05663 16.2016 5.71519 14.9822 6.25672 14.0195Z" fill="currentColor"></path>
    <path fill-rule="evenodd" clip-rule="evenodd" d="M33.743 9.51948C34.2845 10.4822 33.9431 11.7016 32.9804 12.2432L16.9804 21.2432C16.0177 21.7847 14.7982 21.4432 14.2567 20.4805C13.7152 19.5178 14.0566 18.2984 15.0193 17.7568L31.0193 8.75685C31.9821 8.21532 33.2015 8.55676 33.743 9.51948Z" fill="currentColor"></path>
  </symbol>
  <symbol fill="none" xmlns="http://www.w3.org/2000/svg" viewBox="0 0 24 24" id="plus">
    <path fill-rule="evenodd" clip-rule="evenodd" d="M12 4C12.5523 4 13 4.44772 13 5V19C13 19.5523 12.5523 20 12 20C11.4477 20 11 19.5523 11 19V5C11 4.44772 11.4477 4 12 4Z" fill="currentColor"></path>
    <path fill-rule="evenodd" clip-rule="evenodd" d="M4 12C4 11.4477 4.44772 11 5 11H19C19.5523 11 20 11.4477 20 12C20 12.5523 19.5523 13 19 13H5C4.44772 13 4 12.5523 4 12Z" fill="currentColor"></path>
  </symbol>
  <symbol fill="none" xmlns="http://www.w3.org/2000/svg" viewBox="0 0 25 24" id="file-upload">
    <path fill-rule="evenodd" clip-rule="evenodd" d="M14.5 2C15.0523 2 15.5 2.44772 15.5 3V7H19.5C20.0523 7 20.5 7.44772 20.5 8C20.5 8.55228 20.0523 9 19.5 9H15.5C14.9696 9 14.4609 8.78929 14.0858 8.41421C13.7107 8.03914 13.5 7.53043 13.5 7V3C13.5 2.44772 13.9477 2 14.5 2Z" fill="currentColor"></path>
    <path fill-rule="evenodd" clip-rule="evenodd" d="M7.5 4C7.23478 4 6.98043 4.10536 6.79289 4.29289C6.60536 4.48043 6.5 4.73478 6.5 5V19C6.5 19.2652 6.60536 19.5196 6.79289 19.7071C6.98043 19.8946 7.23478 20 7.5 20H17.5C17.7652 20 18.0196 19.8946 18.2071 19.7071C18.3946 19.5196 18.5 19.2652 18.5 19V8.41421L14.0858 4H7.5ZM5.37868 2.87868C5.94129 2.31607 6.70435 2 7.5 2H14.5C14.7652 2 15.0196 2.10536 15.2071 2.29289L20.2071 7.29289C20.3946 7.48043 20.5 7.73478 20.5 8V19C20.5 19.7957 20.1839 20.5587 19.6213 21.1213C19.0587 21.6839 18.2957 22 17.5 22H7.5C6.70435 22 5.94129 21.6839 5.37868 21.1213C4.81607 20.5587 4.5 19.7957 4.5 19V5C4.5 4.20435 4.81607 3.44129 5.37868 2.87868Z" fill="currentColor"></path>
    <path fill-rule="evenodd" clip-rule="evenodd" d="M12.5 10C13.0523 10 13.5 10.4477 13.5 11V17C13.5 17.5523 13.0523 18 12.5 18C11.9477 18 11.5 17.5523 11.5 17V11C11.5 10.4477 11.9477 10 12.5 10Z" fill="currentColor"></path>
    <path fill-rule="evenodd" clip-rule="evenodd" d="M11.7929 10.2929C12.1834 9.90237 12.8166 9.90237 13.2071 10.2929L15.7071 12.7929C16.0976 13.1834 16.0976 13.8166 15.7071 14.2071C15.3166 14.5976 14.6834 14.5976 14.2929 14.2071L12.5 12.4142L10.7071 14.2071C10.3166 14.5976 9.68342 14.5976 9.29289 14.2071C8.90237 13.8166 8.90237 13.1834 9.29289 12.7929L11.7929 10.2929Z" fill="currentColor"></path>
  </symbol>
  <symbol fill="none" xmlns="http://www.w3.org/2000/svg" viewBox="0 0 24 24" id="path">
    <path fill-rule="evenodd" clip-rule="evenodd" d="M2.87868 16.8787C3.44129 16.3161 4.20435 16 5 16C5.79565 16 6.55871 16.3161 7.12132 16.8787C7.68393 17.4413 8 18.2043 8 19C8 19.7957 7.68393 20.5587 7.12132 21.1213C6.55871 21.6839 5.79565 22 5 22C4.20435 22 3.44129 21.6839 2.87868 21.1213C2.31607 20.5587 2 19.7957 2 19C2 18.2043 2.31607 17.4413 2.87868 16.8787ZM5 18C4.73478 18 4.48043 18.1054 4.29289 18.2929C4.10536 18.4804 4 18.7348 4 19C4 19.2652 4.10536 19.5196 4.29289 19.7071C4.48043 19.8946 4.73478 20 5 20C5.26522 20 5.51957 19.8946 5.70711 19.7071C5.89464 19.5196 6 19.2652 6 19C6 18.7348 5.89464 18.4804 5.70711 18.2929C5.51957 18.1054 5.26522 18 5 18Z" fill="currentColor"></path>
    <path fill-rule="evenodd" clip-rule="evenodd" d="M16.8787 2.87868C17.4413 2.31607 18.2043 2 19 2C19.7957 2 20.5587 2.31607 21.1213 2.87868C21.6839 3.44129 22 4.20435 22 5C22 5.79565 21.6839 6.55871 21.1213 7.12132C20.5587 7.68393 19.7957 8 19 8C18.2043 8 17.4413 7.68393 16.8787 7.12132C16.3161 6.55871 16 5.79565 16 5C16 4.20435 16.3161 3.44129 16.8787 2.87868ZM19 4C18.7348 4 18.4804 4.10536 18.2929 4.29289C18.1054 4.48043 18 4.73478 18 5C18 5.26522 18.1054 5.51957 18.2929 5.70711C18.4804 5.89464 18.7348 6 19 6C19.2652 6 19.5196 5.89464 19.7071 5.70711C19.8946 5.51957 20 5.26522 20 5C20 4.73478 19.8946 4.48043 19.7071 4.29289C19.5196 4.10536 19.2652 4 19 4Z" fill="currentColor"></path>
    <path fill-rule="evenodd" clip-rule="evenodd" d="M8.5 6C7.83696 6 7.20107 6.26339 6.73223 6.73223C6.26339 7.20107 6 7.83696 6 8.5C6 9.16304 6.26339 9.79893 6.73223 10.2678C7.20107 10.7366 7.83696 11 8.5 11H16.5C17.6935 11 18.8381 11.4741 19.682 12.318C20.5259 13.1619 21 14.3065 21 15.5C21 16.6935 20.5259 17.8381 19.682 18.682C18.8381 19.5259 17.6935 20 16.5 20H11C10.4477 20 10 19.5523 10 19C10 18.4477 10.4477 18 11 18H16.5C17.163 18 17.7989 17.7366 18.2678 17.2678C18.7366 16.7989 19 16.163 19 15.5C19 14.837 18.7366 14.2011 18.2678 13.7322C17.7989 13.2634 17.163 13 16.5 13H8.5C7.30653 13 6.16193 12.5259 5.31802 11.682C4.47411 10.8381 4 9.69347 4 8.5C4 7.30653 4.47411 6.16193 5.31802 5.31802C6.16193 4.47411 7.30653 4 8.5 4H13C13.5523 4 14 4.44772 14 5C14 5.55228 13.5523 6 13 6H8.5Z" fill="currentColor"></path>
  </symbol>
  <symbol fill="none" xmlns="http://www.w3.org/2000/svg" viewBox="0 0 24 24" id="carrier">
    <path fill-rule="evenodd" clip-rule="evenodd" d="M1 3C1 2.44772 1.44772 2 2 2H3C3.79565 2 4.55871 2.31607 5.12132 2.87868C5.68393 3.44129 6 4.20435 6 5V15C6 15.2652 6.10536 15.5196 6.29289 15.7071C6.48043 15.8946 6.73478 16 7 16H22C22.5523 16 23 16.4477 23 17C23 17.5523 22.5523 18 22 18H7C6.20435 18 5.44129 17.6839 4.87868 17.1213C4.31607 16.5587 4 15.7956 4 15V5C4 4.73478 3.89464 4.48043 3.70711 4.29289C3.51957 4.10536 3.26522 4 3 4H2C1.44772 4 1 3.55228 1 3Z" fill="currentColor"></path>
    <path fill-rule="evenodd" clip-rule="evenodd" d="M12 7C11.4696 7 10.9609 7.21071 10.5858 7.58579C10.2107 7.96086 10 8.46957 10 9V11C10 11.5304 10.2107 12.0391 10.5858 12.4142C10.9609 12.7893 11.4696 13 12 13H16C16.5304 13 17.0391 12.7893 17.4142 12.4142C17.7893 12.0391 18 11.5304 18 11V9C18 8.46957 17.7893 7.96086 17.4142 7.58579C17.0391 7.21071 16.5304 7 16 7H12ZM9.17157 6.17157C9.92172 5.42143 10.9391 5 12 5H16C17.0609 5 18.0783 5.42143 18.8284 6.17157C19.5786 6.92172 20 7.93913 20 9V11C20 12.0609 19.5786 13.0783 18.8284 13.8284C18.0783 14.5786 17.0609 15 16 15H12C10.9391 15 9.92172 14.5786 9.17157 13.8284C8.42143 13.0783 8 12.0609 8 11V9C8 7.93913 8.42143 6.92172 9.17157 6.17157Z" fill="currentColor"></path>
    <path fill-rule="evenodd" clip-rule="evenodd" d="M6.87868 16.8787C7.44129 16.3161 8.20435 16 9 16C9.79565 16 10.5587 16.3161 11.1213 16.8787C11.6839 17.4413 12 18.2043 12 19C12 19.7957 11.6839 20.5587 11.1213 21.1213C10.5587 21.6839 9.79565 22 9 22C8.20435 22 7.44129 21.6839 6.87868 21.1213C6.31607 20.5587 6 19.7957 6 19C6 18.2043 6.31607 17.4413 6.87868 16.8787ZM9 18C8.73478 18 8.48043 18.1054 8.29289 18.2929C8.10536 18.4804 8 18.7348 8 19C8 19.2652 8.10536 19.5196 8.29289 19.7071C8.48043 19.8946 8.73478 20 9 20C9.26522 20 9.51957 19.8946 9.70711 19.7071C9.89464 19.5196 10 19.2652 10 19C10 18.7348 9.89464 18.4804 9.70711 18.2929C9.51957 18.1054 9.26522 18 9 18Z" fill="currentColor"></path>
    <path fill-rule="evenodd" clip-rule="evenodd" d="M15.8787 16.8787C16.4413 16.3161 17.2043 16 18 16C18.7957 16 19.5587 16.3161 20.1213 16.8787C20.6839 17.4413 21 18.2043 21 19C21 19.7957 20.6839 20.5587 20.1213 21.1213C19.5587 21.6839 18.7957 22 18 22C17.2043 22 16.4413 21.6839 15.8787 21.1213C15.3161 20.5587 15 19.7957 15 19C15 18.2043 15.3161 17.4413 15.8787 16.8787ZM18 18C17.7348 18 17.4804 18.1054 17.2929 18.2929C17.1054 18.4804 17 18.7348 17 19C17 19.2652 17.1054 19.5196 17.2929 19.7071C17.4804 19.8946 17.7348 20 18 20C18.2652 20 18.5196 19.8946 18.7071 19.7071C18.8946 19.5196 19 19.2652 19 19C19 18.7348 18.8946 18.4804 18.7071 18.2929C18.5196 18.1054 18.2652 18 18 18Z" fill="currentColor"></path>
  </symbol>
  <symbol fill="none" xmlns="http://www.w3.org/2000/svg" viewBox="0 0 24 24" id="chevron-down">
    <path fill-rule="evenodd" clip-rule="evenodd" d="M5.29289 8.29289C5.68342 7.90237 6.31658 7.90237 6.70711 8.29289L12 13.5858L17.2929 8.29289C17.6834 7.90237 18.3166 7.90237 18.7071 8.29289C19.0976 8.68342 19.0976 9.31658 18.7071 9.70711L12.7071 15.7071C12.3166 16.0976 11.6834 16.0976 11.2929 15.7071L5.29289 9.70711C4.90237 9.31658 4.90237 8.68342 5.29289 8.29289Z" fill="currentColor"></path>
  </symbol>
  <symbol fill="none" xmlns="http://www.w3.org/2000/svg" viewBox="0 0 24 24" id="logs">
    <path fill-rule="evenodd" clip-rule="evenodd" d="M12 7.00006C11.4477 7.00006 11 7.44778 11 8.00006V11.5858L9.29291 13.293C8.90239 13.6835 8.90239 14.3166 9.29291 14.7072C9.68344 15.0977 10.3166 15.0977 10.7071 14.7072L12.7071 12.7072C12.8947 12.5196 13 12.2653 13 12.0001V8.00006C13 7.44778 12.5523 7.00006 12 7.00006Z" fill="currentColor"></path>
    <path fill-rule="evenodd" clip-rule="evenodd" d="M6.73622 5.88455C8.21721 4.59213 10.1222 3.89018 12.0877 3.91263C14.0532 3.93508 15.9416 4.68036 17.3927 6.00627C18.8438 7.33217 19.7559 9.1459 19.9551 11.1014C20.0111 11.6508 20.5019 12.0509 21.0513 11.9949C21.6008 11.939 22.0008 11.4482 21.9448 10.8987C21.6958 8.45435 20.5556 6.18719 18.7418 4.5298C16.9279 2.87242 14.5674 1.94082 12.1105 1.91276C9.65364 1.8847 7.27243 2.76213 5.4212 4.37766C3.56996 5.99318 2.37828 8.23371 2.07352 10.6718C1.76877 13.1098 2.37226 15.5747 3.76887 17.5962C5.16548 19.6178 7.25744 21.0543 9.64562 21.6319C12.0338 22.2095 14.551 21.8876 16.717 20.7277C17.9897 20.0462 19.0888 19.1033 19.95 17.9734V20.0001C19.95 20.5524 20.3977 21.0001 20.95 21.0001C21.5023 21.0001 21.95 20.5524 21.95 20.0001V15.0001C21.95 14.4478 21.5023 14.0001 20.95 14.0001H20.4733C20.4578 13.9997 20.4423 13.9997 20.4268 14.0001H15.95C15.3977 14.0001 14.95 14.4478 14.95 15.0001C14.95 15.5524 15.3977 16.0001 15.95 16.0001H18.873C18.1335 17.244 17.065 18.2726 15.7729 18.9646C14.0401 19.8925 12.0263 20.15 10.1158 19.6879C8.20521 19.2259 6.53164 18.0766 5.41436 16.4594C4.29707 14.8422 3.81427 12.8703 4.05808 10.9198C4.30189 8.96939 5.25523 7.17697 6.73622 5.88455Z" fill="currentColor"></path>
  </symbol>
  <symbol fill="none" xmlns="http://www.w3.org/2000/svg" viewBox="0 0 24 24" id="users">
    <path fill-rule="evenodd" clip-rule="evenodd" d="M9.87868 10.8787C10.4413 10.3161 11.2043 10 12 10C12.7957 10 13.5587 10.3161 14.1213 10.8787C14.6839 11.4413 15 12.2043 15 13C15 13.7957 14.6839 14.5587 14.1213 15.1213C13.5587 15.6839 12.7957 16 12 16C11.2043 16 10.4413 15.6839 9.87868 15.1213C9.31607 14.5587 9 13.7957 9 13C9 12.2043 9.31607 11.4413 9.87868 10.8787ZM12 12C11.7348 12 11.4804 12.1054 11.2929 12.2929C11.1054 12.4804 11 12.7348 11 13C11 13.2652 11.1054 13.5196 11.2929 13.7071C11.4804 13.8946 11.7348 14 12 14C12.2652 14 12.5196 13.8946 12.7071 13.7071C12.8946 13.5196 13 13.2652 13 13C13 12.7348 12.8946 12.4804 12.7071 12.2929C12.5196 12.1054 12.2652 12 12 12Z" fill="currentColor"></path>
    <path fill-rule="evenodd" clip-rule="evenodd" d="M10 19C9.73478 19 9.48043 19.1054 9.29289 19.2929C9.10536 19.4804 9 19.7348 9 20V21C9 21.5523 8.55228 22 8 22C7.44772 22 7 21.5523 7 21V20C7 19.2043 7.31607 18.4413 7.87868 17.8787C8.44129 17.3161 9.20435 17 10 17H14C14.7957 17 15.5587 17.3161 16.1213 17.8787C16.6839 18.4413 17 19.2043 17 20V21C17 21.5523 16.5523 22 16 22C15.4477 22 15 21.5523 15 21V20C15 19.7348 14.8946 19.4804 14.7071 19.2929C14.5196 19.1054 14.2652 19 14 19H10Z" fill="currentColor"></path>
    <path fill-rule="evenodd" clip-rule="evenodd" d="M14.8787 2.87868C15.4413 2.31607 16.2044 2 17 2C17.7956 2 18.5587 2.31607 19.1213 2.87868C19.6839 3.44129 20 4.20435 20 5C20 5.79565 19.6839 6.55871 19.1213 7.12132C18.5587 7.68393 17.7956 8 17 8C16.2044 8 15.4413 7.68393 14.8787 7.12132C14.3161 6.55871 14 5.79565 14 5C14 4.20435 14.3161 3.44129 14.8787 2.87868ZM17 4C16.7348 4 16.4804 4.10536 16.2929 4.29289C16.1054 4.48043 16 4.73478 16 5C16 5.26522 16.1054 5.51957 16.2929 5.70711C16.4804 5.89464 16.7348 6 17 6C17.2652 6 17.5196 5.89464 17.7071 5.70711C17.8946 5.51957 18 5.26522 18 5C18 4.73478 17.8946 4.48043 17.7071 4.29289C17.5196 4.10536 17.2652 4 17 4Z" fill="currentColor"></path>
    <path fill-rule="evenodd" clip-rule="evenodd" d="M16 10C16 9.44772 16.4477 9 17 9H19C19.7957 9 20.5587 9.31607 21.1213 9.87868C21.6839 10.4413 22 11.2043 22 12V13C22 13.5523 21.5523 14 21 14C20.4477 14 20 13.5523 20 13V12C20 11.7348 19.8946 11.4804 19.7071 11.2929C19.5196 11.1054 19.2652 11 19 11H17C16.4477 11 16 10.5523 16 10Z" fill="currentColor"></path>
    <path fill-rule="evenodd" clip-rule="evenodd" d="M4.87868 2.87868C5.44129 2.31607 6.20435 2 7 2C7.79565 2 8.55871 2.31607 9.12132 2.87868C9.68393 3.44129 10 4.20435 10 5C10 5.79565 9.68393 6.55871 9.12132 7.12132C8.55871 7.68393 7.79565 8 7 8C6.20435 8 5.44129 7.68393 4.87868 7.12132C4.31607 6.55871 4 5.79565 4 5C4 4.20435 4.31607 3.44129 4.87868 2.87868ZM7 4C6.73478 4 6.48043 4.10536 6.29289 4.29289C6.10536 4.48043 6 4.73478 6 5C6 5.26522 6.10536 5.51957 6.29289 5.70711C6.48043 5.89464 6.73478 6 7 6C7.26522 6 7.51957 5.89464 7.70711 5.70711C7.89464 5.51957 8 5.26522 8 5C8 4.73478 7.89464 4.48043 7.70711 4.29289C7.51957 4.10536 7.26522 4 7 4Z" fill="currentColor"></path>
    <path fill-rule="evenodd" clip-rule="evenodd" d="M5 11C4.73478 11 4.48043 11.1054 4.29289 11.2929C4.10536 11.4804 4 11.7348 4 12V13C4 13.5523 3.55228 14 3 14C2.44772 14 2 13.5523 2 13V12C2 11.2044 2.31607 10.4413 2.87868 9.87868C3.44129 9.31607 4.20435 9 5 9H7C7.55228 9 8 9.44772 8 10C8 10.5523 7.55228 11 7 11H5Z" fill="currentColor"></path>
  </symbol>
  <symbol fill="none" xmlns="http://www.w3.org/2000/svg" viewBox="0 0 24 24" id="reports">
    <path fill-rule="evenodd" clip-rule="evenodd" d="M14 2C14.5523 2 15 2.44772 15 3V7H19C19.5523 7 20 7.44772 20 8C20 8.55228 19.5523 9 19 9H15C14.4696 9 13.9609 8.78929 13.5858 8.41421C13.2107 8.03914 13 7.53043 13 7V3C13 2.44772 13.4477 2 14 2Z" fill="currentColor"></path>
    <path fill-rule="evenodd" clip-rule="evenodd" d="M7 4C6.73478 4 6.48043 4.10536 6.29289 4.29289C6.10536 4.48043 6 4.73478 6 5V19C6 19.2652 6.10536 19.5196 6.29289 19.7071C6.48043 19.8946 6.73478 20 7 20H17C17.2652 20 17.5196 19.8946 17.7071 19.7071C17.8946 19.5196 18 19.2652 18 19V8.41421L13.5858 4H7ZM4.87868 2.87868C5.44129 2.31607 6.20435 2 7 2H14C14.2652 2 14.5196 2.10536 14.7071 2.29289L19.7071 7.29289C19.8946 7.48043 20 7.73478 20 8V19C20 19.7957 19.6839 20.5587 19.1213 21.1213C18.5587 21.6839 17.7957 22 17 22H7C6.20435 22 5.44129 21.6839 4.87868 21.1213C4.31607 20.5587 4 19.7957 4 19V5C4 4.20435 4.31607 3.44129 4.87868 2.87868Z" fill="currentColor"></path>
    <path fill-rule="evenodd" clip-rule="evenodd" d="M9 11C9.55228 11 10 11.4477 10 12V17C10 17.5523 9.55228 18 9 18C8.44772 18 8 17.5523 8 17V12C8 11.4477 8.44772 11 9 11Z" fill="currentColor"></path>
    <path fill-rule="evenodd" clip-rule="evenodd" d="M12 15C12.5523 15 13 15.4477 13 16V17C13 17.5523 12.5523 18 12 18C11.4477 18 11 17.5523 11 17V16C11 15.4477 11.4477 15 12 15Z" fill="currentColor"></path>
    <path fill-rule="evenodd" clip-rule="evenodd" d="M15 13C15.5523 13 16 13.4477 16 14V17C16 17.5523 15.5523 18 15 18C14.4477 18 14 17.5523 14 17V14C14 13.4477 14.4477 13 15 13Z" fill="currentColor"></path>
  </symbol>
  <symbol fill="none" xmlns="http://www.w3.org/2000/svg" viewBox="0 0 24 24" id="dashboard">
    <path fill-rule="evenodd" clip-rule="evenodd" d="M6 5C5.73478 5 5.48043 5.10536 5.29289 5.29289C5.10536 5.48043 5 5.73478 5 6V7C5 7.26522 5.10536 7.51957 5.29289 7.70711C5.48043 7.89464 5.73478 8 6 8H8C8.26522 8 8.51957 7.89464 8.70711 7.70711C8.89464 7.51957 9 7.26522 9 7V6C9 5.73478 8.89464 5.48043 8.70711 5.29289C8.51957 5.10536 8.26522 5 8 5H6ZM3.87868 3.87868C4.44129 3.31607 5.20435 3 6 3H8C8.79565 3 9.55871 3.31607 10.1213 3.87868C10.6839 4.44129 11 5.20435 11 6V7C11 7.79565 10.6839 8.55871 10.1213 9.12132C9.55871 9.68393 8.79565 10 8 10H6C5.20435 10 4.44129 9.68393 3.87868 9.12132C3.31607 8.55871 3 7.79565 3 7V6C3 5.20435 3.31607 4.44129 3.87868 3.87868Z" fill="currentColor"></path>
    <path fill-rule="evenodd" clip-rule="evenodd" d="M6 14C5.73478 14 5.48043 14.1054 5.29289 14.2929C5.10536 14.4804 5 14.7348 5 15V18C5 18.2652 5.10536 18.5196 5.29289 18.7071C5.48043 18.8946 5.73478 19 6 19H8C8.26522 19 8.51957 18.8946 8.70711 18.7071C8.89464 18.5196 9 18.2652 9 18V15C9 14.7348 8.89464 14.4804 8.70711 14.2929C8.51957 14.1054 8.26522 14 8 14H6ZM3.87868 12.8787C4.44129 12.3161 5.20435 12 6 12H8C8.79565 12 9.55871 12.3161 10.1213 12.8787C10.6839 13.4413 11 14.2043 11 15V18C11 18.7957 10.6839 19.5587 10.1213 20.1213C9.55871 20.6839 8.79565 21 8 21H6C5.20435 21 4.44129 20.6839 3.87868 20.1213C3.31607 19.5587 3 18.7956 3 18V15C3 14.2044 3.31607 13.4413 3.87868 12.8787Z" fill="currentColor"></path>
    <path fill-rule="evenodd" clip-rule="evenodd" d="M16 5C15.7348 5 15.4804 5.10536 15.2929 5.29289C15.1054 5.48043 15 5.73478 15 6V18C15 18.2652 15.1054 18.5196 15.2929 18.7071C15.4804 18.8946 15.7348 19 16 19H18C18.2652 19 18.5196 18.8946 18.7071 18.7071C18.8946 18.5196 19 18.2652 19 18V6C19 5.73478 18.8946 5.48043 18.7071 5.29289C18.5196 5.10536 18.2652 5 18 5H16ZM13.8787 3.87868C14.4413 3.31607 15.2044 3 16 3H18C18.7956 3 19.5587 3.31607 20.1213 3.87868C20.6839 4.44129 21 5.20435 21 6V18C21 18.7957 20.6839 19.5587 20.1213 20.1213C19.5587 20.6839 18.7957 21 18 21H16C15.2043 21 14.4413 20.6839 13.8787 20.1213C13.3161 19.5587 13 18.7957 13 18V6C13 5.20435 13.3161 4.44129 13.8787 3.87868Z" fill="currentColor"></path>
  </symbol>
  <symbol fill="none" xmlns="http://www.w3.org/2000/svg" viewBox="0 0 24 24" id="settings">
    <path fill-rule="evenodd" clip-rule="evenodd" d="M9.17168 9.17157C9.92182 8.42143 10.9392 8 12.0001 8C13.061 8 14.0784 8.42143 14.8285 9.17157C15.5787 9.92172 16.0001 10.9391 16.0001 12C16.0001 13.0609 15.5787 14.0783 14.8285 14.8284C14.0784 15.5786 13.061 16 12.0001 16C10.9392 16 9.92182 15.5786 9.17168 14.8284C8.42153 14.0783 8.00011 13.0609 8.00011 12C8.00011 10.9391 8.42153 9.92172 9.17168 9.17157ZM12.0001 10C11.4697 10 10.961 10.2107 10.5859 10.5858C10.2108 10.9609 10.0001 11.4696 10.0001 12C10.0001 12.5304 10.2108 13.0391 10.5859 13.4142C10.961 13.7893 11.4697 14 12.0001 14C12.5305 14 13.0392 13.7893 13.4143 13.4142C13.7894 13.0391 14.0001 12.5304 14.0001 12C14.0001 11.4696 13.7894 10.9609 13.4143 10.5858C13.0392 10.2107 12.5305 10 12.0001 10Z" fill="currentColor"></path>
    <path d="M17.3732 15.5611C17.4064 15.9887 17.54 16.4024 17.7633 16.7686L17.3732 15.5611Z" fill="currentColor"></path>
    <path d="M17.5725 14.3079C17.4084 14.7041 17.3401 15.1335 17.3732 15.5611L17.5725 14.3079Z" fill="currentColor"></path>
    <path d="M18.3179 13.281C17.9921 13.5598 17.7367 13.9117 17.5725 14.3079L18.3179 13.281Z" fill="currentColor"></path>
    <path d="M19.4476 12.7031C19.0309 12.8041 18.6437 13.0022 18.3179 13.281L19.4476 12.7031Z" fill="currentColor"></path>
    <path d="M17.4212 8.10676C17.3989 8.21635 17.3833 8.3275 17.3746 8.4396C17.3415 8.8669 17.4097 9.29598 17.5737 9.69195C17.7377 10.0879 17.9928 10.4396 18.3182 10.7185C18.5293 10.8993 18.7661 11.0461 19.02 11.1547L19.9189 9.35319C19.8135 9.32749 19.7154 9.27848 19.6316 9.20985L17.4212 8.10676Z" fill="currentColor"></path>
    <path d="M12.7032 4.55248C12.8042 4.96919 13.0023 5.35645 13.2811 5.68222C13.5403 5.98513 13.8626 6.22716 14.225 6.3916L12.7032 4.55248Z" fill="currentColor"></path>
    <path d="M6.64069 6.16007C6.82295 6.1009 7.03275 6.11419 7.23359 6.23646C7.45426 6.37063 7.68414 6.4694 7.91754 6.53515L11.0247 5.24789C11.0728 5.16202 11.1166 5.07272 11.1558 4.98016L9.35342 4.08071C9.2371 4.55757 8.69455 4.78399 8.27271 4.52759L6.64069 6.16007Z" fill="currentColor"></path>
    <path d="M8.27271 4.52759C5.83367 3.0433 3.04383 5.83421 4.5291 8.27226L6.16075 6.64015C6.23349 6.41574 6.4162 6.23295 6.64069 6.16007L8.27271 4.52759Z" fill="currentColor"></path>
    <path d="M4.55286 11.2968L6.23692 7.23142C6.11509 7.03124 6.1018 6.82203 6.16075 6.64015L4.5291 8.27226C4.58844 8.36959 4.62416 8.47987 4.63297 8.59352C4.64178 8.70716 4.62363 8.82129 4.58 8.92659C4.53637 9.0319 4.46849 9.12542 4.38189 9.19954C4.29529 9.27366 4.19241 9.32628 4.08162 9.35312L4.08127 11.6598C4.16832 11.4901 4.32553 11.352 4.55286 11.2968Z" fill="currentColor"></path>
    <path d="M6.62698 8.43891C6.59384 8.01144 6.46007 7.59752 6.23692 7.23142L4.55286 11.2968C4.96957 11.1958 5.35656 10.9978 5.68232 10.719C6.00816 10.4402 6.26355 10.0883 6.4277 9.6921C6.59186 9.29588 6.66014 8.86651 6.62698 8.43891Z" fill="currentColor"></path>
    <path d="M4.08162 9.35312C1.30681 10.0263 1.30636 13.9731 4.08081 14.6467L4.08116 12.3402C3.97323 12.1297 3.97328 11.8704 4.08127 11.6598L4.08162 9.35312Z" fill="currentColor"></path>
    <path d="M4.08081 14.6467C4.18652 14.6724 4.28501 14.7216 4.369 14.7905L5.85643 15.5327L5.03716 12.8705C4.88181 12.7999 4.71968 12.7438 4.55286 12.7032C4.32542 12.648 4.16819 12.51 4.08116 12.3402L4.08081 14.6467Z" fill="currentColor"></path>
    <path d="M6.4265 14.308C6.26254 13.9121 6.00746 13.5604 5.68199 13.2815C5.48689 13.1144 5.26962 12.9762 5.03716 12.8705L5.85643 15.5327L6.57903 15.8933C6.60134 15.7837 6.61693 15.6725 6.62561 15.5604C6.65868 15.1331 6.59047 14.704 6.4265 14.308Z" fill="currentColor"></path>
    <path d="M4.38077 14.8004C4.46728 14.8745 4.53507 14.9679 4.57865 15.0732C4.62223 15.1784 4.64036 15.2925 4.63157 15.4061C4.62278 15.5196 4.58732 15.6295 4.52806 15.7268C3.04308 18.166 5.83415 20.9564 8.27237 19.471C8.3697 19.4117 8.47998 19.3759 8.59362 19.3671C8.70727 19.3583 8.82139 19.3765 8.9267 19.4201C9.03201 19.4637 9.12553 19.5316 9.19965 19.6182C9.27376 19.7048 9.32639 19.8077 9.35323 19.9185C10.0264 22.6933 13.9732 22.6937 14.6468 19.9193L12.8453 19.0203C12.7865 19.1579 12.739 19.3004 12.7034 19.4467C12.5247 20.1836 11.476 20.1843 11.297 19.4475L8.43902 17.3731L7.23153 17.7632C6.58388 18.1573 5.84155 17.4157 6.23626 16.767L5.85643 15.5327L4.369 14.7905L4.38077 14.8004Z" fill="currentColor"></path>
    <path d="M5.85643 15.5327L6.23626 16.767C6.40064 16.4971 6.51635 16.2014 6.57903 15.8933L5.85643 15.5327Z" fill="currentColor"></path>
    <path d="M9.69221 17.5724C9.29599 17.4082 8.86661 17.34 8.43902 17.3731L11.297 19.4475C11.196 19.0308 10.9979 18.6436 10.7191 18.3178C10.4403 17.9919 10.0884 17.7366 9.69221 17.5724Z" fill="currentColor"></path>
    <path d="M8.43902 17.3731C8.01155 17.4063 7.59762 17.54 7.23153 17.7632L8.43902 17.3731Z" fill="currentColor"></path>
    <path d="M14.6468 19.9193C14.6725 19.8138 14.7218 19.715 14.7906 19.6312L15.8164 17.5752L12.9783 18.7509C12.9291 18.8382 12.8846 18.9281 12.8453 19.0203L14.6468 19.9193Z" fill="currentColor"></path>
    <path d="M15.5605 17.3745C15.1332 17.3414 14.7041 17.4096 14.3082 17.5736C13.9122 17.7376 13.5605 17.9926 13.2816 18.3181C13.1664 18.4527 13.0649 18.5977 12.9783 18.7509L15.8164 17.5752L15.8933 17.421C15.7837 17.3988 15.6726 17.3832 15.5605 17.3745Z" fill="currentColor"></path>
    <path d="M19.4468 11.2967C20.1837 11.4755 20.1844 12.5241 19.4476 12.7031L18.3179 13.281L17.5725 14.3079L17.3732 15.5611L17.7633 16.7686C18.1574 17.4162 17.416 18.1587 16.7673 17.764C16.5523 17.633 16.321 17.5329 16.08 17.4659L15.8164 17.5752L14.7906 19.6312L14.8005 19.6193C14.8746 19.5328 14.9681 19.465 15.0733 19.4215C15.1785 19.3779 15.2926 19.3597 15.4062 19.3685C15.5197 19.3773 15.6298 19.4129 15.7271 19.4722C18.1662 20.9571 20.9563 18.1656 19.4709 15.7274C19.4116 15.6301 19.3761 15.5201 19.3672 15.4065C19.3584 15.2928 19.3766 15.1787 19.4202 15.0734C19.4638 14.9681 19.5317 14.8746 19.6183 14.8005C19.7049 14.7263 19.8081 14.6737 19.9189 14.6468C22.6937 13.9737 22.6933 10.0268 19.9189 9.35319L19.02 11.1547C19.1577 11.2135 19.3004 11.2611 19.4468 11.2967Z" fill="currentColor"></path>
    <path d="M15.8164 17.5752L16.08 17.4659C16.0184 17.4488 15.9561 17.4338 15.8933 17.421L15.8164 17.5752Z" fill="currentColor"></path>
    <path d="M11.2969 4.55276C11.4757 3.81584 12.5242 3.81575 12.7032 4.55248L14.225 6.3916C14.2525 6.40405 14.2801 6.41605 14.308 6.4276C14.7042 6.59175 15.1336 6.66003 15.5612 6.62688C15.9888 6.59372 16.4025 6.46008 16.7687 6.23681C17.4163 5.84266 18.1588 6.58411 17.7641 7.2328C17.5996 7.5028 17.4839 7.79862 17.4212 8.10676L19.6316 9.20985L19.6194 9.19964C19.5329 9.12553 19.4651 9.03205 19.4216 8.92681C19.378 8.82156 19.3598 8.70752 19.3686 8.59395C19.3774 8.48038 19.413 8.3703 19.4723 8.27302C20.9572 5.83386 18.1657 3.04382 15.7275 4.52919C15.6302 4.58853 15.5202 4.62405 15.4066 4.63286C15.2929 4.64167 15.1788 4.62352 15.0735 4.5799C14.9682 4.53627 14.8747 4.46839 14.8006 4.38178C14.7264 4.29518 14.6738 4.19202 14.6469 4.08124C13.9738 1.30643 10.027 1.30625 9.35342 4.08071L11.1558 4.98016C11.2132 4.84455 11.2606 4.70191 11.2969 4.55276Z" fill="currentColor"></path>
    <path d="M7.91754 6.53515L11.0247 5.24789C10.4148 6.33671 9.11954 6.87379 7.91754 6.53515Z" fill="currentColor"></path>
  </symbol>
</svg>