<svg width="24" height="24" viewBox="0 0 24 24" fill="none" xmlns="http://www.w3.org/2000/svg">
<path fill-rule="evenodd" clip-rule="evenodd" d="M12 4C11.7348 4 11.4804 4.10536 11.2929 4.29289C11.1053 4.48043 11 4.73478 11 5C11 5.38669 10.777 5.73873 10.4274 5.90403C9.44309 6.36948 8.60395 7.09402 7.99997 8C7.40016 8.89972 7.05471 9.94469 6.99997 11.0244V14C6.99997 14.0402 6.99755 14.0803 6.99272 14.1202C6.91247 14.7832 6.70037 15.4222 6.37018 16H17.6298C17.2996 15.4222 17.0875 14.7832 17.0072 14.1202C17.0024 14.0803 17 14.0402 17 14V11.0244C16.9452 9.9447 16.5998 8.89972 16 8C15.396 7.09402 14.5568 6.36948 13.5725 5.90403C13.2229 5.73873 13 5.38669 13 5C13 4.73478 12.8946 4.48043 12.7071 4.29289C12.5195 4.10536 12.2652 4 12 4ZM9.87865 2.87868C10.4413 2.31607 11.2043 2 12 2C12.7956 2 13.5587 2.31607 14.1213 2.87868C14.5295 3.28688 14.8079 3.80059 14.93 4.35572C16.0259 4.97224 16.9636 5.83991 17.6641 6.8906C18.4694 8.09857 18.9308 9.50291 18.9989 10.9531C18.9996 10.9687 19 10.9844 19 11V13.9354C19.0624 14.3815 19.2247 14.8082 19.4748 15.1834C19.7354 15.5742 20.084 15.8984 20.4927 16.1298C20.8879 16.3536 21.0827 16.8156 20.967 17.2548C20.8513 17.694 20.4541 18 20 18H3.99997C3.54581 18 3.14868 17.694 3.03297 17.2548C2.91726 16.8156 3.11202 16.3536 3.50722 16.1298C3.91592 15.8984 4.26457 15.5742 4.52511 15.1834C4.77528 14.8082 4.93749 14.3815 4.99997 13.9353V11C4.99997 10.9844 5.00034 10.9687 5.00107 10.9531C5.06914 9.50291 5.53056 8.09857 6.33587 6.8906C7.03633 5.83991 7.974 4.97224 9.06996 4.35572C9.19204 3.80059 9.47045 3.28688 9.87865 2.87868Z" fill="#151E3F"/>
<path fill-rule="evenodd" clip-rule="evenodd" d="M8.99997 16C9.55225 16 9.99997 16.4477 9.99997 17V18C9.99997 18.5304 10.2107 19.0391 10.5858 19.4142C10.9608 19.7893 11.4695 20 12 20C12.5304 20 13.0391 19.7893 13.4142 19.4142C13.7893 19.0391 14 18.5304 14 18V17C14 16.4477 14.4477 16 15 16C15.5523 16 16 16.4477 16 17V18C16 19.0609 15.5785 20.0783 14.8284 20.8284C14.0783 21.5786 13.0608 22 12 22C10.9391 22 9.92169 21.5786 9.17154 20.8284C8.4214 20.0783 7.99997 19.0609 7.99997 18V17C7.99997 16.4477 8.44769 16 8.99997 16Z" fill="#151E3F"/>
</svg>
