<svg width="48" height="48" viewBox="0 0 48 48" fill="none" xmlns="http://www.w3.org/2000/svg">
<path fill-rule="evenodd" clip-rule="evenodd" d="M23.0193 4.25685C23.6282 3.91438 24.3716 3.91438 24.9804 4.25685L40.9804 13.2568C41.6101 13.6111 41.9999 14.2775 41.9999 15V33C41.9999 33.7225 41.6101 34.3889 40.9804 34.7432L24.9804 43.7432C24.3716 44.0856 23.6282 44.0856 23.0193 43.7432L7.01934 34.7432C6.38959 34.3889 5.99987 33.7225 5.99987 33V15C5.99987 14.2775 6.38959 13.6111 7.01934 13.2568L23.0193 4.25685ZM9.99987 16.1697V31.8303L23.9999 39.7053L37.9999 31.8303V16.1697L23.9999 8.29469L9.99987 16.1697Z" fill="#151E3F"/>
<path fill-rule="evenodd" clip-rule="evenodd" d="M41.743 14.0195C42.2845 14.9822 41.9431 16.2016 40.9804 16.7432L24.9804 25.7432C24.0177 26.2847 22.7982 25.9432 22.2567 24.9805C21.7152 24.0178 22.0566 22.7984 23.0193 22.2568L39.0193 13.2568C39.9821 12.7153 41.2015 13.0568 41.743 14.0195Z" fill="#151E3F"/>
<path fill-rule="evenodd" clip-rule="evenodd" d="M23.9999 22C25.1044 22 25.9999 22.8954 25.9999 24V42C25.9999 43.1046 25.1044 44 23.9999 44C22.8953 44 21.9999 43.1046 21.9999 42V24C21.9999 22.8954 22.8953 22 23.9999 22Z" fill="#151E3F"/>
<path fill-rule="evenodd" clip-rule="evenodd" d="M6.25672 14.0195C6.79824 13.0568 8.01767 12.7153 8.98039 13.2568L24.9804 22.2568C25.9431 22.7984 26.2845 24.0178 25.743 24.9805C25.2015 25.9432 23.9821 26.2847 23.0193 25.7432L7.01934 16.7432C6.05663 16.2016 5.71519 14.9822 6.25672 14.0195Z" fill="#151E3F"/>
<path fill-rule="evenodd" clip-rule="evenodd" d="M33.743 9.51948C34.2845 10.4822 33.9431 11.7016 32.9804 12.2432L16.9804 21.2432C16.0177 21.7847 14.7982 21.4432 14.2567 20.4805C13.7152 19.5178 14.0566 18.2984 15.0193 17.7568L31.0193 8.75685C31.9821 8.21532 33.2015 8.55676 33.743 9.51948Z" fill="#151E3F"/>
</svg>
