<svg width="24" height="24" viewBox="0 0 24 24" fill="none" xmlns="http://www.w3.org/2000/svg">
<path fill-rule="evenodd" clip-rule="evenodd" d="M5.33211 5.33211C5.09745 5.56676 5 5.82523 5 6V21C5 21.5523 4.55228 22 4 22C3.44772 22 3 21.5523 3 21V6C3 5.17477 3.40255 4.43324 3.91789 3.91789C4.43324 3.40255 5.17477 3 6 3H11C11.8252 3 12.5668 3.40255 13.0821 3.91789C13.5975 4.43324 14 5.17477 14 6V21C14 21.5523 13.5523 22 13 22C12.4477 22 12 21.5523 12 21V6C12 5.82523 11.9025 5.56676 11.6679 5.33211C11.4332 5.09745 11.1748 5 11 5H6C5.82523 5 5.56676 5.09745 5.33211 5.33211Z" fill="#151E3F"/>
<path fill-rule="evenodd" clip-rule="evenodd" d="M15 8C15 7.44772 15.4477 7 16 7H18C18.8252 7 19.5668 7.40255 20.0821 7.91789C20.5975 8.43324 21 9.17477 21 10V21C21 21.5523 20.5523 22 20 22C19.4477 22 19 21.5523 19 21V10C19 9.82523 18.9025 9.56676 18.6679 9.33211C18.4332 9.09745 18.1748 9 18 9H16C15.4477 9 15 8.55228 15 8Z" fill="#151E3F"/>
<path fill-rule="evenodd" clip-rule="evenodd" d="M2 21C2 20.4477 2.44772 20 3 20H21C21.5523 20 22 20.4477 22 21C22 21.5523 21.5523 22 21 22H3C2.44772 22 2 21.5523 2 21Z" fill="#151E3F"/>
<path d="M8 8C8 8.55228 7.55228 9 7 9C6.44772 9 6 8.55228 6 8C6 7.44772 6.44772 7 7 7C7.55228 7 8 7.44772 8 8Z" fill="#151E3F"/>
<path d="M8 12C8 12.5523 7.55228 13 7 13C6.44772 13 6 12.5523 6 12C6 11.4477 6.44772 11 7 11C7.55228 11 8 11.4477 8 12Z" fill="#151E3F"/>
<path d="M8 16C8 16.5523 7.55228 17 7 17C6.44772 17 6 16.5523 6 16C6 15.4477 6.44772 15 7 15C7.55228 15 8 15.4477 8 16Z" fill="#151E3F"/>
<path d="M11 8C11 8.55228 10.5523 9 10 9C9.44772 9 9 8.55228 9 8C9 7.44772 9.44772 7 10 7C10.5523 7 11 7.44772 11 8Z" fill="#151E3F"/>
<path d="M11 12C11 12.5523 10.5523 13 10 13C9.44772 13 9 12.5523 9 12C9 11.4477 9.44772 11 10 11C10.5523 11 11 11.4477 11 12Z" fill="#151E3F"/>
<path d="M17 12C17 12.5523 16.5523 13 16 13C15.4477 13 15 12.5523 15 12C15 11.4477 15.4477 11 16 11C16.5523 11 17 11.4477 17 12Z" fill="#151E3F"/>
<path d="M11 16C11 16.5523 10.5523 17 10 17C9.44772 17 9 16.5523 9 16C9 15.4477 9.44772 15 10 15C10.5523 15 11 15.4477 11 16Z" fill="#151E3F"/>
<path d="M17 16C17 16.5523 16.5523 17 16 17C15.4477 17 15 16.5523 15 16C15 15.4477 15.4477 15 16 15C16.5523 15 17 15.4477 17 16Z" fill="#151E3F"/>
</svg>
