<svg width="24" height="24" viewBox="0 0 24 24" fill="none" xmlns="http://www.w3.org/2000/svg">
<path fill-rule="evenodd" clip-rule="evenodd" d="M1 3C1 2.44772 1.44772 2 2 2H3C3.79565 2 4.55871 2.31607 5.12132 2.87868C5.68393 3.44129 6 4.20435 6 5V15C6 15.2652 6.10536 15.5196 6.29289 15.7071C6.48043 15.8946 6.73478 16 7 16H22C22.5523 16 23 16.4477 23 17C23 17.5523 22.5523 18 22 18H7C6.20435 18 5.44129 17.6839 4.87868 17.1213C4.31607 16.5587 4 15.7956 4 15V5C4 4.73478 3.89464 4.48043 3.70711 4.29289C3.51957 4.10536 3.26522 4 3 4H2C1.44772 4 1 3.55228 1 3Z" fill="#151E3F"/>
<path fill-rule="evenodd" clip-rule="evenodd" d="M12 7C11.4696 7 10.9609 7.21071 10.5858 7.58579C10.2107 7.96086 10 8.46957 10 9V11C10 11.5304 10.2107 12.0391 10.5858 12.4142C10.9609 12.7893 11.4696 13 12 13H16C16.5304 13 17.0391 12.7893 17.4142 12.4142C17.7893 12.0391 18 11.5304 18 11V9C18 8.46957 17.7893 7.96086 17.4142 7.58579C17.0391 7.21071 16.5304 7 16 7H12ZM9.17157 6.17157C9.92172 5.42143 10.9391 5 12 5H16C17.0609 5 18.0783 5.42143 18.8284 6.17157C19.5786 6.92172 20 7.93913 20 9V11C20 12.0609 19.5786 13.0783 18.8284 13.8284C18.0783 14.5786 17.0609 15 16 15H12C10.9391 15 9.92172 14.5786 9.17157 13.8284C8.42143 13.0783 8 12.0609 8 11V9C8 7.93913 8.42143 6.92172 9.17157 6.17157Z" fill="#151E3F"/>
<path fill-rule="evenodd" clip-rule="evenodd" d="M6.87868 16.8787C7.44129 16.3161 8.20435 16 9 16C9.79565 16 10.5587 16.3161 11.1213 16.8787C11.6839 17.4413 12 18.2043 12 19C12 19.7957 11.6839 20.5587 11.1213 21.1213C10.5587 21.6839 9.79565 22 9 22C8.20435 22 7.44129 21.6839 6.87868 21.1213C6.31607 20.5587 6 19.7957 6 19C6 18.2043 6.31607 17.4413 6.87868 16.8787ZM9 18C8.73478 18 8.48043 18.1054 8.29289 18.2929C8.10536 18.4804 8 18.7348 8 19C8 19.2652 8.10536 19.5196 8.29289 19.7071C8.48043 19.8946 8.73478 20 9 20C9.26522 20 9.51957 19.8946 9.70711 19.7071C9.89464 19.5196 10 19.2652 10 19C10 18.7348 9.89464 18.4804 9.70711 18.2929C9.51957 18.1054 9.26522 18 9 18Z" fill="#151E3F"/>
<path fill-rule="evenodd" clip-rule="evenodd" d="M15.8787 16.8787C16.4413 16.3161 17.2043 16 18 16C18.7957 16 19.5587 16.3161 20.1213 16.8787C20.6839 17.4413 21 18.2043 21 19C21 19.7957 20.6839 20.5587 20.1213 21.1213C19.5587 21.6839 18.7957 22 18 22C17.2043 22 16.4413 21.6839 15.8787 21.1213C15.3161 20.5587 15 19.7957 15 19C15 18.2043 15.3161 17.4413 15.8787 16.8787ZM18 18C17.7348 18 17.4804 18.1054 17.2929 18.2929C17.1054 18.4804 17 18.7348 17 19C17 19.2652 17.1054 19.5196 17.2929 19.7071C17.4804 19.8946 17.7348 20 18 20C18.2652 20 18.5196 19.8946 18.7071 19.7071C18.8946 19.5196 19 19.2652 19 19C19 18.7348 18.8946 18.4804 18.7071 18.2929C18.5196 18.1054 18.2652 18 18 18Z" fill="#151E3F"/>
</svg>
