<svg width="24" height="24" viewBox="0 0 24 24" fill="none" xmlns="http://www.w3.org/2000/svg">
<path fill-rule="evenodd" clip-rule="evenodd" d="M6 5C5.73478 5 5.48043 5.10536 5.29289 5.29289C5.10536 5.48043 5 5.73478 5 6V7C5 7.26522 5.10536 7.51957 5.29289 7.70711C5.48043 7.89464 5.73478 8 6 8H8C8.26522 8 8.51957 7.89464 8.70711 7.70711C8.89464 7.51957 9 7.26522 9 7V6C9 5.73478 8.89464 5.48043 8.70711 5.29289C8.51957 5.10536 8.26522 5 8 5H6ZM3.87868 3.87868C4.44129 3.31607 5.20435 3 6 3H8C8.79565 3 9.55871 3.31607 10.1213 3.87868C10.6839 4.44129 11 5.20435 11 6V7C11 7.79565 10.6839 8.55871 10.1213 9.12132C9.55871 9.68393 8.79565 10 8 10H6C5.20435 10 4.44129 9.68393 3.87868 9.12132C3.31607 8.55871 3 7.79565 3 7V6C3 5.20435 3.31607 4.44129 3.87868 3.87868Z" fill="#151E3F"/>
<path fill-rule="evenodd" clip-rule="evenodd" d="M6 14C5.73478 14 5.48043 14.1054 5.29289 14.2929C5.10536 14.4804 5 14.7348 5 15V18C5 18.2652 5.10536 18.5196 5.29289 18.7071C5.48043 18.8946 5.73478 19 6 19H8C8.26522 19 8.51957 18.8946 8.70711 18.7071C8.89464 18.5196 9 18.2652 9 18V15C9 14.7348 8.89464 14.4804 8.70711 14.2929C8.51957 14.1054 8.26522 14 8 14H6ZM3.87868 12.8787C4.44129 12.3161 5.20435 12 6 12H8C8.79565 12 9.55871 12.3161 10.1213 12.8787C10.6839 13.4413 11 14.2043 11 15V18C11 18.7957 10.6839 19.5587 10.1213 20.1213C9.55871 20.6839 8.79565 21 8 21H6C5.20435 21 4.44129 20.6839 3.87868 20.1213C3.31607 19.5587 3 18.7956 3 18V15C3 14.2044 3.31607 13.4413 3.87868 12.8787Z" fill="#151E3F"/>
<path fill-rule="evenodd" clip-rule="evenodd" d="M16 5C15.7348 5 15.4804 5.10536 15.2929 5.29289C15.1054 5.48043 15 5.73478 15 6V18C15 18.2652 15.1054 18.5196 15.2929 18.7071C15.4804 18.8946 15.7348 19 16 19H18C18.2652 19 18.5196 18.8946 18.7071 18.7071C18.8946 18.5196 19 18.2652 19 18V6C19 5.73478 18.8946 5.48043 18.7071 5.29289C18.5196 5.10536 18.2652 5 18 5H16ZM13.8787 3.87868C14.4413 3.31607 15.2044 3 16 3H18C18.7956 3 19.5587 3.31607 20.1213 3.87868C20.6839 4.44129 21 5.20435 21 6V18C21 18.7957 20.6839 19.5587 20.1213 20.1213C19.5587 20.6839 18.7957 21 18 21H16C15.2043 21 14.4413 20.6839 13.8787 20.1213C13.3161 19.5587 13 18.7957 13 18V6C13 5.20435 13.3161 4.44129 13.8787 3.87868Z" fill="#151E3F"/>
</svg>
