<svg width="24" height="24" viewBox="0 0 24 24" fill="none" xmlns="http://www.w3.org/2000/svg">
<path fill-rule="evenodd" clip-rule="evenodd" d="M19.6546 4.06154L19.9972 2H9C7.93913 2 6.92172 2.42143 6.17157 3.17157C5.42143 3.92172 5 4.93913 5 6V16H4C3.44772 16 3 16.4477 3 17V18C3 19.0609 3.42143 20.0783 4.17157 20.8284C4.92172 21.5786 5.93913 22 7 22H16C16.7957 22 17.5587 21.6839 18.1213 21.1213C18.6839 20.5587 19 19.7957 19 19V8L19.3324 6H19V5C19 4.80222 19.0586 4.60888 19.1685 4.44443C19.2784 4.27998 19.4346 4.15181 19.6173 4.07612C19.6297 4.07101 19.6421 4.06615 19.6546 4.06154ZM9 4H17.1716C17.0586 4.31949 17 4.65753 17 5V19C17 19.2652 16.8946 19.5196 16.7071 19.7071C16.5196 19.8946 16.2652 20 16 20C15.7348 20 15.4804 19.8946 15.2929 19.7071C15.1054 19.5196 15 19.2652 15 19V17C15 16.4477 14.5523 16 14 16H7V6C7 5.46957 7.21071 4.96086 7.58579 4.58579C7.96086 4.21071 8.46957 4 9 4ZM5.58579 19.4142C5.21071 19.0391 5 18.5304 5 18H13V19C13 19.3439 13.0591 19.6818 13.1716 20H7C6.46957 20 5.96086 19.7893 5.58579 19.4142Z" fill="#151E3F"/>
<path d="M20 6C20.1978 6 20.3911 5.94135 20.5556 5.83147C20.72 5.72159 20.8482 5.56541 20.9239 5.38268C20.9996 5.19996 21.0194 4.99889 20.9808 4.80491C20.9422 4.61093 20.847 4.43275 20.7071 4.29289C20.5673 4.15304 20.3891 4.0578 20.1951 4.01921C20.1305 4.00637 20.0643 4 19.9991 4C19.882 4.0001 19.7653 4.0208 19.6546 4.06154L19.3324 6H20Z" fill="#151E3F"/>
<path d="M19.6173 4.07612C19.4346 4.15181 19.2784 4.27998 19.1685 4.44443C19.0586 4.60888 19 4.80222 19 5V6H19.3324L19.6546 4.06154C19.6421 4.06615 19.6297 4.07101 19.6173 4.07612Z" fill="#151E3F"/>
<path fill-rule="evenodd" clip-rule="evenodd" d="M9 7C9 6.44771 9.44772 6 10 6H14C14.5523 6 15 6.44771 15 7C15 7.55228 14.5523 8 14 8H10C9.44772 8 9 7.55228 9 7Z" fill="#151E3F"/>
<path fill-rule="evenodd" clip-rule="evenodd" d="M9 11C9 10.4477 9.44772 10 10 10H14C14.5523 10 15 10.4477 15 11C15 11.5523 14.5523 12 14 12H10C9.44772 12 9 11.5523 9 11Z" fill="#151E3F"/>
</svg>
