<svg width="20" height="20" viewBox="0 0 20 20" fill="none" xmlns="http://www.w3.org/2000/svg">
<path fill-rule="evenodd" clip-rule="evenodd" d="M3.23223 5.73168C3.70107 5.26284 4.33696 4.99945 5 4.99945H5.83333C6.29357 4.99945 6.66667 5.37255 6.66667 5.83278C6.66667 6.29302 6.29357 6.66612 5.83333 6.66612H5C4.77899 6.66612 4.56702 6.75391 4.41074 6.91019C4.25446 7.06648 4.16667 7.27844 4.16667 7.49945V14.9995C4.16667 15.2205 4.25446 15.4324 4.41074 15.5887C4.56702 15.745 4.77899 15.8328 5 15.8328H12.5C12.721 15.8328 12.933 15.745 13.0893 15.5887C13.2455 15.4324 13.3333 15.2205 13.3333 14.9995V14.1661C13.3333 13.7059 13.7064 13.3328 14.1667 13.3328C14.6269 13.3328 15 13.7059 15 14.1661V14.9995C15 15.6625 14.7366 16.2984 14.2678 16.7672C13.7989 17.2361 13.163 17.4995 12.5 17.4995H5C4.33696 17.4995 3.70107 17.2361 3.23223 16.7672C2.76339 16.2984 2.5 15.6625 2.5 14.9995V7.49945C2.5 6.83641 2.76339 6.20052 3.23223 5.73168Z" fill="#151E3F"/>
<path fill-rule="evenodd" clip-rule="evenodd" d="M13.9239 2.42204C14.4083 1.93795 15.0651 1.66602 15.75 1.66602C16.4352 1.66602 17.0923 1.9382 17.5768 2.42268C18.0612 2.90717 18.3334 3.56427 18.3334 4.24944C18.3334 4.93428 18.0615 5.59109 17.5774 6.07552L17.5768 6.07619L10.5903 13.0876C10.4339 13.2446 10.2215 13.3328 10 13.3328H7.5C7.03976 13.3328 6.66667 12.9597 6.66667 12.4994V9.99944C6.66667 9.77791 6.75487 9.5655 6.9118 9.40913L13.9232 2.42268L13.9239 2.42204ZM15.75 3.33268C15.5069 3.33268 15.2737 3.42927 15.1018 3.60119L8.33333 10.3455V11.6661H9.65395L16.3982 4.89768C16.5702 4.72576 16.6668 4.49258 16.6668 4.24944C16.6668 4.0063 16.5702 3.77312 16.3982 3.60119C16.2263 3.42927 15.9931 3.33268 15.75 3.33268Z" fill="#151E3F"/>
<path fill-rule="evenodd" clip-rule="evenodd" d="M12.7441 3.57686C13.0695 3.25142 13.5972 3.25142 13.9226 3.57686L16.4226 6.07686C16.748 6.4023 16.748 6.92994 16.4226 7.25537C16.0972 7.58081 15.5695 7.58081 15.2441 7.25537L12.7441 4.75537C12.4186 4.42994 12.4186 3.9023 12.7441 3.57686Z" fill="#151E3F"/>
</svg>
