<svg width="25" height="24" viewBox="0 0 25 24" fill="none" xmlns="http://www.w3.org/2000/svg">
<path fill-rule="evenodd" clip-rule="evenodd" d="M14.5 2C15.0523 2 15.5 2.44772 15.5 3V7H19.5C20.0523 7 20.5 7.44772 20.5 8C20.5 8.55228 20.0523 9 19.5 9H15.5C14.9696 9 14.4609 8.78929 14.0858 8.41421C13.7107 8.03914 13.5 7.53043 13.5 7V3C13.5 2.44772 13.9477 2 14.5 2Z" fill="#818799"/>
<path fill-rule="evenodd" clip-rule="evenodd" d="M7.5 4C7.23478 4 6.98043 4.10536 6.79289 4.29289C6.60536 4.48043 6.5 4.73478 6.5 5V19C6.5 19.2652 6.60536 19.5196 6.79289 19.7071C6.98043 19.8946 7.23478 20 7.5 20H17.5C17.7652 20 18.0196 19.8946 18.2071 19.7071C18.3946 19.5196 18.5 19.2652 18.5 19V8.41421L14.0858 4H7.5ZM5.37868 2.87868C5.94129 2.31607 6.70435 2 7.5 2H14.5C14.7652 2 15.0196 2.10536 15.2071 2.29289L20.2071 7.29289C20.3946 7.48043 20.5 7.73478 20.5 8V19C20.5 19.7957 20.1839 20.5587 19.6213 21.1213C19.0587 21.6839 18.2957 22 17.5 22H7.5C6.70435 22 5.94129 21.6839 5.37868 21.1213C4.81607 20.5587 4.5 19.7957 4.5 19V5C4.5 4.20435 4.81607 3.44129 5.37868 2.87868Z" fill="#818799"/>
<path fill-rule="evenodd" clip-rule="evenodd" d="M12.5 10C13.0523 10 13.5 10.4477 13.5 11V17C13.5 17.5523 13.0523 18 12.5 18C11.9477 18 11.5 17.5523 11.5 17V11C11.5 10.4477 11.9477 10 12.5 10Z" fill="#818799"/>
<path fill-rule="evenodd" clip-rule="evenodd" d="M11.7929 10.2929C12.1834 9.90237 12.8166 9.90237 13.2071 10.2929L15.7071 12.7929C16.0976 13.1834 16.0976 13.8166 15.7071 14.2071C15.3166 14.5976 14.6834 14.5976 14.2929 14.2071L12.5 12.4142L10.7071 14.2071C10.3166 14.5976 9.68342 14.5976 9.29289 14.2071C8.90237 13.8166 8.90237 13.1834 9.29289 12.7929L11.7929 10.2929Z" fill="#818799"/>
</svg>
