<svg width="24" height="24" viewBox="0 0 24 24" fill="none" xmlns="http://www.w3.org/2000/svg">
<path fill-rule="evenodd" clip-rule="evenodd" d="M6 5C5.46957 5 4.96086 5.21071 4.58579 5.58579C4.21071 5.96086 4 6.46957 4 7V17C4 17.5304 4.21071 18.0391 4.58579 18.4142C4.96086 18.7893 5.46957 19 6 19H18C18.5304 19 19.0391 18.7893 19.4142 18.4142C19.7893 18.0391 20 17.5304 20 17V7C20 6.46957 19.7893 5.96086 19.4142 5.58579C19.0391 5.21071 18.5304 5 18 5H6ZM3.17157 4.17157C3.92172 3.42143 4.93913 3 6 3H18C19.0609 3 20.0783 3.42143 20.8284 4.17157C21.5786 4.92172 22 5.93913 22 7V17C22 18.0609 21.5786 19.0783 20.8284 19.8284C20.0783 20.5786 19.0609 21 18 21H6C4.93913 21 3.92172 20.5786 3.17157 19.8284C2.42143 19.0783 2 18.0609 2 17V7C2 5.93913 2.42143 4.92172 3.17157 4.17157Z" fill="#151E3F"/>
<path fill-rule="evenodd" clip-rule="evenodd" d="M6.87868 7.87868C7.44129 7.31607 8.20435 7 9 7C9.79565 7 10.5587 7.31607 11.1213 7.87868C11.6839 8.44129 12 9.20435 12 10C12 10.7957 11.6839 11.5587 11.1213 12.1213C10.5587 12.6839 9.79565 13 9 13C8.20435 13 7.44129 12.6839 6.87868 12.1213C6.31607 11.5587 6 10.7956 6 10C6 9.20435 6.31607 8.44129 6.87868 7.87868ZM9 9C8.73478 9 8.48043 9.10536 8.29289 9.29289C8.10536 9.48043 8 9.73478 8 10C8 10.2652 8.10536 10.5196 8.29289 10.7071C8.48043 10.8946 8.73478 11 9 11C9.26522 11 9.51957 10.8946 9.70711 10.7071C9.89464 10.5196 10 10.2652 10 10C10 9.73478 9.89464 9.48043 9.70711 9.29289C9.51957 9.10536 9.26522 9 9 9Z" fill="#151E3F"/>
<path fill-rule="evenodd" clip-rule="evenodd" d="M14 8C14 7.44772 14.4477 7 15 7H17C17.5523 7 18 7.44772 18 8C18 8.55228 17.5523 9 17 9H15C14.4477 9 14 8.55228 14 8Z" fill="#151E3F"/>
<path fill-rule="evenodd" clip-rule="evenodd" d="M14 12C14 11.4477 14.4477 11 15 11H17C17.5523 11 18 11.4477 18 12C18 12.5523 17.5523 13 17 13H15C14.4477 13 14 12.5523 14 12Z" fill="#151E3F"/>
<path fill-rule="evenodd" clip-rule="evenodd" d="M6 16C6 15.4477 6.44772 15 7 15H17C17.5523 15 18 15.4477 18 16C18 16.5523 17.5523 17 17 17H7C6.44772 17 6 16.5523 6 16Z" fill="#151E3F"/>
</svg>
