<svg width="48" height="48" viewBox="0 0 48 48" fill="none" xmlns="http://www.w3.org/2000/svg">
<path d="M23.9999 3.33997C25.9099 3.33997 27.6899 4.27397 28.7799 5.83397L28.9899 6.15397L45.2179 33.25C45.7111 34.1041 45.9794 35.0695 45.9977 36.0556C46.0161 37.0417 45.7839 38.0164 45.3228 38.8883C44.8618 39.7603 44.187 40.5009 43.3617 41.0409C42.5364 41.5809 41.5875 41.9027 40.6039 41.976L40.2139 41.992H7.76389C6.77929 41.9809 5.81356 41.7205 4.95683 41.2352C4.1001 40.7498 3.3803 40.0554 2.86462 39.2165C2.34895 38.3777 2.0542 37.4219 2.00791 36.4383C1.96162 35.4548 2.16528 34.4755 2.59989 33.592L2.79789 33.222L19.0179 6.14597C19.5372 5.28959 20.2685 4.5815 21.1411 4.09C22.0138 3.59851 22.9983 3.34019 23.9999 3.33997ZM24.0199 30L23.7659 30.014C23.2798 30.0718 22.8318 30.3059 22.5067 30.6719C22.1817 31.0379 22.0021 31.5104 22.0021 32C22.0021 32.4895 22.1817 32.962 22.5067 33.328C22.8318 33.6941 23.2798 33.9281 23.7659 33.986L23.9999 34L24.2539 33.986C24.74 33.9281 25.188 33.6941 25.5131 33.328C25.8381 32.962 26.0177 32.4895 26.0177 32C26.0177 31.5104 25.8381 31.0379 25.5131 30.6719C25.188 30.3059 24.74 30.0718 24.2539 30.014L24.0199 30ZM23.9999 16C23.51 16 23.0372 16.1799 22.6711 16.5054C22.3051 16.8309 22.0712 17.2795 22.0139 17.766L21.9999 18V26L22.0139 26.234C22.0717 26.7201 22.3058 27.1681 22.6718 27.4931C23.0378 27.8182 23.5104 27.9977 23.9999 27.9977C24.4894 27.9977 24.9619 27.8182 25.328 27.4931C25.694 27.1681 25.9281 26.7201 25.9859 26.234L25.9999 26V18L25.9859 17.766C25.9286 17.2795 25.6947 16.8309 25.3286 16.5054C24.9626 16.1799 24.4898 16 23.9999 16Z" fill="#151E3F"/>
</svg>
