<svg width="24" height="24" viewBox="0 0 24 24" fill="none" xmlns="http://www.w3.org/2000/svg">
<path fill-rule="evenodd" clip-rule="evenodd" d="M12 7.00006C11.4477 7.00006 11 7.44778 11 8.00006V11.5858L9.29291 13.293C8.90239 13.6835 8.90239 14.3166 9.29291 14.7072C9.68344 15.0977 10.3166 15.0977 10.7071 14.7072L12.7071 12.7072C12.8947 12.5196 13 12.2653 13 12.0001V8.00006C13 7.44778 12.5523 7.00006 12 7.00006Z" fill="#151E3F"/>
<path fill-rule="evenodd" clip-rule="evenodd" d="M6.73622 5.88455C8.21721 4.59213 10.1222 3.89018 12.0877 3.91263C14.0532 3.93508 15.9416 4.68036 17.3927 6.00627C18.8438 7.33217 19.7559 9.1459 19.9551 11.1014C20.0111 11.6508 20.5019 12.0509 21.0513 11.9949C21.6008 11.939 22.0008 11.4482 21.9448 10.8987C21.6958 8.45435 20.5556 6.18719 18.7418 4.5298C16.9279 2.87242 14.5674 1.94082 12.1105 1.91276C9.65364 1.8847 7.27243 2.76213 5.4212 4.37766C3.56996 5.99318 2.37828 8.23371 2.07352 10.6718C1.76877 13.1098 2.37226 15.5747 3.76887 17.5962C5.16548 19.6178 7.25744 21.0543 9.64562 21.6319C12.0338 22.2095 14.551 21.8876 16.717 20.7277C17.9897 20.0462 19.0888 19.1033 19.95 17.9734V20.0001C19.95 20.5524 20.3977 21.0001 20.95 21.0001C21.5023 21.0001 21.95 20.5524 21.95 20.0001V15.0001C21.95 14.4478 21.5023 14.0001 20.95 14.0001H20.4733C20.4578 13.9997 20.4423 13.9997 20.4268 14.0001H15.95C15.3977 14.0001 14.95 14.4478 14.95 15.0001C14.95 15.5524 15.3977 16.0001 15.95 16.0001H18.873C18.1335 17.244 17.065 18.2726 15.7729 18.9646C14.0401 19.8925 12.0263 20.15 10.1158 19.6879C8.20521 19.2259 6.53164 18.0766 5.41436 16.4594C4.29707 14.8422 3.81427 12.8703 4.05808 10.9198C4.30189 8.96939 5.25523 7.17697 6.73622 5.88455Z" fill="#151E3F"/>
</svg>
