<svg width="24" height="24" viewBox="0 0 24 24" fill="none" xmlns="http://www.w3.org/2000/svg">
<path fill-rule="evenodd" clip-rule="evenodd" d="M5 6C4.73478 6 4.48043 6.10536 4.29289 6.29289C4.10536 6.48043 4 6.73478 4 7V17C4 17.2652 4.10536 17.5196 4.29289 17.7071C4.48043 17.8946 4.73478 18 5 18H19C19.2652 18 19.5196 17.8946 19.7071 17.7071C19.8946 17.5196 20 17.2652 20 17V7C20 6.73478 19.8946 6.48043 19.7071 6.29289C19.5196 6.10536 19.2652 6 19 6H5ZM2.87868 4.87868C3.44129 4.31607 4.20435 4 5 4H19C19.7957 4 20.5587 4.31607 21.1213 4.87868C21.6839 5.44129 22 6.20435 22 7V17C22 17.7957 21.6839 18.5587 21.1213 19.1213C20.5587 19.6839 19.7957 20 19 20H5C4.20435 20 3.44129 19.6839 2.87868 19.1213C2.31607 18.5587 2 17.7956 2 17V7C2 6.20435 2.31607 5.44129 2.87868 4.87868Z" fill="#151E3F"/>
<path fill-rule="evenodd" clip-rule="evenodd" d="M2.16795 6.4453C2.4743 5.98577 3.09517 5.8616 3.5547 6.16795L12 11.7981L20.4453 6.16795C20.9048 5.8616 21.5257 5.98577 21.8321 6.4453C22.1384 6.90483 22.0142 7.5257 21.5547 7.83205L12.5547 13.8321C12.2188 14.056 11.7812 14.056 11.4453 13.8321L2.4453 7.83205C1.98577 7.5257 1.8616 6.90483 2.16795 6.4453Z" fill="#151E3F"/>
</svg>
