<svg width="24" height="24" viewBox="0 0 24 24" fill="none" xmlns="http://www.w3.org/2000/svg">
<path fill-rule="evenodd" clip-rule="evenodd" d="M3.69936 6.04626C4.11564 5.91504 4.56893 6.06896 4.81923 6.42653L10 13.8276V7C10 6.44771 10.4477 6 11 6C11.5523 6 12 6.44771 12 7V17C12 17.4365 11.7169 17.8225 11.3006 17.9537C10.8844 18.085 10.4311 17.931 10.1808 17.5735L5 10.1724V17C5 17.5523 4.55228 18 4 18C3.44772 18 3 17.5523 3 17V7C3 6.56353 3.28308 6.17748 3.69936 6.04626Z" fill="#151E3F"/>
<path fill-rule="evenodd" clip-rule="evenodd" d="M14 17C14 16.4477 14.4477 16 15 16H20C20.5523 16 21 16.4477 21 17C21 17.5523 20.5523 18 20 18H15C14.4477 18 14 17.5523 14 17Z" fill="#151E3F"/>
<path fill-rule="evenodd" clip-rule="evenodd" d="M14.964 7.23849C15.6004 6.47485 16.5068 6 17.5 6C18.4932 6 19.3996 6.47485 20.036 7.23849C20.6679 7.99681 21 8.99212 21 10C21 11.0079 20.6679 12.0032 20.036 12.7615C19.3996 13.5251 18.4932 14 17.5 14C16.5068 14 15.6004 13.5251 14.964 12.7615C14.3321 12.0032 14 11.0079 14 10C14 8.99212 14.3321 7.99681 14.964 7.23849ZM17.5 8C17.1671 8 16.8018 8.15728 16.5005 8.51886C16.1947 8.88576 16 9.41658 16 10C16 10.5834 16.1947 11.1142 16.5005 11.4811C16.8018 11.8427 17.1671 12 17.5 12C17.8329 12 18.1982 11.8427 18.4995 11.4811C18.8053 11.1142 19 10.5834 19 10C19 9.41658 18.8053 8.88576 18.4995 8.51886C18.1982 8.15728 17.8329 8 17.5 8Z" fill="#151E3F"/>
</svg>
