<svg width="24" height="24" viewBox="0 0 24 24" fill="none" xmlns="http://www.w3.org/2000/svg">
<path fill-rule="evenodd" clip-rule="evenodd" d="M2.87868 16.8787C3.44129 16.3161 4.20435 16 5 16C5.79565 16 6.55871 16.3161 7.12132 16.8787C7.68393 17.4413 8 18.2043 8 19C8 19.7957 7.68393 20.5587 7.12132 21.1213C6.55871 21.6839 5.79565 22 5 22C4.20435 22 3.44129 21.6839 2.87868 21.1213C2.31607 20.5587 2 19.7957 2 19C2 18.2043 2.31607 17.4413 2.87868 16.8787ZM5 18C4.73478 18 4.48043 18.1054 4.29289 18.2929C4.10536 18.4804 4 18.7348 4 19C4 19.2652 4.10536 19.5196 4.29289 19.7071C4.48043 19.8946 4.73478 20 5 20C5.26522 20 5.51957 19.8946 5.70711 19.7071C5.89464 19.5196 6 19.2652 6 19C6 18.7348 5.89464 18.4804 5.70711 18.2929C5.51957 18.1054 5.26522 18 5 18Z" fill="#151E3F"/>
<path fill-rule="evenodd" clip-rule="evenodd" d="M16.8787 2.87868C17.4413 2.31607 18.2043 2 19 2C19.7957 2 20.5587 2.31607 21.1213 2.87868C21.6839 3.44129 22 4.20435 22 5C22 5.79565 21.6839 6.55871 21.1213 7.12132C20.5587 7.68393 19.7957 8 19 8C18.2043 8 17.4413 7.68393 16.8787 7.12132C16.3161 6.55871 16 5.79565 16 5C16 4.20435 16.3161 3.44129 16.8787 2.87868ZM19 4C18.7348 4 18.4804 4.10536 18.2929 4.29289C18.1054 4.48043 18 4.73478 18 5C18 5.26522 18.1054 5.51957 18.2929 5.70711C18.4804 5.89464 18.7348 6 19 6C19.2652 6 19.5196 5.89464 19.7071 5.70711C19.8946 5.51957 20 5.26522 20 5C20 4.73478 19.8946 4.48043 19.7071 4.29289C19.5196 4.10536 19.2652 4 19 4Z" fill="#151E3F"/>
<path fill-rule="evenodd" clip-rule="evenodd" d="M8.5 6C7.83696 6 7.20107 6.26339 6.73223 6.73223C6.26339 7.20107 6 7.83696 6 8.5C6 9.16304 6.26339 9.79893 6.73223 10.2678C7.20107 10.7366 7.83696 11 8.5 11H16.5C17.6935 11 18.8381 11.4741 19.682 12.318C20.5259 13.1619 21 14.3065 21 15.5C21 16.6935 20.5259 17.8381 19.682 18.682C18.8381 19.5259 17.6935 20 16.5 20H11C10.4477 20 10 19.5523 10 19C10 18.4477 10.4477 18 11 18H16.5C17.163 18 17.7989 17.7366 18.2678 17.2678C18.7366 16.7989 19 16.163 19 15.5C19 14.837 18.7366 14.2011 18.2678 13.7322C17.7989 13.2634 17.163 13 16.5 13H8.5C7.30653 13 6.16193 12.5259 5.31802 11.682C4.47411 10.8381 4 9.69347 4 8.5C4 7.30653 4.47411 6.16193 5.31802 5.31802C6.16193 4.47411 7.30653 4 8.5 4H13C13.5523 4 14 4.44772 14 5C14 5.55228 13.5523 6 13 6H8.5Z" fill="#151E3F"/>
</svg>
