<svg width="24" height="24" viewBox="0 0 24 24" fill="none" xmlns="http://www.w3.org/2000/svg">
<path fill-rule="evenodd" clip-rule="evenodd" d="M15.7071 7.29289C16.0976 7.68342 16.0976 8.31658 15.7071 8.70711L9.70711 14.7071C9.31658 15.0976 8.68342 15.0976 8.29289 14.7071C7.90237 14.3166 7.90237 13.6834 8.29289 13.2929L14.2929 7.29289C14.6834 6.90237 15.3166 6.90237 15.7071 7.29289Z" fill="#151E3F"/>
<path d="M9.5 9C9.77614 9 10 8.77614 10 8.5C10 8.22386 9.77614 8 9.5 8C9.22386 8 9 8.22386 9 8.5C9 8.77614 9.22386 9 9.5 9Z" fill="#151E3F"/>
<path fill-rule="evenodd" clip-rule="evenodd" d="M9.5 9C9.77614 9 10 8.77614 10 8.5C10 8.22386 9.77614 8 9.5 8C9.22386 8 9 8.22386 9 8.5C9 8.77614 9.22386 9 9.5 9ZM8 8.5C8 7.67157 8.67157 7 9.5 7C10.3284 7 11 7.67157 11 8.5C11 9.32843 10.3284 10 9.5 10C8.67157 10 8 9.32843 8 8.5Z" fill="#151E3F"/>
<path d="M14.5 14C14.7761 14 15 13.7761 15 13.5C15 13.2239 14.7761 13 14.5 13C14.2239 13 14 13.2239 14 13.5C14 13.7761 14.2239 14 14.5 14Z" fill="#151E3F"/>
<path fill-rule="evenodd" clip-rule="evenodd" d="M14.5 14C14.7761 14 15 13.7761 15 13.5C15 13.2239 14.7761 13 14.5 13C14.2239 13 14 13.2239 14 13.5C14 13.7761 14.2239 14 14.5 14ZM13 13.5C13 12.6716 13.6716 12 14.5 12C15.3284 12 16 12.6716 16 13.5C16 14.3284 15.3284 15 14.5 15C13.6716 15 13 14.3284 13 13.5Z" fill="#151E3F"/>
<path fill-rule="evenodd" clip-rule="evenodd" d="M7 4C6.73478 4 6.48043 4.10536 6.29289 4.29289C6.10536 4.48043 6 4.73478 6 5V19.1315L7.4453 18.1679C7.84192 17.9035 8.37004 17.9558 8.70711 18.2929L10 19.5858L11.2929 18.2929C11.6834 17.9024 12.3166 17.9024 12.7071 18.2929L14 19.5858L15.2929 18.2929C15.63 17.9558 16.1581 17.9035 16.5547 18.1679L18 19.1315V5C18 4.73478 17.8946 4.48043 17.7071 4.29289C17.5196 4.10536 17.2652 4 17 4H7ZM4.87868 2.87868C5.44129 2.31607 6.20435 2 7 2H17C17.7956 2 18.5587 2.31607 19.1213 2.87868C19.6839 3.44129 20 4.20435 20 5V21C20 21.3688 19.797 21.7077 19.4719 21.8817C19.1467 22.0557 18.7522 22.0366 18.4453 21.8321L16.1274 20.2868L14.7071 21.7071C14.3166 22.0976 13.6834 22.0976 13.2929 21.7071L12 20.4142L10.7071 21.7071C10.3166 22.0976 9.68342 22.0976 9.29289 21.7071L7.87258 20.2868L5.5547 21.8321C5.24784 22.0366 4.8533 22.0557 4.52814 21.8817C4.20298 21.7077 4 21.3688 4 21V5C4 4.20435 4.31607 3.44129 4.87868 2.87868Z" fill="#151E3F"/>
</svg>
