<svg width="24" height="24" viewBox="0 0 24 24" fill="none" xmlns="http://www.w3.org/2000/svg">
<path fill-rule="evenodd" clip-rule="evenodd" d="M4.87868 14.8787C5.44129 14.3161 6.20435 14 7 14C7.79565 14 8.55871 14.3161 9.12132 14.8787C9.68393 15.4413 10 16.2043 10 17C10 17.7957 9.68393 18.5587 9.12132 19.1213C8.55871 19.6839 7.79565 20 7 20C6.20435 20 5.44129 19.6839 4.87868 19.1213C4.31607 18.5587 4 17.7956 4 17C4 16.2044 4.31607 15.4413 4.87868 14.8787ZM7 16C6.73478 16 6.48043 16.1054 6.29289 16.2929C6.10536 16.4804 6 16.7348 6 17C6 17.2652 6.10536 17.5196 6.29289 17.7071C6.48043 17.8946 6.73478 18 7 18C7.26522 18 7.51957 17.8946 7.70711 17.7071C7.89464 17.5196 8 17.2652 8 17C8 16.7348 7.89464 16.4804 7.70711 16.2929C7.51957 16.1054 7.26522 16 7 16Z" fill="#151E3F"/>
<path fill-rule="evenodd" clip-rule="evenodd" d="M14.8787 14.8787C15.4413 14.3161 16.2043 14 17 14C17.7957 14 18.5587 14.3161 19.1213 14.8787C19.6839 15.4413 20 16.2043 20 17C20 17.7957 19.6839 18.5587 19.1213 19.1213C18.5587 19.6839 17.7957 20 17 20C16.2043 20 15.4413 19.6839 14.8787 19.1213C14.3161 18.5587 14 17.7957 14 17C14 16.2043 14.3161 15.4413 14.8787 14.8787ZM17 16C16.7348 16 16.4804 16.1054 16.2929 16.2929C16.1054 16.4804 16 16.7348 16 17C16 17.2652 16.1054 17.5196 16.2929 17.7071C16.4804 17.8946 16.7348 18 17 18C17.2652 18 17.5196 17.8946 17.7071 17.7071C17.8946 17.5196 18 17.2652 18 17C18 16.7348 17.8946 16.4804 17.7071 16.2929C17.5196 16.1054 17.2652 16 17 16Z" fill="#151E3F"/>
<path fill-rule="evenodd" clip-rule="evenodd" d="M1 5C1 4.44772 1.44772 4 2 4H13C13.5523 4 14 4.44772 14 5H18C18.3513 5 18.6768 5.1843 18.8575 5.4855L21.8575 10.4855C21.9507 10.6409 22 10.8188 22 11V17C22 17.5523 21.5523 18 21 18H19C18.4477 18 18 17.5523 18 17C18 16.4477 18.4477 16 19 16H20V12H14V16H15C15.5523 16 16 16.4477 16 17C16 17.5523 15.5523 18 15 18H9C8.44772 18 8 17.5523 8 17C8 16.4477 8.44772 16 9 16H12V6H2C1.44772 6 1 5.55228 1 5ZM14 7V10H19.2338L17.4338 7H14ZM3 12C3.55228 12 4 12.4477 4 13V16H5C5.55228 16 6 16.4477 6 17C6 17.5523 5.55228 18 5 18H3C2.44772 18 2 17.5523 2 17V13C2 12.4477 2.44772 12 3 12Z" fill="#151E3F"/>
<path fill-rule="evenodd" clip-rule="evenodd" d="M2 9C2 8.44772 2.44772 8 3 8H7C7.55228 8 8 8.44772 8 9C8 9.55228 7.55228 10 7 10H3C2.44772 10 2 9.55228 2 9Z" fill="#151E3F"/>
</svg>
